<?xml version="1.0" standalone="no"?>
<!DOCTYPE svg PUBLIC "-//W3C//DTD SVG 1.1//EN" "http://www.w3.org/Graphics/SVG/1.1/DTD/svg11.dtd" >
<svg xmlns="http://www.w3.org/2000/svg" xmlns:xlink="http://www.w3.org/1999/xlink" version="1.1">
<metadata>
Created by FontForge 20190801 at Tue Jul  9 23:23:28 2019
 By Jimmy Wärting
Copyright 2019 The Red Hat Project Authors (https://github.com/RedHatOfficial/RedHatFont)
</metadata>
<defs>
<font id="RedHatText-Regular" horiz-adv-x="552" >
  <font-face 
    font-family="Red Hat Text"
    font-weight="400"
    font-stretch="normal"
    units-per-em="1000"
    panose-1="2 1 5 3 4 2 1 6 3 3"
    ascent="800"
    descent="-200"
    x-height="488"
    cap-height="700"
    bbox="-58 -274 1056 1006"
    underline-thickness="100"
    underline-position="-250"
    unicode-range="U+000D-FFFD"
  />
<missing-glyph horiz-adv-x="514" 
d="M60 -100v850h394v-850h-394z" />
    <glyph glyph-name=".notdef" horiz-adv-x="514" 
d="M60 -100v850h394v-850h-394z" />
    <glyph glyph-name="NULL" horiz-adv-x="233" 
 />
    <glyph glyph-name="NULL" horiz-adv-x="233" 
 />
    <glyph glyph-name="CR" unicode="&#xd;" horiz-adv-x="233" 
 />
    <glyph glyph-name="space" unicode=" " horiz-adv-x="233" 
 />
    <glyph glyph-name="nbspace" unicode="&#xa0;" horiz-adv-x="233" 
 />
    <glyph glyph-name="A" unicode="A" horiz-adv-x="660" 
d="M9 0l277 700h92l273 -700h-83l-83 220h-312l-83 -220h-81zM197 281h265l-133 350z" />
    <glyph glyph-name="B" unicode="B" horiz-adv-x="669" 
d="M89 700h283q96 0 153.5 -48.5t57.5 -129.5q0 -57 -33.5 -99t-90.5 -59q69 -16 110 -61t41 -109q0 -87 -62.5 -140.5t-164.5 -53.5h-294v700zM366 634h-200v-240h200q63 0 101.5 33t38.5 87t-38.5 87t-101.5 33zM375 66q71 0 114 36.5t43 96.5t-42.5 96t-114.5 36h-209
v-265h209z" />
    <glyph glyph-name="C" unicode="C" horiz-adv-x="726" 
d="M414 59q60 0 116 25t94 71l50 -51q-51 -55 -119 -85t-143 -30t-140.5 28.5t-113 77t-75 114.5t-27.5 141t27.5 141.5t75.5 115t113 76.5t140 28q77 0 146 -30t118 -85l-51 -53q-39 46 -96 72t-117 26q-59 0 -110 -22.5t-88 -61.5t-58.5 -92.5t-21.5 -114.5t21.5 -114.5
t58.5 -92.5t88.5 -61.5t111.5 -22.5z" />
    <glyph glyph-name="D" unicode="D" horiz-adv-x="728" 
d="M89 0v700h232q77 0 141.5 -27t110.5 -73.5t72 -111t26 -138.5t-25.5 -138.5t-71.5 -111t-111 -73.5t-142 -27h-232zM326 631h-160v-562h160q56 0 105 21.5t85 59t56.5 89t20.5 111.5t-20.5 111.5t-56.5 89t-85 59t-105 21.5z" />
    <glyph glyph-name="E" unicode="E" horiz-adv-x="619" 
d="M89 0v700h478v-67h-401v-246h278v-67h-278v-253h405v-67h-482z" />
    <glyph glyph-name="F" unicode="F" horiz-adv-x="610" 
d="M89 0v700h478v-67h-401v-251h274v-67h-274v-315h-77z" />
    <glyph glyph-name="G" unicode="G" horiz-adv-x="799" 
d="M744 335q0 -72 -25.5 -135.5t-70 -110t-105.5 -73.5t-132 -27q-74 0 -139 28.5t-113 77t-75.5 114.5t-27.5 141t27.5 141t75 114.5t112.5 77t139 28.5q79 0 151 -29t122 -86l-52 -52q-39 46 -98.5 71.5t-122.5 25.5q-59 0 -109.5 -22.5t-87.5 -61.5t-58 -92.5t-21 -114.5
t21.5 -114.5t58 -93t87.5 -62t109 -22.5q52 0 97 18.5t78.5 50.5t55 76t25.5 95h-236v68h314v-31z" />
    <glyph glyph-name="H" unicode="H" horiz-adv-x="731" 
d="M88 0v700h77v-313h402v313h77v-700h-77v318h-402v-318h-77z" />
    <glyph glyph-name="I" unicode="I" horiz-adv-x="252" 
d="M87 0v700h77v-700h-77z" />
    <glyph glyph-name="J" unicode="J" horiz-adv-x="600" 
d="M525 264q0 -126 -70 -200.5t-188 -74.5q-89 0 -154.5 47.5t-94.5 131.5l70 28q25 -67 70 -102t110 -35q81 0 130.5 56t49.5 150v435h77v-436z" />
    <glyph glyph-name="K" unicode="K" horiz-adv-x="610" 
d="M89 0v700h77v-332l340 332h98l-357 -344l365 -356h-105l-341 335v-335h-77z" />
    <glyph glyph-name="L" unicode="L" horiz-adv-x="607" 
d="M89 0v700h77v-632h395v-68h-472z" />
    <glyph glyph-name="M" unicode="M" horiz-adv-x="861" 
d="M430 50l-269 561v-611h-72v700h107l234 -498l234 498h107v-700h-73v609z" />
    <glyph glyph-name="N" unicode="N" horiz-adv-x="739" 
d="M89 700h80l410 -580l-2 580h73v-700h-70l-420 593l2 -593h-73v700z" />
    <glyph glyph-name="O" unicode="O" horiz-adv-x="810" 
d="M753 350q0 -75 -27 -141.5t-74 -115t-110.5 -76.5t-136.5 -28q-72 0 -136 28t-111 76.5t-74 115t-27 141.5t27 141.5t74 115t111 76.5t136 28q73 0 136.5 -28t110.5 -76.5t74 -115t27 -141.5zM675 350q0 61 -21 114.5t-57 92.5t-85.5 61.5t-106.5 22.5t-106.5 -22.5
t-85.5 -61.5t-57 -92.5t-21 -114.5t21 -114.5t57 -92.5t85.5 -61.5t106.5 -22.5t106.5 22.5t85.5 61.5t57 92.5t21 114.5z" />
    <glyph glyph-name="P" unicode="P" horiz-adv-x="654" 
d="M89 0v700h289q101 0 162 -57t61 -150t-61 -150t-162 -57h-212v-286h-77zM369 632h-203v-280h203q72 0 113.5 38t41.5 103q0 64 -41.5 101.5t-113.5 37.5z" />
    <glyph glyph-name="Q" unicode="Q" horiz-adv-x="809" 
d="M753 350q0 -79 -30 -148t-81 -118l66 -74l-56 -43l-65 74q-40 -25 -86 -38.5t-96 -13.5q-72 0 -136 28t-111 76.5t-74 115t-27 141.5t27 141.5t74 115t111 76.5t136 28q73 0 136.5 -28t110.5 -76.5t74 -115t27 -141.5zM500 244l93 -105q38 39 60 93.5t22 117.5
q0 61 -21 114.5t-57 92.5t-85.5 61.5t-106.5 22.5t-106.5 -22.5t-85.5 -61.5t-57 -92.5t-21 -114.5t21 -114.5t57 -92.5t85.5 -61.5t106.5 -22.5q37 0 70.5 9.5t62.5 26.5l-94 106z" />
    <glyph glyph-name="R" unicode="R" horiz-adv-x="647" 
d="M89 0v700h287q100 0 161.5 -56t61.5 -146q0 -69 -39.5 -119.5t-106.5 -69.5l149 -309h-85l-142 299h-209v-299h-77zM370 632h-204v-269h204q69 0 110.5 37t41.5 97q0 61 -41.5 98t-110.5 37z" />
    <glyph glyph-name="S" unicode="S" horiz-adv-x="623" 
d="M28 109l47 56q63 -59 118.5 -84t123.5 -25q81 0 134 40.5t53 100.5q0 52 -35.5 80t-120.5 43l-113 19q-96 17 -140.5 58.5t-44.5 111.5q0 88 67 144t173 56q78 0 145 -21.5t132 -67.5l-40 -60q-54 40 -114.5 62t-121.5 22q-73 0 -120 -36.5t-47 -90.5q0 -46 31 -72
t101 -37l112 -19q111 -20 162 -65t51 -123q0 -45 -20 -84t-55.5 -67t-84.5 -44t-106 -16q-82 0 -152.5 29.5t-134.5 89.5z" />
    <glyph glyph-name="T" unicode="T" horiz-adv-x="617" 
d="M28 632v68h560v-68h-241v-632h-77v632h-242z" />
    <glyph glyph-name="U" unicode="U" horiz-adv-x="712" 
d="M637 296q0 -140 -76.5 -223.5t-204.5 -83.5q-129 0 -205 83t-76 224v404h77v-404q0 -107 55.5 -172t148.5 -65t148.5 65t55.5 172v404h77v-404z" />
    <glyph glyph-name="V" unicode="V" horiz-adv-x="660" 
d="M283 0l-274 700h82l240 -626l241 626h79l-276 -700h-92z" />
    <glyph glyph-name="W" unicode="W" horiz-adv-x="897" 
d="M271 0h-78l-151 700h78l119 -579l173 579h75l173 -577l120 577h75l-151 -700h-78l-177 594z" />
    <glyph glyph-name="X" unicode="X" horiz-adv-x="654" 
d="M101 0h-90l270 362l-253 338h92l207 -278l205 278h90l-251 -336l272 -364h-93l-224 305z" />
    <glyph glyph-name="Y" unicode="Y" horiz-adv-x="646" 
d="M284 0v286l-272 414h90l223 -347l224 347h85l-273 -416v-284h-77z" />
    <glyph glyph-name="Z" unicode="Z" horiz-adv-x="605" 
d="M37 0v54l430 581l-427 -2v67h524v-54l-431 -581l439 2v-67h-535z" />
    <glyph glyph-name="Aacute" unicode="&#xc1;" horiz-adv-x="660" 
d="M9 0zM9 0l277 700h92l273 -700h-83l-83 220h-312l-83 -220h-81zM197 281h265l-133 350zM395 918h99l-144 -122h-67z" />
    <glyph glyph-name="Abreve" unicode="&#x102;" horiz-adv-x="660" 
d="M9 0zM9 0l277 700h92l273 -700h-83l-83 220h-312l-83 -220h-81zM197 281h265l-133 350zM331 837q41 0 68.5 24t38.5 68l50 -12q-13 -59 -55 -92.5t-102 -33.5q-61 0 -103 33.5t-56 92.5l51 12q11 -45 38 -68.5t70 -23.5z" />
    <glyph glyph-name="Acircumflex" unicode="&#xc2;" horiz-adv-x="660" 
d="M9 0zM9 0l277 700h92l273 -700h-83l-83 220h-312l-83 -220h-81zM197 281h265l-133 350zM424 791l-94 88l-93 -88h-59l114 127h78l114 -127h-60z" />
    <glyph glyph-name="Adieresis" unicode="&#xc4;" horiz-adv-x="660" 
d="M9 0zM9 0l277 700h92l273 -700h-83l-83 220h-312l-83 -220h-81zM197 281h265l-133 350zM241 813q-21 0 -35.5 14.5t-14.5 36.5t14.5 36.5t35.5 14.5q20 0 35 -14.5t15 -36.5t-15 -36.5t-35 -14.5zM420 813q-21 0 -35.5 14.5t-14.5 36.5t14.5 36.5t35.5 14.5
q20 0 35 -14.5t15 -36.5t-15 -36.5t-35 -14.5z" />
    <glyph glyph-name="AE" unicode="&#xc6;" horiz-adv-x="919" 
d="M9 0l277 700h584v-68h-461l92 -245h237v-67h-212l95 -252h249v-68h-303l-83 220h-311l-84 -220h-80zM196 281h265l-132 350z" />
    <glyph glyph-name="Agrave" unicode="&#xc0;" horiz-adv-x="660" 
d="M9 0zM9 0l277 700h92l273 -700h-83l-83 220h-312l-83 -220h-81zM197 281h265l-133 350zM271 918l112 -122h-71l-144 122h103z" />
    <glyph glyph-name="Amacron" unicode="&#x100;" horiz-adv-x="660" 
d="M9 0zM9 0l277 700h92l273 -700h-83l-83 220h-312l-83 -220h-81zM197 281h265l-133 350zM471 875v-52h-273v52h273z" />
    <glyph glyph-name="Aogonek" unicode="&#x104;" horiz-adv-x="660" 
d="M9 0l277 700h92l273 -700q-54 -35 -79 -66t-25 -62q0 -27 18 -42t49 -15q13 0 26 3t22 9l14 -39q-14 -9 -33.5 -14t-39.5 -5q-48 0 -77 25t-29 66q0 37 23.5 70t75.5 70h-28l-83 220h-312l-83 -220h-81zM197 281h265l-133 350z" />
    <glyph glyph-name="Aring" unicode="&#xc5;" horiz-adv-x="660" 
d="M9 0zM9 0l277 700h92l273 -700h-83l-83 220h-312l-83 -220h-81zM197 281h265l-133 350zM331 784q-47 0 -79.5 32.5t-32.5 79.5q0 46 32.5 78t79.5 32q46 0 79 -32t33 -78q0 -47 -33 -79.5t-79 -32.5zM331 824q29 0 49 20.5t20 51.5q0 29 -20.5 49t-48.5 20q-30 0 -50 -20
t-20 -49q0 -31 20 -51.5t50 -20.5z" />
    <glyph glyph-name="Atilde" unicode="&#xc3;" horiz-adv-x="660" 
d="M9 0zM9 0l277 700h92l273 -700h-83l-83 220h-312l-83 -220h-81zM197 281h265l-133 350zM212 792l-51 10q13 51 38.5 77.5t61.5 26.5q22 0 41.5 -9.5t37.5 -20.5t34.5 -20.5t31.5 -9.5q16 0 26 14t20 50l51 -10q-13 -51 -37.5 -77.5t-58.5 -26.5q-21 0 -40.5 9.5t-37 20.5
t-34 20.5t-32.5 9.5q-19 0 -30.5 -14.5t-20.5 -49.5z" />
    <glyph glyph-name="Cacute" unicode="&#x106;" horiz-adv-x="726" 
d="M56 0zM414 59q60 0 116 25t94 71l50 -51q-51 -55 -119 -85t-143 -30t-140.5 28.5t-113 77t-75 114.5t-27.5 141t27.5 141.5t75.5 115t113 76.5t140 28q77 0 146 -30t118 -85l-51 -53q-39 46 -96 72t-117 26q-59 0 -110 -22.5t-88 -61.5t-58.5 -92.5t-21.5 -114.5
t21.5 -114.5t58.5 -92.5t88.5 -61.5t111.5 -22.5zM462 918h99l-144 -122h-67z" />
    <glyph glyph-name="Ccaron" unicode="&#x10c;" horiz-adv-x="726" 
d="M56 0zM414 59q60 0 116 25t94 71l50 -51q-51 -55 -119 -85t-143 -30t-140.5 28.5t-113 77t-75 114.5t-27.5 141t27.5 141.5t75.5 115t113 76.5t140 28q77 0 146 -30t118 -85l-51 -53q-39 46 -96 72t-117 26q-59 0 -110 -22.5t-88 -61.5t-58.5 -92.5t-21.5 -114.5
t21.5 -114.5t58.5 -92.5t88.5 -61.5t111.5 -22.5zM307 922l92 -88l92 88h61l-114 -127h-78l-114 127h61z" />
    <glyph glyph-name="Ccedilla" unicode="&#xc7;" horiz-adv-x="726" 
d="M414 59q60 0 116 25t94 71l50 -51q-49 -54 -115 -84t-138 -31l-13 -55q44 -2 70.5 -23.5t26.5 -56.5q0 -40 -31 -66.5t-80 -26.5q-34 0 -62 9t-48 27l28 32q17 -14 37 -21.5t42 -7.5q31 0 48 14t17 38q0 23 -18.5 36t-52.5 13h-29l23 90q-69 6 -128.5 36t-102.5 78
t-67.5 111t-24.5 134q0 75 27.5 141.5t75.5 115t113 76.5t140 28q77 0 146 -30t118 -85l-51 -53q-39 46 -96 72t-117 26q-59 0 -110 -22.5t-88 -61.5t-58.5 -92.5t-21.5 -114.5t21.5 -114.5t58.5 -92.5t88.5 -61.5t111.5 -22.5z" />
    <glyph glyph-name="Ccircumflex" unicode="&#x108;" horiz-adv-x="726" 
d="M56 0zM414 59q60 0 116 25t94 71l50 -51q-51 -55 -119 -85t-143 -30t-140.5 28.5t-113 77t-75 114.5t-27.5 141t27.5 141.5t75.5 115t113 76.5t140 28q77 0 146 -30t118 -85l-51 -53q-39 46 -96 72t-117 26q-59 0 -110 -22.5t-88 -61.5t-58.5 -92.5t-21.5 -114.5
t21.5 -114.5t58.5 -92.5t88.5 -61.5t111.5 -22.5zM492 791l-94 88l-93 -88h-59l114 127h78l114 -127h-60z" />
    <glyph glyph-name="Cdotaccent" unicode="&#x10a;" horiz-adv-x="726" 
d="M56 0zM414 59q60 0 116 25t94 71l50 -51q-51 -55 -119 -85t-143 -30t-140.5 28.5t-113 77t-75 114.5t-27.5 141t27.5 141.5t75.5 115t113 76.5t140 28q77 0 146 -30t118 -85l-51 -53q-39 46 -96 72t-117 26q-59 0 -110 -22.5t-88 -61.5t-58.5 -92.5t-21.5 -114.5
t21.5 -114.5t58.5 -92.5t88.5 -61.5t111.5 -22.5zM399 813q-21 0 -35.5 14.5t-14.5 36.5t14.5 36.5t35.5 14.5t35.5 -14.5t14.5 -36.5t-14.5 -36.5t-35.5 -14.5z" />
    <glyph glyph-name="Dcaron" unicode="&#x10e;" horiz-adv-x="728" 
d="M89 0zM89 0v700h232q77 0 141.5 -27t110.5 -73.5t72 -111t26 -138.5t-25.5 -138.5t-71.5 -111t-111 -73.5t-142 -27h-232zM326 631h-160v-562h160q56 0 105 21.5t85 59t56.5 89t20.5 111.5t-20.5 111.5t-56.5 89t-85 59t-105 21.5zM268 922l92 -88l92 88h61l-114 -127
h-78l-114 127h61z" />
    <glyph glyph-name="Dcroat" unicode="&#x110;" horiz-adv-x="760" 
d="M121 0v317h-96v66h96v317h232q77 0 141.5 -27t110.5 -73.5t72 -111t26 -138.5t-25.5 -138.5t-71.5 -111t-111 -73.5t-142 -27h-232zM358 631h-160v-248h166v-66h-166v-248h160q56 0 105 21.5t85 59t56.5 89t20.5 111.5t-20.5 111.5t-56.5 89t-85 59t-105 21.5z" />
    <glyph glyph-name="Eacute" unicode="&#xc9;" horiz-adv-x="619" 
d="M89 0zM89 0v700h478v-67h-401v-246h278v-67h-278v-253h405v-67h-482zM405 918h99l-144 -122h-67z" />
    <glyph glyph-name="Ebreve" unicode="&#x114;" horiz-adv-x="619" 
d="M89 0zM89 0v700h478v-67h-401v-246h278v-67h-278v-253h405v-67h-482zM341 837q41 0 68.5 24t38.5 68l50 -12q-13 -59 -55 -92.5t-102 -33.5q-61 0 -103 33.5t-56 92.5l51 12q11 -45 38 -68.5t70 -23.5z" />
    <glyph glyph-name="Ecaron" unicode="&#x11a;" horiz-adv-x="619" 
d="M89 0zM89 0v700h478v-67h-401v-246h278v-67h-278v-253h405v-67h-482zM249 922l92 -88l92 88h61l-114 -127h-78l-114 127h61z" />
    <glyph glyph-name="Ecircumflex" unicode="&#xca;" horiz-adv-x="619" 
d="M89 0zM89 0v700h478v-67h-401v-246h278v-67h-278v-253h405v-67h-482zM434 791l-94 88l-93 -88h-59l114 127h78l114 -127h-60z" />
    <glyph glyph-name="Edieresis" unicode="&#xcb;" horiz-adv-x="619" 
d="M89 0zM89 0v700h478v-67h-401v-246h278v-67h-278v-253h405v-67h-482zM251 813q-21 0 -35.5 14.5t-14.5 36.5t14.5 36.5t35.5 14.5q20 0 35 -14.5t15 -36.5t-15 -36.5t-35 -14.5zM430 813q-21 0 -35.5 14.5t-14.5 36.5t14.5 36.5t35.5 14.5q20 0 35 -14.5t15 -36.5
t-15 -36.5t-35 -14.5z" />
    <glyph glyph-name="Edotaccent" unicode="&#x116;" horiz-adv-x="619" 
d="M89 0zM89 0v700h478v-67h-401v-246h278v-67h-278v-253h405v-67h-482zM341 813q-21 0 -35.5 14.5t-14.5 36.5t14.5 36.5t35.5 14.5t35.5 -14.5t14.5 -36.5t-14.5 -36.5t-35.5 -14.5z" />
    <glyph glyph-name="Egrave" unicode="&#xc8;" horiz-adv-x="619" 
d="M89 0zM89 0v700h478v-67h-401v-246h278v-67h-278v-253h405v-67h-482zM281 918l112 -122h-71l-144 122h103z" />
    <glyph glyph-name="Emacron" unicode="&#x112;" horiz-adv-x="619" 
d="M89 0zM89 0v700h478v-67h-401v-246h278v-67h-278v-253h405v-67h-482zM481 875v-52h-273v52h273z" />
    <glyph glyph-name="Eng" unicode="&#x14a;" horiz-adv-x="739" 
d="M579 1l-418 589l1 -590h-73v700h80l409 -577l-1 577h73v-783q0 -59 -31.5 -92t-91.5 -33q-12 0 -23.5 2t-21.5 4v62q8 -2 16.5 -3t19.5 -1q32 0 46.5 16t14.5 52v77z" />
    <glyph glyph-name="Eogonek" unicode="&#x118;" horiz-adv-x="619" 
d="M89 0v700h478v-67h-401v-246h278v-67h-278v-253h405v-67h-2q-54 -35 -79 -66t-25 -62q0 -27 18 -42t49 -15q13 0 26 3t22 9l14 -39q-14 -9 -33.5 -14t-39.5 -5q-48 0 -77 25t-29 66q0 37 23.5 70t75.5 70h-425z" />
    <glyph glyph-name="Eth" unicode="&#xd0;" horiz-adv-x="760" 
d="M121 0v317h-96v66h96v317h232q77 0 141.5 -27t110.5 -73.5t72 -111t26 -138.5t-25.5 -138.5t-71.5 -111t-111 -73.5t-142 -27h-232zM358 631h-160v-248h166v-66h-166v-248h160q56 0 105 21.5t85 59t56.5 89t20.5 111.5t-20.5 111.5t-56.5 89t-85 59t-105 21.5z" />
    <glyph glyph-name="Gbreve" unicode="&#x11e;" horiz-adv-x="799" 
d="M56 0zM744 335q0 -72 -25.5 -135.5t-70 -110t-105.5 -73.5t-132 -27q-74 0 -139 28.5t-113 77t-75.5 114.5t-27.5 141t27.5 141t75 114.5t112.5 77t139 28.5q79 0 151 -29t122 -86l-52 -52q-39 46 -98.5 71.5t-122.5 25.5q-59 0 -109.5 -22.5t-87.5 -61.5t-58 -92.5
t-21 -114.5t21.5 -114.5t58 -93t87.5 -62t109 -22.5q52 0 97 18.5t78.5 50.5t55 76t25.5 95h-236v68h314v-31zM400 837q41 0 68.5 24t38.5 68l50 -12q-13 -59 -55 -92.5t-102 -33.5q-61 0 -103 33.5t-56 92.5l51 12q11 -45 38 -68.5t70 -23.5z" />
    <glyph glyph-name="Gcircumflex" unicode="&#x11c;" horiz-adv-x="799" 
d="M56 0zM744 335q0 -72 -25.5 -135.5t-70 -110t-105.5 -73.5t-132 -27q-74 0 -139 28.5t-113 77t-75.5 114.5t-27.5 141t27.5 141t75 114.5t112.5 77t139 28.5q79 0 151 -29t122 -86l-52 -52q-39 46 -98.5 71.5t-122.5 25.5q-59 0 -109.5 -22.5t-87.5 -61.5t-58 -92.5
t-21 -114.5t21.5 -114.5t58 -93t87.5 -62t109 -22.5q52 0 97 18.5t78.5 50.5t55 76t25.5 95h-236v68h314v-31zM493 791l-94 88l-93 -88h-59l114 127h78l114 -127h-60z" />
    <glyph glyph-name="uni0122" unicode="&#x122;" horiz-adv-x="799" 
d="M56 0zM744 335q0 -72 -25.5 -135.5t-70 -110t-105.5 -73.5t-132 -27q-74 0 -139 28.5t-113 77t-75.5 114.5t-27.5 141t27.5 141t75 114.5t112.5 77t139 28.5q79 0 151 -29t122 -86l-52 -52q-39 46 -98.5 71.5t-122.5 25.5q-59 0 -109.5 -22.5t-87.5 -61.5t-58 -92.5
t-21 -114.5t21.5 -114.5t58 -93t87.5 -62t109 -22.5q52 0 97 18.5t78.5 50.5t55 76t25.5 95h-236v68h314v-31zM378 -87h73l-69 -187h-53z" />
    <glyph glyph-name="Gdotaccent" unicode="&#x120;" horiz-adv-x="799" 
d="M56 0zM744 335q0 -72 -25.5 -135.5t-70 -110t-105.5 -73.5t-132 -27q-74 0 -139 28.5t-113 77t-75.5 114.5t-27.5 141t27.5 141t75 114.5t112.5 77t139 28.5q79 0 151 -29t122 -86l-52 -52q-39 46 -98.5 71.5t-122.5 25.5q-59 0 -109.5 -22.5t-87.5 -61.5t-58 -92.5
t-21 -114.5t21.5 -114.5t58 -93t87.5 -62t109 -22.5q52 0 97 18.5t78.5 50.5t55 76t25.5 95h-236v68h314v-31zM400 813q-21 0 -35.5 14.5t-14.5 36.5t14.5 36.5t35.5 14.5t35.5 -14.5t14.5 -36.5t-14.5 -36.5t-35.5 -14.5z" />
    <glyph glyph-name="Hbar" unicode="&#x126;" horiz-adv-x="747" 
d="M96 0v521h-85v61h85v118h77v-118h402v118h77v-118h83v-61h-83v-521h-77v319h-402v-319h-77zM173 386h402v135h-402v-135z" />
    <glyph glyph-name="Hcircumflex" unicode="&#x124;" horiz-adv-x="731" 
d="M88 0zM88 0v700h77v-313h402v313h77v-700h-77v318h-402v-318h-77zM460 791l-94 88l-93 -88h-59l114 127h78l114 -127h-60z" />
    <glyph glyph-name="Iacute" unicode="&#xcd;" horiz-adv-x="252" 
d="M77 0zM87 0v700h77v-700h-77zM189 918h99l-144 -122h-67z" />
    <glyph glyph-name="Ibreve" unicode="&#x12c;" horiz-adv-x="252" 
d="M0 0zM87 0v700h77v-700h-77zM126 837q41 0 68.5 24t38.5 68l50 -12q-13 -59 -55 -92.5t-102 -33.5q-61 0 -103 33.5t-56 92.5l51 12q11 -45 38 -68.5t70 -23.5z" />
    <glyph glyph-name="Icircumflex" unicode="&#xce;" horiz-adv-x="252" 
d="M0 0zM87 0v700h77v-700h-77zM219 791l-94 88l-93 -88h-59l114 127h78l114 -127h-60z" />
    <glyph glyph-name="Idieresis" unicode="&#xcf;" horiz-adv-x="252" 
d="M0 0zM87 0v700h77v-700h-77zM36 813q-21 0 -35.5 14.5t-14.5 36.5t14.5 36.5t35.5 14.5q20 0 35 -14.5t15 -36.5t-15 -36.5t-35 -14.5zM215 813q-21 0 -35.5 14.5t-14.5 36.5t14.5 36.5t35.5 14.5q20 0 35 -14.5t15 -36.5t-15 -36.5t-35 -14.5z" />
    <glyph glyph-name="Idotaccent" unicode="&#x130;" horiz-adv-x="252" 
d="M76 0zM87 0v700h77v-700h-77zM126 813q-21 0 -35.5 14.5t-14.5 36.5t14.5 36.5t35.5 14.5t35.5 -14.5t14.5 -36.5t-14.5 -36.5t-35.5 -14.5z" />
    <glyph glyph-name="Igrave" unicode="&#xcc;" horiz-adv-x="252" 
d="M0 0zM87 0v700h77v-700h-77zM66 918l112 -122h-71l-144 122h103z" />
    <glyph glyph-name="IJ" unicode="&#x132;" horiz-adv-x="848" 
d="M87 0zM87 0v700h77v-700h-77zM777 264q0 -126 -70 -200.5t-188 -74.5q-89 0 -154.5 47.5t-94.5 131.5l70 28q25 -67 70 -102t110 -35q81 0 130.5 56t49.5 150v435h77v-436z" />
    <glyph glyph-name="Imacron" unicode="&#x12a;" horiz-adv-x="252" 
d="M0 0zM87 0v700h77v-700h-77zM266 875v-52h-273v52h273z" />
    <glyph glyph-name="Iogonek" unicode="&#x12e;" horiz-adv-x="252" 
d="M87 0v700h77v-700q-54 -35 -79 -66t-25 -62q0 -27 18 -42t49 -15q13 0 26 3t22 9l14 -39q-14 -9 -33.5 -14t-39.5 -5q-48 0 -77 25t-29 66q0 37 23.5 70t75.5 70h-22z" />
    <glyph glyph-name="Itilde" unicode="&#x128;" horiz-adv-x="252" 
d="M0 0zM87 0v700h77v-700h-77zM7 792l-51 10q13 51 38.5 77.5t61.5 26.5q22 0 41.5 -9.5t37.5 -20.5t34.5 -20.5t31.5 -9.5q16 0 26 14t20 50l51 -10q-13 -51 -37.5 -77.5t-58.5 -26.5q-21 0 -40.5 9.5t-37 20.5t-34 20.5t-32.5 9.5q-19 0 -30.5 -14.5t-20.5 -49.5z" />
    <glyph glyph-name="Jcircumflex" unicode="&#x134;" horiz-adv-x="600" 
d="M18 0zM525 264q0 -126 -70 -200.5t-188 -74.5q-89 0 -154.5 47.5t-94.5 131.5l70 28q25 -67 70 -102t110 -35q81 0 130.5 56t49.5 150v435h77v-436zM577 791l-94 88l-93 -88h-59l114 127h78l114 -127h-60z" />
    <glyph glyph-name="uni0136" unicode="&#x136;" horiz-adv-x="610" 
d="M89 0zM89 0v700h77v-332l340 332h98l-357 -344l365 -356h-105l-341 335v-335h-77zM316 -87h73l-69 -187h-53z" />
    <glyph glyph-name="Lacute" unicode="&#x139;" horiz-adv-x="607" 
d="M79 0zM89 0v700h77v-632h395v-68h-472zM191 918h99l-144 -122h-67z" />
    <glyph glyph-name="Lcaron" unicode="&#x13d;" horiz-adv-x="606" 
d="M89 0zM89 0v700h77v-632h395v-68h-472zM399 714h76l-25 -210h-56z" />
    <glyph glyph-name="uni013B" unicode="&#x13b;" horiz-adv-x="607" 
d="M89 0zM89 0v700h77v-632h395v-68h-472zM316 -87h73l-69 -187h-53z" />
    <glyph glyph-name="Ldot" unicode="&#x13f;" horiz-adv-x="607" 
d="M89 0zM89 0v700h77v-632h395v-68h-472zM409 305q-21 0 -35.5 14.5t-14.5 36.5t14.5 36.5t35.5 14.5t35.5 -14.5t14.5 -36.5t-14.5 -36.5t-35.5 -14.5z" />
    <glyph glyph-name="Lslash" unicode="&#x141;" horiz-adv-x="625" 
d="M107 0v244l-93 -73v74l93 73v382h77v-322l176 137v-74l-176 -137v-236h395v-68h-472z" />
    <glyph glyph-name="Nacute" unicode="&#x143;" horiz-adv-x="739" 
d="M89 0zM89 700h80l410 -580l-2 580h73v-700h-70l-420 593l2 -593h-73v700zM426 918h99l-144 -122h-67z" />
    <glyph glyph-name="Ncaron" unicode="&#x147;" horiz-adv-x="739" 
d="M89 0zM89 700h80l410 -580l-2 580h73v-700h-70l-420 593l2 -593h-73v700zM271 922l92 -88l92 88h61l-114 -127h-78l-114 127h61z" />
    <glyph glyph-name="uni0145" unicode="&#x145;" horiz-adv-x="739" 
d="M89 0zM89 700h80l410 -580l-2 580h73v-700h-70l-420 593l2 -593h-73v700zM336 -87h73l-69 -187h-53z" />
    <glyph glyph-name="Ntilde" unicode="&#xd1;" horiz-adv-x="739" 
d="M89 0zM89 700h80l410 -580l-2 580h73v-700h-70l-420 593l2 -593h-73v700zM244 792l-51 10q13 51 38.5 77.5t61.5 26.5q22 0 41.5 -9.5t37.5 -20.5t34.5 -20.5t31.5 -9.5q16 0 26 14t20 50l51 -10q-13 -51 -37.5 -77.5t-58.5 -26.5q-21 0 -40.5 9.5t-37 20.5t-34 20.5
t-32.5 9.5q-19 0 -30.5 -14.5t-20.5 -49.5z" />
    <glyph glyph-name="Oacute" unicode="&#xd3;" horiz-adv-x="810" 
d="M57 0zM753 350q0 -75 -27 -141.5t-74 -115t-110.5 -76.5t-136.5 -28q-72 0 -136 28t-111 76.5t-74 115t-27 141.5t27 141.5t74 115t111 76.5t136 28q73 0 136.5 -28t110.5 -76.5t74 -115t27 -141.5zM675 350q0 61 -21 114.5t-57 92.5t-85.5 61.5t-106.5 22.5
t-106.5 -22.5t-85.5 -61.5t-57 -92.5t-21 -114.5t21 -114.5t57 -92.5t85.5 -61.5t106.5 -22.5t106.5 22.5t85.5 61.5t57 92.5t21 114.5zM469 918h99l-144 -122h-67z" />
    <glyph glyph-name="Obreve" unicode="&#x14e;" horiz-adv-x="810" 
d="M57 0zM753 350q0 -75 -27 -141.5t-74 -115t-110.5 -76.5t-136.5 -28q-72 0 -136 28t-111 76.5t-74 115t-27 141.5t27 141.5t74 115t111 76.5t136 28q73 0 136.5 -28t110.5 -76.5t74 -115t27 -141.5zM675 350q0 61 -21 114.5t-57 92.5t-85.5 61.5t-106.5 22.5
t-106.5 -22.5t-85.5 -61.5t-57 -92.5t-21 -114.5t21 -114.5t57 -92.5t85.5 -61.5t106.5 -22.5t106.5 22.5t85.5 61.5t57 92.5t21 114.5zM406 837q41 0 68.5 24t38.5 68l50 -12q-13 -59 -55 -92.5t-102 -33.5q-61 0 -103 33.5t-56 92.5l51 12q11 -45 38 -68.5t70 -23.5z" />
    <glyph glyph-name="Ocircumflex" unicode="&#xd4;" horiz-adv-x="810" 
d="M57 0zM753 350q0 -75 -27 -141.5t-74 -115t-110.5 -76.5t-136.5 -28q-72 0 -136 28t-111 76.5t-74 115t-27 141.5t27 141.5t74 115t111 76.5t136 28q73 0 136.5 -28t110.5 -76.5t74 -115t27 -141.5zM675 350q0 61 -21 114.5t-57 92.5t-85.5 61.5t-106.5 22.5
t-106.5 -22.5t-85.5 -61.5t-57 -92.5t-21 -114.5t21 -114.5t57 -92.5t85.5 -61.5t106.5 -22.5t106.5 22.5t85.5 61.5t57 92.5t21 114.5zM499 791l-94 88l-93 -88h-59l114 127h78l114 -127h-60z" />
    <glyph glyph-name="Odieresis" unicode="&#xd6;" horiz-adv-x="810" 
d="M57 0zM753 350q0 -75 -27 -141.5t-74 -115t-110.5 -76.5t-136.5 -28q-72 0 -136 28t-111 76.5t-74 115t-27 141.5t27 141.5t74 115t111 76.5t136 28q73 0 136.5 -28t110.5 -76.5t74 -115t27 -141.5zM675 350q0 61 -21 114.5t-57 92.5t-85.5 61.5t-106.5 22.5
t-106.5 -22.5t-85.5 -61.5t-57 -92.5t-21 -114.5t21 -114.5t57 -92.5t85.5 -61.5t106.5 -22.5t106.5 22.5t85.5 61.5t57 92.5t21 114.5zM316 813q-21 0 -35.5 14.5t-14.5 36.5t14.5 36.5t35.5 14.5q20 0 35 -14.5t15 -36.5t-15 -36.5t-35 -14.5zM495 813q-21 0 -35.5 14.5
t-14.5 36.5t14.5 36.5t35.5 14.5q20 0 35 -14.5t15 -36.5t-15 -36.5t-35 -14.5z" />
    <glyph glyph-name="OE" unicode="&#x152;" horiz-adv-x="1060" 
d="M399 0q-73 0 -136 27t-108.5 73.5t-72 111t-26.5 138.5t26.5 138.5t72 111t108.5 73.5t136 27h613v-68h-434q57 -40 94 -104.5t44 -140.5h174v-67h-173q-7 -78 -43.5 -144t-94.5 -108h433v-68h-613zM389 69q53 0 100 22t81 59.5t54 89t20 110.5t-20 110.5t-54 89
t-81 59.5t-100 22q-54 0 -101 -21.5t-81.5 -59t-54 -89.5t-19.5 -111t19.5 -111t54 -89.5t81.5 -59t101 -21.5z" />
    <glyph glyph-name="Ograve" unicode="&#xd2;" horiz-adv-x="810" 
d="M57 0zM753 350q0 -75 -27 -141.5t-74 -115t-110.5 -76.5t-136.5 -28q-72 0 -136 28t-111 76.5t-74 115t-27 141.5t27 141.5t74 115t111 76.5t136 28q73 0 136.5 -28t110.5 -76.5t74 -115t27 -141.5zM675 350q0 61 -21 114.5t-57 92.5t-85.5 61.5t-106.5 22.5
t-106.5 -22.5t-85.5 -61.5t-57 -92.5t-21 -114.5t21 -114.5t57 -92.5t85.5 -61.5t106.5 -22.5t106.5 22.5t85.5 61.5t57 92.5t21 114.5zM346 918l112 -122h-71l-144 122h103z" />
    <glyph glyph-name="Ohungarumlaut" unicode="&#x150;" horiz-adv-x="810" 
d="M57 0zM753 350q0 -75 -27 -141.5t-74 -115t-110.5 -76.5t-136.5 -28q-72 0 -136 28t-111 76.5t-74 115t-27 141.5t27 141.5t74 115t111 76.5t136 28q73 0 136.5 -28t110.5 -76.5t74 -115t27 -141.5zM675 350q0 61 -21 114.5t-57 92.5t-85.5 61.5t-106.5 22.5
t-106.5 -22.5t-85.5 -61.5t-57 -92.5t-21 -114.5t21 -114.5t57 -92.5t85.5 -61.5t106.5 -22.5t106.5 22.5t85.5 61.5t57 92.5t21 114.5zM397 918h84l-144 -124h-69zM570 918h85l-147 -124h-67z" />
    <glyph glyph-name="Omacron" unicode="&#x14c;" horiz-adv-x="810" 
d="M57 0zM753 350q0 -75 -27 -141.5t-74 -115t-110.5 -76.5t-136.5 -28q-72 0 -136 28t-111 76.5t-74 115t-27 141.5t27 141.5t74 115t111 76.5t136 28q73 0 136.5 -28t110.5 -76.5t74 -115t27 -141.5zM675 350q0 61 -21 114.5t-57 92.5t-85.5 61.5t-106.5 22.5
t-106.5 -22.5t-85.5 -61.5t-57 -92.5t-21 -114.5t21 -114.5t57 -92.5t85.5 -61.5t106.5 -22.5t106.5 22.5t85.5 61.5t57 92.5t21 114.5zM546 875v-52h-273v52h273z" />
    <glyph glyph-name="Oslash" unicode="&#xd8;" horiz-adv-x="810" 
d="M150 -5h-73l81 99q-47 49 -74 115t-27 141t27 141.5t74 115t111 76.5t136 28q57 0 108.5 -17.5t94.5 -48.5l49 60h75l-80 -98q47 -49 74 -115.5t27 -141.5t-27 -141.5t-74 -115t-110.5 -76.5t-136.5 -28q-57 0 -109.5 18t-95.5 50zM135 350q0 -57 18.5 -108.5t51.5 -89.5
l357 437q-33 25 -73 38.5t-84 13.5q-57 0 -106.5 -22.5t-85.5 -61.5t-57 -92.5t-21 -114.5zM675 350q0 58 -18.5 109.5t-52.5 89.5l-358 -436q34 -25 74 -39.5t85 -14.5q57 0 106.5 22.5t85.5 61.5t57 92.5t21 114.5z" />
    <glyph glyph-name="Otilde" unicode="&#xd5;" horiz-adv-x="810" 
d="M57 0zM753 350q0 -75 -27 -141.5t-74 -115t-110.5 -76.5t-136.5 -28q-72 0 -136 28t-111 76.5t-74 115t-27 141.5t27 141.5t74 115t111 76.5t136 28q73 0 136.5 -28t110.5 -76.5t74 -115t27 -141.5zM675 350q0 61 -21 114.5t-57 92.5t-85.5 61.5t-106.5 22.5
t-106.5 -22.5t-85.5 -61.5t-57 -92.5t-21 -114.5t21 -114.5t57 -92.5t85.5 -61.5t106.5 -22.5t106.5 22.5t85.5 61.5t57 92.5t21 114.5zM287 792l-51 10q13 51 38.5 77.5t61.5 26.5q22 0 41.5 -9.5t37.5 -20.5t34.5 -20.5t31.5 -9.5q16 0 26 14t20 50l51 -10
q-13 -51 -37.5 -77.5t-58.5 -26.5q-21 0 -40.5 9.5t-37 20.5t-34 20.5t-32.5 9.5q-19 0 -30.5 -14.5t-20.5 -49.5z" />
    <glyph glyph-name="Racute" unicode="&#x154;" horiz-adv-x="647" 
d="M89 0zM89 0v700h287q100 0 161.5 -56t61.5 -146q0 -69 -39.5 -119.5t-106.5 -69.5l149 -309h-85l-142 299h-209v-299h-77zM370 632h-204v-269h204q69 0 110.5 37t41.5 97q0 61 -41.5 98t-110.5 37zM381 918h99l-144 -122h-67z" />
    <glyph glyph-name="Rcaron" unicode="&#x158;" horiz-adv-x="647" 
d="M89 0zM89 0v700h287q100 0 161.5 -56t61.5 -146q0 -69 -39.5 -119.5t-106.5 -69.5l149 -309h-85l-142 299h-209v-299h-77zM370 632h-204v-269h204q69 0 110.5 37t41.5 97q0 61 -41.5 98t-110.5 37zM226 922l92 -88l92 88h61l-114 -127h-78l-114 127h61z" />
    <glyph glyph-name="uni0156" unicode="&#x156;" horiz-adv-x="647" 
d="M89 0zM89 0v700h287q100 0 161.5 -56t61.5 -146q0 -69 -39.5 -119.5t-106.5 -69.5l149 -309h-85l-142 299h-209v-299h-77zM370 632h-204v-269h204q69 0 110.5 37t41.5 97q0 61 -41.5 98t-110.5 37zM292 -87h73l-69 -187h-53z" />
    <glyph glyph-name="Sacute" unicode="&#x15a;" horiz-adv-x="623" 
d="M28 0zM28 109l47 56q63 -59 118.5 -84t123.5 -25q81 0 134 40.5t53 100.5q0 52 -35.5 80t-120.5 43l-113 19q-96 17 -140.5 58.5t-44.5 111.5q0 88 67 144t173 56q78 0 145 -21.5t132 -67.5l-40 -60q-54 40 -114.5 62t-121.5 22q-73 0 -120 -36.5t-47 -90.5q0 -46 31 -72
t101 -37l112 -19q111 -20 162 -65t51 -123q0 -45 -20 -84t-55.5 -67t-84.5 -44t-106 -16q-82 0 -152.5 29.5t-134.5 89.5zM352 919h99l-144 -122h-67z" />
    <glyph glyph-name="Scaron" unicode="&#x160;" horiz-adv-x="623" 
d="M28 0zM28 109l47 56q63 -59 118.5 -84t123.5 -25q81 0 134 40.5t53 100.5q0 52 -35.5 80t-120.5 43l-113 19q-96 17 -140.5 58.5t-44.5 111.5q0 88 67 144t173 56q78 0 145 -21.5t132 -67.5l-40 -60q-54 40 -114.5 62t-121.5 22q-73 0 -120 -36.5t-47 -90.5q0 -46 31 -72
t101 -37l112 -19q111 -20 162 -65t51 -123q0 -45 -20 -84t-55.5 -67t-84.5 -44t-106 -16q-82 0 -152.5 29.5t-134.5 89.5zM197 923l92 -88l92 88h61l-114 -127h-78l-114 127h61z" />
    <glyph glyph-name="uni015E" unicode="&#x15e;" horiz-adv-x="623" 
d="M28 109l47 56q63 -59 118.5 -84t123.5 -25q81 0 134 40.5t53 100.5q0 52 -35.5 80t-120.5 43l-113 19q-96 17 -140.5 58.5t-44.5 111.5q0 88 67 144t173 56q78 0 145 -21.5t132 -67.5l-40 -60q-54 40 -114.5 62t-121.5 22q-73 0 -120 -36.5t-47 -90.5q0 -46 31 -72
t101 -37l112 -19q111 -20 162 -65t51 -123q0 -45 -20 -84t-55.5 -67t-84.5 -44t-106 -16h-2l-12 -54q44 -2 70.5 -23.5t26.5 -56.5q0 -40 -31 -66.5t-80 -26.5q-34 0 -62 9t-48 27l28 32q17 -14 37 -21.5t42 -7.5q31 0 48 14t17 38q0 23 -18.5 36t-52.5 13h-29l23 89
q-68 7 -128.5 36.5t-115.5 80.5z" />
    <glyph glyph-name="Scircumflex" unicode="&#x15c;" horiz-adv-x="623" 
d="M28 0zM28 109l47 56q63 -59 118.5 -84t123.5 -25q81 0 134 40.5t53 100.5q0 52 -35.5 80t-120.5 43l-113 19q-96 17 -140.5 58.5t-44.5 111.5q0 88 67 144t173 56q78 0 145 -21.5t132 -67.5l-40 -60q-54 40 -114.5 62t-121.5 22q-73 0 -120 -36.5t-47 -90.5q0 -46 31 -72
t101 -37l112 -19q111 -20 162 -65t51 -123q0 -45 -20 -84t-55.5 -67t-84.5 -44t-106 -16q-82 0 -152.5 29.5t-134.5 89.5zM382 792l-94 88l-93 -88h-59l114 127h78l114 -127h-60z" />
    <glyph glyph-name="uni0218" unicode="&#x218;" horiz-adv-x="623" 
d="M28 0zM28 109l47 56q63 -59 118.5 -84t123.5 -25q81 0 134 40.5t53 100.5q0 52 -35.5 80t-120.5 43l-113 19q-96 17 -140.5 58.5t-44.5 111.5q0 88 67 144t173 56q78 0 145 -21.5t132 -67.5l-40 -60q-54 40 -114.5 62t-121.5 22q-73 0 -120 -36.5t-47 -90.5q0 -46 31 -72
t101 -37l112 -19q111 -20 162 -65t51 -123q0 -45 -20 -84t-55.5 -67t-84.5 -44t-106 -16q-82 0 -152.5 29.5t-134.5 89.5zM268 -85h73l-69 -187h-53z" />
    <glyph glyph-name="Tbar" unicode="&#x166;" horiz-adv-x="617" 
d="M116 369h154v263h-242v68h560v-68h-241v-263h153v-61h-153v-308h-77v308h-154v61z" />
    <glyph glyph-name="Tcaron" unicode="&#x164;" horiz-adv-x="617" 
d="M28 0zM28 632v68h560v-68h-241v-632h-77v632h-242zM217 922l92 -88l92 88h61l-114 -127h-78l-114 127h61z" />
    <glyph glyph-name="uni0162" unicode="&#x162;" horiz-adv-x="617" 
d="M412 -146q0 -40 -31 -66.5t-80 -26.5q-34 0 -62 9t-48 27l28 32q17 -14 37 -21.5t42 -7.5q31 0 48 14t17 38q0 23 -18.5 36t-52.5 13h-29l25 99h-18v632h-242v68h560v-68h-241v-632h-17l-15 -66q44 -2 70.5 -23.5t26.5 -56.5z" />
    <glyph glyph-name="uni021A" unicode="&#x21a;" horiz-adv-x="617" 
d="M28 0zM28 632v68h560v-68h-241v-632h-77v632h-242zM271 -87h73l-69 -187h-53z" />
    <glyph glyph-name="Thorn" unicode="&#xde;" horiz-adv-x="654" 
d="M89 0v700h77v-143h212q101 0 162 -57t61 -150t-61 -150t-162 -57h-212v-143h-77zM369 490h-203v-281h203q72 0 113.5 38.5t41.5 102.5t-41.5 102t-113.5 38z" />
    <glyph glyph-name="Uacute" unicode="&#xda;" horiz-adv-x="712" 
d="M75 0zM637 296q0 -140 -76.5 -223.5t-204.5 -83.5q-129 0 -205 83t-76 224v404h77v-404q0 -107 55.5 -172t148.5 -65t148.5 65t55.5 172v404h77v-404zM415 918h99l-144 -122h-67z" />
    <glyph glyph-name="Ubreve" unicode="&#x16c;" horiz-adv-x="712" 
d="M75 0zM637 296q0 -140 -76.5 -223.5t-204.5 -83.5q-129 0 -205 83t-76 224v404h77v-404q0 -107 55.5 -172t148.5 -65t148.5 65t55.5 172v404h77v-404zM351 837q41 0 68.5 24t38.5 68l50 -12q-13 -59 -55 -92.5t-102 -33.5q-61 0 -103 33.5t-56 92.5l51 12
q11 -45 38 -68.5t70 -23.5z" />
    <glyph glyph-name="Ucircumflex" unicode="&#xdb;" horiz-adv-x="712" 
d="M75 0zM637 296q0 -140 -76.5 -223.5t-204.5 -83.5q-129 0 -205 83t-76 224v404h77v-404q0 -107 55.5 -172t148.5 -65t148.5 65t55.5 172v404h77v-404zM444 791l-94 88l-93 -88h-59l114 127h78l114 -127h-60z" />
    <glyph glyph-name="Udieresis" unicode="&#xdc;" horiz-adv-x="712" 
d="M75 0zM637 296q0 -140 -76.5 -223.5t-204.5 -83.5q-129 0 -205 83t-76 224v404h77v-404q0 -107 55.5 -172t148.5 -65t148.5 65t55.5 172v404h77v-404zM261 813q-21 0 -35.5 14.5t-14.5 36.5t14.5 36.5t35.5 14.5q20 0 35 -14.5t15 -36.5t-15 -36.5t-35 -14.5zM440 813
q-21 0 -35.5 14.5t-14.5 36.5t14.5 36.5t35.5 14.5q20 0 35 -14.5t15 -36.5t-15 -36.5t-35 -14.5z" />
    <glyph glyph-name="Ugrave" unicode="&#xd9;" horiz-adv-x="712" 
d="M75 0zM637 296q0 -140 -76.5 -223.5t-204.5 -83.5q-129 0 -205 83t-76 224v404h77v-404q0 -107 55.5 -172t148.5 -65t148.5 65t55.5 172v404h77v-404zM291 918l112 -122h-71l-144 122h103z" />
    <glyph glyph-name="Uhungarumlaut" unicode="&#x170;" horiz-adv-x="712" 
d="M75 0zM637 296q0 -140 -76.5 -223.5t-204.5 -83.5q-129 0 -205 83t-76 224v404h77v-404q0 -107 55.5 -172t148.5 -65t148.5 65t55.5 172v404h77v-404zM342 918h84l-144 -124h-69zM515 918h85l-147 -124h-67z" />
    <glyph glyph-name="Umacron" unicode="&#x16a;" horiz-adv-x="712" 
d="M75 0zM637 296q0 -140 -76.5 -223.5t-204.5 -83.5q-129 0 -205 83t-76 224v404h77v-404q0 -107 55.5 -172t148.5 -65t148.5 65t55.5 172v404h77v-404zM491 875v-52h-273v52h273z" />
    <glyph glyph-name="Uogonek" unicode="&#x172;" horiz-adv-x="712" 
d="M637 296q0 -122 -58.5 -202t-159.5 -99q-49 -34 -72.5 -64t-23.5 -59q0 -27 18 -42t49 -15q13 0 26 3t22 9l14 -39q-14 -9 -33.5 -14t-39.5 -5q-48 0 -77 25t-29 66q0 34 20 64.5t64 64.5h-1q-129 0 -205 83t-76 224v404h77v-404q0 -107 55.5 -172t148.5 -65t148.5 65
t55.5 172v404h77v-404z" />
    <glyph glyph-name="Uring" unicode="&#x16e;" horiz-adv-x="712" 
d="M75 0zM637 296q0 -140 -76.5 -223.5t-204.5 -83.5q-129 0 -205 83t-76 224v404h77v-404q0 -107 55.5 -172t148.5 -65t148.5 65t55.5 172v404h77v-404zM351 784q-47 0 -79.5 32.5t-32.5 79.5q0 46 32.5 78t79.5 32q46 0 79 -32t33 -78q0 -47 -33 -79.5t-79 -32.5zM351 824
q29 0 49 20.5t20 51.5q0 29 -20.5 49t-48.5 20q-30 0 -50 -20t-20 -49q0 -31 20 -51.5t50 -20.5z" />
    <glyph glyph-name="Utilde" unicode="&#x168;" horiz-adv-x="712" 
d="M75 0zM637 296q0 -140 -76.5 -223.5t-204.5 -83.5q-129 0 -205 83t-76 224v404h77v-404q0 -107 55.5 -172t148.5 -65t148.5 65t55.5 172v404h77v-404zM232 792l-51 10q13 51 38.5 77.5t61.5 26.5q22 0 41.5 -9.5t37.5 -20.5t34.5 -20.5t31.5 -9.5q16 0 26 14t20 50
l51 -10q-13 -51 -37.5 -77.5t-58.5 -26.5q-21 0 -40.5 9.5t-37 20.5t-34 20.5t-32.5 9.5q-19 0 -30.5 -14.5t-20.5 -49.5z" />
    <glyph glyph-name="Wacute" unicode="&#x1e82;" horiz-adv-x="897" 
d="M42 0zM271 0h-78l-151 700h78l119 -579l173 579h75l173 -577l120 577h75l-151 -700h-78l-177 594zM510 918h99l-144 -122h-67z" />
    <glyph glyph-name="Wdieresis" unicode="&#x1e84;" horiz-adv-x="897" 
d="M42 0zM271 0h-78l-151 700h78l119 -579l173 579h75l173 -577l120 577h75l-151 -700h-78l-177 594zM357 813q-21 0 -35.5 14.5t-14.5 36.5t14.5 36.5t35.5 14.5q20 0 35 -14.5t15 -36.5t-15 -36.5t-35 -14.5zM536 813q-21 0 -35.5 14.5t-14.5 36.5t14.5 36.5t35.5 14.5
q20 0 35 -14.5t15 -36.5t-15 -36.5t-35 -14.5z" />
    <glyph glyph-name="Wgrave" unicode="&#x1e80;" horiz-adv-x="897" 
d="M42 0zM271 0h-78l-151 700h78l119 -579l173 579h75l173 -577l120 577h75l-151 -700h-78l-177 594zM387 918l112 -122h-71l-144 122h103z" />
    <glyph glyph-name="Wcircumflex" unicode="&#x174;" horiz-adv-x="897" 
d="M42 0zM271 0h-78l-151 700h78l119 -579l173 579h75l173 -577l120 577h75l-151 -700h-78l-177 594zM540 791l-94 88l-93 -88h-59l114 127h78l114 -127h-60z" />
    <glyph glyph-name="Yacute" unicode="&#xdd;" horiz-adv-x="646" 
d="M12 0zM284 0v286l-272 414h90l223 -347l224 347h85l-273 -416v-284h-77zM380 918h99l-144 -122h-67z" />
    <glyph glyph-name="Ycircumflex" unicode="&#x176;" horiz-adv-x="646" 
d="M12 0zM284 0v286l-272 414h90l223 -347l224 347h85l-273 -416v-284h-77zM410 791l-94 88l-93 -88h-59l114 127h78l114 -127h-60z" />
    <glyph glyph-name="Ydieresis" unicode="&#x178;" horiz-adv-x="646" 
d="M12 0zM284 0v286l-272 414h90l223 -347l224 347h85l-273 -416v-284h-77zM227 813q-21 0 -35.5 14.5t-14.5 36.5t14.5 36.5t35.5 14.5q20 0 35 -14.5t15 -36.5t-15 -36.5t-35 -14.5zM406 813q-21 0 -35.5 14.5t-14.5 36.5t14.5 36.5t35.5 14.5q20 0 35 -14.5t15 -36.5
t-15 -36.5t-35 -14.5z" />
    <glyph glyph-name="Ygrave" unicode="&#x1ef2;" horiz-adv-x="646" 
d="M12 0zM284 0v286l-272 414h90l223 -347l224 347h85l-273 -416v-284h-77zM257 918l112 -122h-71l-144 122h103z" />
    <glyph glyph-name="Zacute" unicode="&#x179;" horiz-adv-x="605" 
d="M37 0zM37 0v54l430 581l-427 -2v67h524v-54l-431 -581l439 2v-67h-535zM371 918h99l-144 -122h-67z" />
    <glyph glyph-name="Zcaron" unicode="&#x17d;" horiz-adv-x="605" 
d="M37 0zM37 0v54l430 581l-427 -2v67h524v-54l-431 -581l439 2v-67h-535zM216 922l92 -88l92 88h61l-114 -127h-78l-114 127h61z" />
    <glyph glyph-name="Zdotaccent" unicode="&#x17b;" horiz-adv-x="605" 
d="M37 0zM37 0v54l430 581l-427 -2v67h524v-54l-431 -581l439 2v-67h-535zM307 813q-21 0 -35.5 14.5t-14.5 36.5t14.5 36.5t35.5 14.5t35.5 -14.5t14.5 -36.5t-14.5 -36.5t-35.5 -14.5z" />
    <glyph glyph-name="a" unicode="a" horiz-adv-x="526" 
d="M226 -9q-78 0 -127.5 41.5t-49.5 107.5q0 65 50.5 105t132.5 40q42 0 79.5 -9.5t69.5 -28.5v67q0 60 -32 90.5t-94 30.5q-34 0 -69.5 -10t-78.5 -32l-27 56q50 24 95 35.5t89 11.5q90 0 139.5 -44.5t49.5 -127.5v-324h-72v57q-32 -33 -71 -49.5t-84 -16.5zM119 142
q0 -43 34 -69t88 -26q41 0 75.5 14t64.5 42v94q-31 18 -64 26.5t-74 8.5q-56 0 -90 -25t-34 -65z" />
    <glyph glyph-name="b" unicode="b" horiz-adv-x="583" 
d="M530 244q0 -53 -17.5 -99t-48.5 -79.5t-73 -53t-90 -19.5q-46 0 -85.5 18.5t-68.5 52.5v-64h-72v715l73 15v-309q28 34 68 53.5t89 19.5q47 0 88.5 -19.5t71.5 -53t47.5 -79.5t17.5 -98zM287 430q-43 0 -79.5 -17.5t-59.5 -49.5v-239q24 -32 60.5 -50t78.5 -18
q73 0 122 53.5t49 133.5t-49 133.5t-122 53.5z" />
    <glyph glyph-name="c" unicode="c" horiz-adv-x="509" 
d="M298 57q40 0 75.5 15t60.5 43l45 -45q-35 -37 -83.5 -58t-101.5 -21q-50 0 -94.5 19.5t-76.5 53.5t-51 80.5t-19 99.5t18.5 99t51 80t76.5 53.5t95 19.5q54 0 103 -20t85 -56l-47 -51q-26 28 -63 44.5t-75 16.5q-36 0 -67.5 -14.5t-54 -39.5t-36 -59t-13.5 -73
q0 -79 50 -133t122 -54z" />
    <glyph glyph-name="d" unicode="d" horiz-adv-x="582" 
d="M434 0v65q-28 -35 -68 -53.5t-88 -18.5q-47 0 -88.5 19.5t-71.5 53t-47.5 79.5t-17.5 98q0 53 17.5 99t48.5 79.5t73 53t90 19.5q45 0 84 -17.5t68 -50.5v289l73 15v-730h-73zM125 244q0 -80 49 -133.5t122 -53.5q43 0 79 17t59 48v242q-24 31 -60.5 48.5t-77.5 17.5
q-73 0 -122 -53t-49 -133z" />
    <glyph glyph-name="e" unicode="e" horiz-adv-x="557" 
d="M478 56q-42 -33 -87 -49t-96 -16t-95.5 19.5t-77 53.5t-51 80.5t-18.5 99.5t17.5 99.5t48.5 80t73 53t91 19.5q48 0 89 -19t71 -51.5t47 -78t17 -97.5v-22h-383q5 -74 55 -123.5t119 -49.5q38 0 73.5 13.5t60.5 36.5zM282 433q-60 0 -103 -43t-53 -110h309
q-8 66 -50.5 109.5t-102.5 43.5z" />
    <glyph glyph-name="f" unicode="f" horiz-adv-x="370" 
d="M28 488h109v107q0 72 38 111t108 39q20 0 36.5 -2.5t29.5 -6.5v-66q-16 4 -29.5 6.5t-29.5 2.5q-42 0 -61 -21t-19 -64v-106h139v-60h-139v-428h-73v428h-109v60z" />
    <glyph glyph-name="g" unicode="g" horiz-adv-x="582" 
d="M278 -6q-47 0 -88.5 19.5t-71.5 53t-47.5 79.5t-17.5 98t17.5 98t48.5 79.5t73 53t90 19.5q46 0 85 -17.5t68 -51.5v63h72v-513q0 -90 -53.5 -139t-152.5 -49q-49 0 -98.5 13.5t-91.5 37.5l31 56q45 -23 82 -34t74 -11q66 0 101 32t35 93v92q-28 -35 -68 -53.5t-88 -18.5
zM125 244q0 -80 49 -133.5t122 -53.5q43 0 79 17.5t59 48.5v241q-24 31 -60.5 48.5t-77.5 17.5q-73 0 -122 -53t-49 -133z" />
    <glyph glyph-name="h" unicode="h" 
d="M75 0v715l73 15v-321q28 43 67 65t88 22q78 0 127.5 -50t49.5 -130v-316h-73v295q0 64 -35.5 102t-95.5 38q-40 0 -73 -19t-55 -56v-360h-73z" />
    <glyph glyph-name="i" unicode="i" horiz-adv-x="223" 
d="M112 608q-22 0 -37.5 15.5t-15.5 37.5q0 21 15.5 36.5t37.5 15.5q21 0 36.5 -15.5t15.5 -36.5q0 -22 -15 -37.5t-37 -15.5zM148 488v-488h-73v488h73z" />
    <glyph glyph-name="j" unicode="j" horiz-adv-x="223" 
d="M112 608q-22 0 -37.5 15t-15.5 38q0 21 15.5 36.5t37.5 15.5q21 0 36.5 -15.5t15.5 -36.5q0 -23 -15 -38t-37 -15zM25 -213q-12 0 -23.5 2t-21.5 4v63q9 -2 17.5 -3t18.5 -1q31 0 45 15t14 49v572h73v-576q0 -59 -31.5 -92t-91.5 -33z" />
    <glyph glyph-name="k" unicode="k" horiz-adv-x="489" 
d="M75 0v715l73 15v-461l232 219h88l-248 -232l259 -256h-96l-235 233v-233h-73z" />
    <glyph glyph-name="l" unicode="l" horiz-adv-x="223" 
d="M148 730v-730h-73v715z" />
    <glyph glyph-name="m" unicode="m" horiz-adv-x="845" 
d="M75 0v488h73v-76q28 42 64 63t81 21q51 0 90.5 -26t59.5 -69q28 47 69 71t94 24q73 0 119.5 -50.5t46.5 -130.5v-315h-73v297q0 63 -32.5 100.5t-87.5 37.5q-38 0 -69 -19t-53 -58q2 -10 3 -21t1 -22v-315h-73v297q0 63 -33 100.5t-88 37.5q-37 0 -67 -18t-52 -54v-363
h-73z" />
    <glyph glyph-name="n" unicode="n" 
d="M75 0v488h73v-79q28 43 67 65t88 22q78 0 127.5 -50t49.5 -130v-316h-73v295q0 64 -35.5 102t-95.5 38q-40 0 -73 -19t-55 -56v-360h-73z" />
    <glyph glyph-name="o" unicode="o" horiz-adv-x="581" 
d="M53 244q0 54 18 100t49.5 80t75.5 53t94 19q51 0 94.5 -19t75.5 -53t50 -80t18 -100t-18.5 -101t-50 -80.5t-75.5 -53t-94 -19.5t-93.5 19.5t-75 53.5t-50 80.5t-18.5 100.5zM290 55q71 0 118.5 53.5t47.5 134.5t-47.5 135t-118.5 54t-118 -54t-47 -135t47 -134.5
t118 -53.5z" />
    <glyph glyph-name="p" unicode="p" horiz-adv-x="583" 
d="M75 -209v697h72v-70q28 37 68.5 56.5t89.5 19.5q47 0 88.5 -19.5t71.5 -53t47.5 -79.5t17.5 -98q0 -53 -17.5 -99t-48.5 -79.5t-73 -53t-90 -19.5q-46 0 -85.5 17.5t-67.5 50.5v-270h-73zM287 430q-43 0 -79.5 -17.5t-59.5 -49.5v-239q24 -32 60.5 -50t78.5 -18
q73 0 122 53.5t49 133.5t-49 133.5t-122 53.5z" />
    <glyph glyph-name="q" unicode="q" horiz-adv-x="582" 
d="M278 -7q-47 0 -88.5 19.5t-71.5 53t-47.5 79.5t-17.5 98q0 53 17.5 99t48.5 79.5t73 53t90 19.5q45 0 84 -17.5t68 -50.5v62h73v-697h-73v274q-28 -35 -68 -53.5t-88 -18.5zM125 244q0 -80 49 -133.5t122 -53.5q43 0 79 17t59 48v242q-24 31 -60.5 48.5t-77.5 17.5
q-73 0 -122 -53t-49 -133z" />
    <glyph glyph-name="r" unicode="r" horiz-adv-x="352" 
d="M75 0v488h73v-99q19 51 54.5 79.5t81.5 28.5q13 0 24 -1.5t22 -5.5v-66q-12 4 -25.5 6.5t-25.5 2.5q-45 0 -78.5 -26t-52.5 -73v-334h-73z" />
    <glyph glyph-name="s" unicode="s" horiz-adv-x="452" 
d="M28 63l39 48q43 -32 80.5 -46.5t76.5 -14.5q53 0 88 25t35 63q0 30 -21 47t-67 26l-80 14q-71 13 -104.5 44t-33.5 84q0 63 49.5 103t126.5 40q50 0 95 -15t91 -46l-36 -51q-38 27 -76 39.5t-77 12.5q-48 0 -77 -21t-29 -57q0 -30 18.5 -46t65.5 -24l82 -15
q73 -13 107.5 -45t34.5 -86q0 -63 -54.5 -107t-135.5 -44q-60 0 -111 18.5t-87 53.5z" />
    <glyph glyph-name="t" unicode="t" horiz-adv-x="378" 
d="M133 110v318h-101v60h101v134l73 17v-151h140v-60h-140v-299q0 -39 16.5 -56t54.5 -17q19 0 34 3t35 10v-65q-20 -7 -42 -10t-43 -3q-63 0 -95.5 30.5t-32.5 88.5z" />
    <glyph glyph-name="u" unicode="u" 
d="M146 488v-294q0 -65 35 -103t95 -38q40 0 73 19t55 55v361h73v-488h-73v79q-28 -43 -67 -65t-88 -22q-78 0 -127.5 50.5t-49.5 130.5v315h74z" />
    <glyph glyph-name="v" unicode="v" horiz-adv-x="501" 
d="M215 0l-200 488h79l158 -397l156 397h78l-201 -488h-70z" />
    <glyph glyph-name="w" unicode="w" horiz-adv-x="698" 
d="M234 0h-72l-134 488h71l102 -390l117 390h65l117 -390l101 390h69l-133 -488h-71l-116 394z" />
    <glyph glyph-name="x" unicode="x" horiz-adv-x="487" 
d="M13 0l186 251l-177 237h87l135 -185l133 185h83l-175 -235l189 -253h-87l-146 199l-145 -199h-83z" />
    <glyph glyph-name="y" unicode="y" horiz-adv-x="498" 
d="M171 -78l32 79l-188 487h81l148 -401l157 401h81l-242 -588q-23 -59 -54.5 -83.5t-85.5 -24.5q-10 0 -22 1.5t-25 5.5v65q15 -3 23.5 -3.5t16.5 -0.5q28 0 46.5 14.5t31.5 47.5z" />
    <glyph glyph-name="z" unicode="z" horiz-adv-x="459" 
d="M41 0v58l281 364l-278 -1v67h367v-57l-282 -366l286 1v-66h-374z" />
    <glyph glyph-name="aacute" unicode="&#xe1;" horiz-adv-x="526" 
d="M49 0zM226 -9q-78 0 -127.5 41.5t-49.5 107.5q0 65 50.5 105t132.5 40q42 0 79.5 -9.5t69.5 -28.5v67q0 60 -32 90.5t-94 30.5q-34 0 -69.5 -10t-78.5 -32l-27 56q50 24 95 35.5t89 11.5q90 0 139.5 -44.5t49.5 -127.5v-324h-72v57q-32 -33 -71 -49.5t-84 -16.5zM119 142
q0 -43 34 -69t88 -26q41 0 75.5 14t64.5 42v94q-31 18 -64 26.5t-74 8.5q-56 0 -90 -25t-34 -65zM319 706h99l-144 -122h-67z" />
    <glyph glyph-name="abreve" unicode="&#x103;" horiz-adv-x="526" 
d="M49 0zM226 -9q-78 0 -127.5 41.5t-49.5 107.5q0 65 50.5 105t132.5 40q42 0 79.5 -9.5t69.5 -28.5v67q0 60 -32 90.5t-94 30.5q-34 0 -69.5 -10t-78.5 -32l-27 56q50 24 95 35.5t89 11.5q90 0 139.5 -44.5t49.5 -127.5v-324h-72v57q-32 -33 -71 -49.5t-84 -16.5zM119 142
q0 -43 34 -69t88 -26q41 0 75.5 14t64.5 42v94q-31 18 -64 26.5t-74 8.5q-56 0 -90 -25t-34 -65zM255 625q41 0 68.5 24t38.5 68l50 -12q-13 -59 -55 -92.5t-102 -33.5q-61 0 -103 33.5t-56 92.5l51 12q11 -45 38 -68.5t70 -23.5z" />
    <glyph glyph-name="acircumflex" unicode="&#xe2;" horiz-adv-x="526" 
d="M49 0zM226 -9q-78 0 -127.5 41.5t-49.5 107.5q0 65 50.5 105t132.5 40q42 0 79.5 -9.5t69.5 -28.5v67q0 60 -32 90.5t-94 30.5q-34 0 -69.5 -10t-78.5 -32l-27 56q50 24 95 35.5t89 11.5q90 0 139.5 -44.5t49.5 -127.5v-324h-72v57q-32 -33 -71 -49.5t-84 -16.5zM119 142
q0 -43 34 -69t88 -26q41 0 75.5 14t64.5 42v94q-31 18 -64 26.5t-74 8.5q-56 0 -90 -25t-34 -65zM348 579l-94 88l-93 -88h-59l114 127h78l114 -127h-60z" />
    <glyph glyph-name="adieresis" unicode="&#xe4;" horiz-adv-x="526" 
d="M49 0zM226 -9q-78 0 -127.5 41.5t-49.5 107.5q0 65 50.5 105t132.5 40q42 0 79.5 -9.5t69.5 -28.5v67q0 60 -32 90.5t-94 30.5q-34 0 -69.5 -10t-78.5 -32l-27 56q50 24 95 35.5t89 11.5q90 0 139.5 -44.5t49.5 -127.5v-324h-72v57q-32 -33 -71 -49.5t-84 -16.5zM119 142
q0 -43 34 -69t88 -26q41 0 75.5 14t64.5 42v94q-31 18 -64 26.5t-74 8.5q-56 0 -90 -25t-34 -65zM165 601q-21 0 -35.5 14.5t-14.5 36.5t14.5 36.5t35.5 14.5q20 0 35 -14.5t15 -36.5t-15 -36.5t-35 -14.5zM344 601q-21 0 -35.5 14.5t-14.5 36.5t14.5 36.5t35.5 14.5
q20 0 35 -14.5t15 -36.5t-15 -36.5t-35 -14.5z" />
    <glyph glyph-name="ae" unicode="&#xe6;" horiz-adv-x="886" 
d="M228 -9q-79 0 -128.5 42t-49.5 108q0 64 50 104t132 40q42 0 79.5 -9.5t69.5 -27.5v66q0 60 -32 90.5t-94 30.5q-34 0 -69.5 -10t-78.5 -32l-27 56q50 24 95 35.5t89 11.5q63 0 107 -23.5t63 -68.5q31 43 77.5 67.5t100.5 24.5q48 0 89 -19t71 -51.5t47 -78t17 -97.5v-22
h-383q5 -74 55 -123.5t119 -49.5q37 0 73 13.5t60 36.5l46 -49q-42 -33 -87 -49t-96 -16q-60 0 -110.5 26.5t-83.5 72.5q-39 -49 -89.5 -74t-111.5 -25zM611 433q-61 0 -103.5 -43t-52.5 -110h309q-8 66 -51 109.5t-102 43.5zM119 142q0 -43 34 -69t88 -26q50 0 91 22t72 65
q-6 14 -11 29t-8 31q-31 20 -65.5 29.5t-76.5 9.5q-56 0 -90 -25t-34 -66z" />
    <glyph glyph-name="agrave" unicode="&#xe0;" horiz-adv-x="526" 
d="M49 0zM226 -9q-78 0 -127.5 41.5t-49.5 107.5q0 65 50.5 105t132.5 40q42 0 79.5 -9.5t69.5 -28.5v67q0 60 -32 90.5t-94 30.5q-34 0 -69.5 -10t-78.5 -32l-27 56q50 24 95 35.5t89 11.5q90 0 139.5 -44.5t49.5 -127.5v-324h-72v57q-32 -33 -71 -49.5t-84 -16.5zM119 142
q0 -43 34 -69t88 -26q41 0 75.5 14t64.5 42v94q-31 18 -64 26.5t-74 8.5q-56 0 -90 -25t-34 -65zM195 706l112 -122h-71l-144 122h103z" />
    <glyph glyph-name="amacron" unicode="&#x101;" horiz-adv-x="526" 
d="M49 0zM226 -9q-78 0 -127.5 41.5t-49.5 107.5q0 65 50.5 105t132.5 40q42 0 79.5 -9.5t69.5 -28.5v67q0 60 -32 90.5t-94 30.5q-34 0 -69.5 -10t-78.5 -32l-27 56q50 24 95 35.5t89 11.5q90 0 139.5 -44.5t49.5 -127.5v-324h-72v57q-32 -33 -71 -49.5t-84 -16.5zM119 142
q0 -43 34 -69t88 -26q41 0 75.5 14t64.5 42v94q-31 18 -64 26.5t-74 8.5q-56 0 -90 -25t-34 -65zM395 663v-52h-273v52h273z" />
    <glyph glyph-name="aogonek" unicode="&#x105;" horiz-adv-x="526" 
d="M226 -9q-78 0 -127.5 41.5t-49.5 107.5q0 65 50.5 105t132.5 40q42 0 79.5 -9.5t69.5 -28.5v67q0 60 -32 90.5t-94 30.5q-34 0 -69.5 -10t-78.5 -32l-27 56q50 24 95 35.5t89 11.5q90 0 139.5 -44.5t49.5 -127.5v-324h-1q-54 -35 -79 -66t-25 -62q0 -27 18 -42t49 -15
q13 0 26 3t22 9l14 -39q-14 -9 -33.5 -14t-39.5 -5q-48 0 -77 25t-29 66q0 37 23.5 70t75.5 70h-16v57q-32 -33 -71 -49.5t-84 -16.5zM119 142q0 -43 34 -69t88 -26q41 0 75.5 14t64.5 42v94q-31 18 -64 26.5t-74 8.5q-56 0 -90 -25t-34 -65z" />
    <glyph glyph-name="aring" unicode="&#xe5;" horiz-adv-x="526" 
d="M49 0zM226 -9q-78 0 -127.5 41.5t-49.5 107.5q0 65 50.5 105t132.5 40q42 0 79.5 -9.5t69.5 -28.5v67q0 60 -32 90.5t-94 30.5q-34 0 -69.5 -10t-78.5 -32l-27 56q50 24 95 35.5t89 11.5q90 0 139.5 -44.5t49.5 -127.5v-324h-72v57q-32 -33 -71 -49.5t-84 -16.5zM119 142
q0 -43 34 -69t88 -26q41 0 75.5 14t64.5 42v94q-31 18 -64 26.5t-74 8.5q-56 0 -90 -25t-34 -65zM255 572q-47 0 -79.5 32.5t-32.5 79.5q0 46 32.5 78t79.5 32q46 0 79 -32t33 -78q0 -47 -33 -79.5t-79 -32.5zM255 612q29 0 49 20.5t20 51.5q0 29 -20.5 49t-48.5 20
q-30 0 -50 -20t-20 -49q0 -31 20 -51.5t50 -20.5z" />
    <glyph glyph-name="atilde" unicode="&#xe3;" horiz-adv-x="526" 
d="M49 0zM226 -9q-78 0 -127.5 41.5t-49.5 107.5q0 65 50.5 105t132.5 40q42 0 79.5 -9.5t69.5 -28.5v67q0 60 -32 90.5t-94 30.5q-34 0 -69.5 -10t-78.5 -32l-27 56q50 24 95 35.5t89 11.5q90 0 139.5 -44.5t49.5 -127.5v-324h-72v57q-32 -33 -71 -49.5t-84 -16.5zM119 142
q0 -43 34 -69t88 -26q41 0 75.5 14t64.5 42v94q-31 18 -64 26.5t-74 8.5q-56 0 -90 -25t-34 -65zM136 580l-51 10q13 51 38.5 77.5t61.5 26.5q22 0 41.5 -9.5t37.5 -20.5t34.5 -20.5t31.5 -9.5q16 0 26 14t20 50l51 -10q-13 -51 -37.5 -77.5t-58.5 -26.5q-21 0 -40.5 9.5
t-37 20.5t-34 20.5t-32.5 9.5q-19 0 -30.5 -14.5t-20.5 -49.5z" />
    <glyph glyph-name="cacute" unicode="&#x107;" horiz-adv-x="509" 
d="M53 0zM298 57q40 0 75.5 15t60.5 43l45 -45q-35 -37 -83.5 -58t-101.5 -21q-50 0 -94.5 19.5t-76.5 53.5t-51 80.5t-19 99.5t18.5 99t51 80t76.5 53.5t95 19.5q54 0 103 -20t85 -56l-47 -51q-26 28 -63 44.5t-75 16.5q-36 0 -67.5 -14.5t-54 -39.5t-36 -59t-13.5 -73
q0 -79 50 -133t122 -54zM352 706h99l-144 -122h-67z" />
    <glyph glyph-name="ccaron" unicode="&#x10d;" horiz-adv-x="509" 
d="M53 0zM298 57q40 0 75.5 15t60.5 43l45 -45q-35 -37 -83.5 -58t-101.5 -21q-50 0 -94.5 19.5t-76.5 53.5t-51 80.5t-19 99.5t18.5 99t51 80t76.5 53.5t95 19.5q54 0 103 -20t85 -56l-47 -51q-26 28 -63 44.5t-75 16.5q-36 0 -67.5 -14.5t-54 -39.5t-36 -59t-13.5 -73
q0 -79 50 -133t122 -54zM197 710l92 -88l92 88h61l-114 -127h-78l-114 127h61z" />
    <glyph glyph-name="ccedilla" unicode="&#xe7;" horiz-adv-x="509" 
d="M298 57q40 0 75.5 15t60.5 43l45 -45q-32 -34 -76 -54.5t-93 -24.5l-13 -57q44 -2 70.5 -23.5t26.5 -56.5q0 -40 -31 -66.5t-80 -26.5q-34 0 -62 9t-48 27l28 32q17 -14 37 -21.5t42 -7.5q31 0 48 14t17 38q0 23 -18.5 36t-52.5 13h-29l23 91q-46 5 -85.5 26.5t-68 55
t-45 77t-16.5 93.5q0 53 18.5 99t51 80t76.5 53.5t95 19.5q54 0 103 -20t85 -56l-47 -51q-26 28 -63 44.5t-75 16.5q-36 0 -67.5 -14.5t-54 -39.5t-36 -59t-13.5 -73q0 -79 50 -133t122 -54z" />
    <glyph glyph-name="ccircumflex" unicode="&#x109;" horiz-adv-x="509" 
d="M53 0zM298 57q40 0 75.5 15t60.5 43l45 -45q-35 -37 -83.5 -58t-101.5 -21q-50 0 -94.5 19.5t-76.5 53.5t-51 80.5t-19 99.5t18.5 99t51 80t76.5 53.5t95 19.5q54 0 103 -20t85 -56l-47 -51q-26 28 -63 44.5t-75 16.5q-36 0 -67.5 -14.5t-54 -39.5t-36 -59t-13.5 -73
q0 -79 50 -133t122 -54zM382 579l-94 88l-93 -88h-59l114 127h78l114 -127h-60z" />
    <glyph glyph-name="cdotaccent" unicode="&#x10b;" horiz-adv-x="509" 
d="M53 0zM298 57q40 0 75.5 15t60.5 43l45 -45q-35 -37 -83.5 -58t-101.5 -21q-50 0 -94.5 19.5t-76.5 53.5t-51 80.5t-19 99.5t18.5 99t51 80t76.5 53.5t95 19.5q54 0 103 -20t85 -56l-47 -51q-26 28 -63 44.5t-75 16.5q-36 0 -67.5 -14.5t-54 -39.5t-36 -59t-13.5 -73
q0 -79 50 -133t122 -54zM289 601q-21 0 -35.5 14.5t-14.5 36.5t14.5 36.5t35.5 14.5t35.5 -14.5t14.5 -36.5t-14.5 -36.5t-35.5 -14.5z" />
    <glyph glyph-name="dcaron" unicode="&#x10f;" horiz-adv-x="660" 
d="M56 0zM437 0v65q-28 -35 -68 -53.5t-88 -18.5q-47 0 -88.5 19.5t-71.5 53t-47.5 79.5t-17.5 98q0 53 17.5 99t48.5 79.5t73 53t90 19.5q45 0 84 -17.5t68 -50.5v289l73 15v-730h-73zM128 244q0 -80 49 -133.5t122 -53.5q43 0 79 17t59 48v242q-24 31 -60.5 48.5
t-77.5 17.5q-73 0 -122 -53t-49 -133zM610 714h76l-25 -210h-56z" />
    <glyph glyph-name="dcroat" unicode="&#x111;" horiz-adv-x="588" 
d="M434 0v65q-28 -35 -68 -53.5t-88 -18.5q-47 0 -88.5 19.5t-71.5 53t-47.5 79.5t-17.5 98q0 53 17.5 99t48.5 79.5t73 53t90 19.5q45 0 84 -17.5t68 -50.5v147h-146v50h146v92l73 15v-107h61v-50h-61v-573h-73zM125 244q0 -80 49 -133.5t122 -53.5q43 0 79 17t59 48v242
q-24 31 -60.5 48.5t-77.5 17.5q-73 0 -122 -53t-49 -133z" />
    <glyph glyph-name="dotlessi" unicode="&#x131;" horiz-adv-x="223" 
d="M148 488v-488h-73v488h73z" />
    <glyph glyph-name="uni0237" unicode="&#x237;" horiz-adv-x="223" 
d="M-20 -207v63q9 -2 17.5 -3t18.5 -1q31 0 45 15t14 49v572h73v-576q0 -59 -32 -92t-91 -33q-12 0 -23.5 2t-21.5 4z" />
    <glyph glyph-name="eacute" unicode="&#xe9;" horiz-adv-x="557" 
d="M53 0zM478 56q-42 -33 -87 -49t-96 -16t-95.5 19.5t-77 53.5t-51 80.5t-18.5 99.5t17.5 99.5t48.5 80t73 53t91 19.5q48 0 89 -19t71 -51.5t47 -78t17 -97.5v-22h-383q5 -74 55 -123.5t119 -49.5q38 0 73.5 13.5t60.5 36.5zM282 433q-60 0 -103 -43t-53 -110h309
q-8 66 -50.5 109.5t-102.5 43.5zM346 706h99l-144 -122h-67z" />
    <glyph glyph-name="ebreve" unicode="&#x115;" horiz-adv-x="557" 
d="M53 0zM478 56q-42 -33 -87 -49t-96 -16t-95.5 19.5t-77 53.5t-51 80.5t-18.5 99.5t17.5 99.5t48.5 80t73 53t91 19.5q48 0 89 -19t71 -51.5t47 -78t17 -97.5v-22h-383q5 -74 55 -123.5t119 -49.5q38 0 73.5 13.5t60.5 36.5zM282 433q-60 0 -103 -43t-53 -110h309
q-8 66 -50.5 109.5t-102.5 43.5zM282 625q41 0 68.5 24t38.5 68l50 -12q-13 -59 -55 -92.5t-102 -33.5q-61 0 -103 33.5t-56 92.5l51 12q11 -45 38 -68.5t70 -23.5z" />
    <glyph glyph-name="ecaron" unicode="&#x11b;" horiz-adv-x="557" 
d="M53 0zM478 56q-42 -33 -87 -49t-96 -16t-95.5 19.5t-77 53.5t-51 80.5t-18.5 99.5t17.5 99.5t48.5 80t73 53t91 19.5q48 0 89 -19t71 -51.5t47 -78t17 -97.5v-22h-383q5 -74 55 -123.5t119 -49.5q38 0 73.5 13.5t60.5 36.5zM282 433q-60 0 -103 -43t-53 -110h309
q-8 66 -50.5 109.5t-102.5 43.5zM190 710l92 -88l92 88h61l-114 -127h-78l-114 127h61z" />
    <glyph glyph-name="ecircumflex" unicode="&#xea;" horiz-adv-x="557" 
d="M53 0zM478 56q-42 -33 -87 -49t-96 -16t-95.5 19.5t-77 53.5t-51 80.5t-18.5 99.5t17.5 99.5t48.5 80t73 53t91 19.5q48 0 89 -19t71 -51.5t47 -78t17 -97.5v-22h-383q5 -74 55 -123.5t119 -49.5q38 0 73.5 13.5t60.5 36.5zM282 433q-60 0 -103 -43t-53 -110h309
q-8 66 -50.5 109.5t-102.5 43.5zM375 579l-94 88l-93 -88h-59l114 127h78l114 -127h-60z" />
    <glyph glyph-name="edieresis" unicode="&#xeb;" horiz-adv-x="557" 
d="M53 0zM478 56q-42 -33 -87 -49t-96 -16t-95.5 19.5t-77 53.5t-51 80.5t-18.5 99.5t17.5 99.5t48.5 80t73 53t91 19.5q48 0 89 -19t71 -51.5t47 -78t17 -97.5v-22h-383q5 -74 55 -123.5t119 -49.5q38 0 73.5 13.5t60.5 36.5zM282 433q-60 0 -103 -43t-53 -110h309
q-8 66 -50.5 109.5t-102.5 43.5zM192 601q-21 0 -35.5 14.5t-14.5 36.5t14.5 36.5t35.5 14.5q20 0 35 -14.5t15 -36.5t-15 -36.5t-35 -14.5zM371 601q-21 0 -35.5 14.5t-14.5 36.5t14.5 36.5t35.5 14.5q20 0 35 -14.5t15 -36.5t-15 -36.5t-35 -14.5z" />
    <glyph glyph-name="edotaccent" unicode="&#x117;" horiz-adv-x="557" 
d="M53 0zM478 56q-42 -33 -87 -49t-96 -16t-95.5 19.5t-77 53.5t-51 80.5t-18.5 99.5t17.5 99.5t48.5 80t73 53t91 19.5q48 0 89 -19t71 -51.5t47 -78t17 -97.5v-22h-383q5 -74 55 -123.5t119 -49.5q38 0 73.5 13.5t60.5 36.5zM282 433q-60 0 -103 -43t-53 -110h309
q-8 66 -50.5 109.5t-102.5 43.5zM282 601q-21 0 -35.5 14.5t-14.5 36.5t14.5 36.5t35.5 14.5t35.5 -14.5t14.5 -36.5t-14.5 -36.5t-35.5 -14.5z" />
    <glyph glyph-name="egrave" unicode="&#xe8;" horiz-adv-x="557" 
d="M53 0zM478 56q-42 -33 -87 -49t-96 -16t-95.5 19.5t-77 53.5t-51 80.5t-18.5 99.5t17.5 99.5t48.5 80t73 53t91 19.5q48 0 89 -19t71 -51.5t47 -78t17 -97.5v-22h-383q5 -74 55 -123.5t119 -49.5q38 0 73.5 13.5t60.5 36.5zM282 433q-60 0 -103 -43t-53 -110h309
q-8 66 -50.5 109.5t-102.5 43.5zM222 706l112 -122h-71l-144 122h103z" />
    <glyph glyph-name="emacron" unicode="&#x113;" horiz-adv-x="557" 
d="M53 0zM478 56q-42 -33 -87 -49t-96 -16t-95.5 19.5t-77 53.5t-51 80.5t-18.5 99.5t17.5 99.5t48.5 80t73 53t91 19.5q48 0 89 -19t71 -51.5t47 -78t17 -97.5v-22h-383q5 -74 55 -123.5t119 -49.5q38 0 73.5 13.5t60.5 36.5zM282 433q-60 0 -103 -43t-53 -110h309
q-8 66 -50.5 109.5t-102.5 43.5zM422 663v-52h-273v52h273z" />
    <glyph glyph-name="eng" unicode="&#x14b;" 
d="M75 0v488h73v-79q28 43 67 65t88 22q78 0 127.5 -50t49.5 -130v-403q0 -60 -32 -93t-91 -33q-10 0 -20.5 1.5t-24.5 4.5v64q9 -2 17.5 -3t18.5 -1q31 0 45 15t14 49v378q0 64 -35.5 102t-95.5 38q-40 0 -73 -19t-55 -56v-360h-73z" />
    <glyph glyph-name="eogonek" unicode="&#x119;" horiz-adv-x="557" 
d="M478 56q-28 -22 -56.5 -36.5t-59.5 -21.5q-53 -34 -77.5 -64.5t-24.5 -61.5q0 -27 18 -42t49 -15q13 0 26 3t22 9l14 -39q-14 -9 -33.5 -14t-39.5 -5q-48 0 -77 25t-29 66q0 34 20.5 65.5t66.5 65.5h-2q-51 0 -95.5 19.5t-77 53.5t-51 80.5t-18.5 99.5t17.5 99.5t48.5 80
t73 53t91 19.5q48 0 89 -19t71 -51.5t47 -78t17 -97.5v-22h-383q5 -74 55 -123.5t119 -49.5q38 0 73.5 13.5t60.5 36.5zM282 433q-60 0 -103 -43t-53 -110h309q-8 66 -50.5 109.5t-102.5 43.5z" />
    <glyph glyph-name="eth" unicode="&#xf0;" horiz-adv-x="590" 
d="M262 525l-29 42l85 55q-22 16 -48.5 29t-55.5 22l30 52q37 -12 69.5 -28.5t60.5 -38.5l102 67l27 -42l-90 -59q59 -60 90 -145t31 -190q0 -67 -17.5 -122.5t-49.5 -94.5t-77.5 -60.5t-100.5 -21.5q-49 0 -92.5 19.5t-75 52.5t-50 78.5t-18.5 97.5q0 51 17 95t47 75.5
t71 49.5t89 18q63 1 112.5 -30.5t74.5 -82.5q-9 69 -36 126t-69 99zM291 54q35 0 65.5 14t53 38.5t35.5 58t13 71.5t-13 71.5t-35.5 58t-53 38.5t-65.5 14q-71 0 -119 -52.5t-48 -129.5t48.5 -129.5t118.5 -52.5z" />
    <glyph glyph-name="gbreve" unicode="&#x11f;" horiz-adv-x="582" 
d="M53 0zM278 -6q-47 0 -88.5 19.5t-71.5 53t-47.5 79.5t-17.5 98t17.5 98t48.5 79.5t73 53t90 19.5q46 0 85 -17.5t68 -51.5v63h72v-513q0 -90 -53.5 -139t-152.5 -49q-49 0 -98.5 13.5t-91.5 37.5l31 56q45 -23 82 -34t74 -11q66 0 101 32t35 93v92q-28 -35 -68 -53.5
t-88 -18.5zM125 244q0 -80 49 -133.5t122 -53.5q43 0 79 17.5t59 48.5v241q-24 31 -60.5 48.5t-77.5 17.5q-73 0 -122 -53t-49 -133zM294 625q41 0 68.5 24t38.5 68l50 -12q-13 -59 -55 -92.5t-102 -33.5q-61 0 -103 33.5t-56 92.5l51 12q11 -45 38 -68.5t70 -23.5z" />
    <glyph glyph-name="gcircumflex" unicode="&#x11d;" horiz-adv-x="582" 
d="M53 0zM278 -6q-47 0 -88.5 19.5t-71.5 53t-47.5 79.5t-17.5 98t17.5 98t48.5 79.5t73 53t90 19.5q46 0 85 -17.5t68 -51.5v63h72v-513q0 -90 -53.5 -139t-152.5 -49q-49 0 -98.5 13.5t-91.5 37.5l31 56q45 -23 82 -34t74 -11q66 0 101 32t35 93v92q-28 -35 -68 -53.5
t-88 -18.5zM125 244q0 -80 49 -133.5t122 -53.5q43 0 79 17.5t59 48.5v241q-24 31 -60.5 48.5t-77.5 17.5q-73 0 -122 -53t-49 -133zM387 579l-94 88l-93 -88h-59l114 127h78l114 -127h-60z" />
    <glyph glyph-name="uni0123" unicode="&#x123;" horiz-adv-x="581" 
d="M309 610h-73l69 187h53zM278 -6q-47 0 -88.5 19.5t-71.5 53t-47.5 79.5t-17.5 98t17.5 98t48.5 79.5t73 53t90 19.5q46 0 85 -17.5t68 -51.5v63h72v-513q0 -90 -53.5 -139t-152.5 -49q-49 0 -98.5 13.5t-91.5 37.5l31 56q45 -23 82 -34t74 -11q66 0 101 32t35 93v92
q-28 -35 -68 -53.5t-88 -18.5zM125 244q0 -80 49 -133.5t122 -53.5q43 0 79 17.5t59 48.5v241q-24 31 -60.5 48.5t-77.5 17.5q-73 0 -122 -53t-49 -133z" />
    <glyph glyph-name="gdotaccent" unicode="&#x121;" horiz-adv-x="582" 
d="M53 0zM278 -6q-47 0 -88.5 19.5t-71.5 53t-47.5 79.5t-17.5 98t17.5 98t48.5 79.5t73 53t90 19.5q46 0 85 -17.5t68 -51.5v63h72v-513q0 -90 -53.5 -139t-152.5 -49q-49 0 -98.5 13.5t-91.5 37.5l31 56q45 -23 82 -34t74 -11q66 0 101 32t35 93v92q-28 -35 -68 -53.5
t-88 -18.5zM125 244q0 -80 49 -133.5t122 -53.5q43 0 79 17.5t59 48.5v241q-24 31 -60.5 48.5t-77.5 17.5q-73 0 -122 -53t-49 -133zM294 601q-21 0 -35.5 14.5t-14.5 36.5t14.5 36.5t35.5 14.5t35.5 -14.5t14.5 -36.5t-14.5 -36.5t-35.5 -14.5z" />
    <glyph glyph-name="germandbls" unicode="&#xdf;" horiz-adv-x="639" 
d="M345 374q0 -21 13.5 -33t47.5 -24l71 -24q66 -23 97 -59t31 -89q0 -69 -51 -112.5t-132 -43.5q-54 0 -99 16t-83 50l41 48q30 -28 65 -42t75 -14q51 0 83.5 26t32.5 69q0 35 -20 56.5t-69 37.5l-75 25q-53 18 -76.5 42.5t-23.5 61.5q0 45 27.5 70t61 45t61 43.5
t27.5 64.5q0 49 -40 79.5t-101 30.5q-79 0 -121 -49.5t-42 -141.5v-507h-72v506q0 119 62 187.5t172 68.5q96 0 155 -47.5t59 -125.5q0 -51 -27.5 -81t-61 -51t-61 -39t-27.5 -44z" />
    <glyph glyph-name="hbar" unicode="&#x127;" horiz-adv-x="558" 
d="M81 0v573h-62v50h62v92l73 15v-107h145v-50h-145v-164q28 43 67 65t88 22q78 0 127.5 -50t49.5 -130v-316h-73v295q0 64 -35.5 102t-95.5 38q-40 0 -73 -19t-55 -56v-360h-73z" />
    <glyph glyph-name="hcircumflex" unicode="&#x125;" 
d="M202 791l-94 88l-93 -88h-59l114 127h78l114 -127h-60zM75 0v714h73v-305q27 42 66 64.5t89 22.5q78 0 127.5 -50.5t49.5 -129.5v-316h-73v295q0 63 -35.5 101.5t-95.5 38.5q-40 0 -73 -19t-55 -56v-360h-73z" />
    <glyph glyph-name="iacute" unicode="&#xed;" horiz-adv-x="223" 
d="M63 0zM148 488v-488h-73v488h73zM175 706h99l-144 -122h-67z" />
    <glyph glyph-name="ibreve" unicode="&#x12d;" horiz-adv-x="223" 
d="M0 0zM148 488v-488h-73v488h73zM112 625q41 0 68.5 24t38.5 68l50 -12q-13 -59 -55 -92.5t-102 -33.5q-61 0 -103 33.5t-56 92.5l51 12q11 -45 38 -68.5t70 -23.5z" />
    <glyph glyph-name="icircumflex" unicode="&#xee;" horiz-adv-x="223" 
d="M0 0zM148 488v-488h-73v488h73zM205 579l-94 88l-93 -88h-59l114 127h78l114 -127h-60z" />
    <glyph glyph-name="idieresis" unicode="&#xef;" horiz-adv-x="223" 
d="M0 0zM148 488v-488h-73v488h73zM22 601q-21 0 -35.5 14.5t-14.5 36.5t14.5 36.5t35.5 14.5q20 0 35 -14.5t15 -36.5t-15 -36.5t-35 -14.5zM201 601q-21 0 -35.5 14.5t-14.5 36.5t14.5 36.5t35.5 14.5q20 0 35 -14.5t15 -36.5t-15 -36.5t-35 -14.5z" />
    <glyph glyph-name="idotaccent" horiz-adv-x="218" 
d="M59 0zM112 608q-22 0 -37.5 15.5t-15.5 37.5q0 21 15.5 36.5t37.5 15.5q21 0 36.5 -15.5t15.5 -36.5q0 -22 -15 -37.5t-37 -15.5zM148 488v-488h-73v488h73z" />
    <glyph glyph-name="igrave" unicode="&#xec;" horiz-adv-x="223" 
d="M0 0zM148 488v-488h-73v488h73zM52 706l112 -122h-71l-144 122h103z" />
    <glyph glyph-name="ij" unicode="&#x133;" horiz-adv-x="440" 
d="M59 0zM112 608q-22 0 -37.5 15.5t-15.5 37.5q0 21 15.5 36.5t37.5 15.5q21 0 36.5 -15.5t15.5 -36.5q0 -22 -15 -37.5t-37 -15.5zM148 488v-488h-73v488h73zM332 608q-22 0 -37.5 15t-15.5 38q0 21 15.5 36.5t37.5 15.5q21 0 36.5 -15.5t15.5 -36.5q0 -23 -15 -38
t-37 -15zM245 -213q-12 0 -23.5 2t-21.5 4v63q9 -2 17.5 -3t18.5 -1q31 0 45 15t14 49v572h73v-576q0 -59 -31.5 -92t-91.5 -33z" />
    <glyph glyph-name="imacron" unicode="&#x12b;" horiz-adv-x="223" 
d="M0 0zM148 488v-488h-73v488h73zM252 663v-52h-273v52h273z" />
    <glyph glyph-name="iogonek" unicode="&#x12f;" horiz-adv-x="223" 
d="M112 608q-22 0 -37.5 15.5t-15.5 37.5q0 21 15.5 36.5t37.5 15.5q21 0 36.5 -15.5t15.5 -36.5q0 -22 -15 -37.5t-37 -15.5zM148 0q-54 -35 -79 -66t-25 -62q0 -27 18 -42t49 -15q13 0 26 3t22 9l14 -39q-14 -9 -33.5 -14t-39.5 -5q-48 0 -77 25t-29 66q0 37 23.5 70
t75.5 70h-18v488h73v-488z" />
    <glyph glyph-name="itilde" unicode="&#x129;" horiz-adv-x="223" 
d="M0 0zM148 488v-488h-73v488h73zM-7 580l-51 10q13 51 38.5 77.5t61.5 26.5q22 0 41.5 -9.5t37.5 -20.5t34.5 -20.5t31.5 -9.5q16 0 26 14t20 50l51 -10q-13 -51 -37.5 -77.5t-58.5 -26.5q-21 0 -40.5 9.5t-37 20.5t-34 20.5t-32.5 9.5q-19 0 -30.5 -14.5t-20.5 -49.5z
" />
    <glyph glyph-name="jcircumflex" unicode="&#x135;" horiz-adv-x="223" 
d="M0 0zM-20 -207v63q9 -2 17.5 -3t18.5 -1q31 0 45 15t14 49v572h73v-576q0 -59 -32 -92t-91 -33q-12 0 -23.5 2t-21.5 4zM205 579l-94 88l-93 -88h-59l114 127h78l114 -127h-60z" />
    <glyph glyph-name="uni0137" unicode="&#x137;" horiz-adv-x="489" 
d="M75 0zM75 0v715l73 15v-461l232 219h88l-248 -232l259 -256h-96l-235 233v-233h-73zM230 -87h73l-69 -187h-53z" />
    <glyph glyph-name="kgreenlandic" unicode="&#x138;" horiz-adv-x="489" 
d="M75 0v488h73v-219l232 219h88l-248 -232l259 -256h-96l-235 233v-233h-73z" />
    <glyph glyph-name="lacute" unicode="&#x13a;" horiz-adv-x="223" 
d="M175 917h99l-144 -122h-67zM75 0v714h73v-714h-73z" />
    <glyph glyph-name="lcaron" unicode="&#x13e;" horiz-adv-x="305" 
d="M90 0zM163 730v-730h-73v715zM250 714h76l-25 -210h-56z" />
    <glyph glyph-name="uni013C" unicode="&#x13c;" horiz-adv-x="223" 
d="M36 0zM148 730v-730h-73v715zM85 -87h73l-69 -187h-53z" />
    <glyph glyph-name="ldot" unicode="&#x140;" horiz-adv-x="313" 
d="M90 0zM163 730v-730h-73v715zM270 302q-21 0 -35.5 14.5t-14.5 36.5t14.5 36.5t35.5 14.5t35.5 -14.5t14.5 -36.5t-14.5 -36.5t-35.5 -14.5z" />
    <glyph glyph-name="lslash" unicode="&#x142;" horiz-adv-x="281" 
d="M9 304l96 76v335l73 15v-292l94 74v-75l-94 -75v-362h-73v304l-96 -76v76z" />
    <glyph glyph-name="nacute" unicode="&#x144;" 
d="M75 0zM75 0v488h73v-79q28 43 67 65t88 22q78 0 127.5 -50t49.5 -130v-316h-73v295q0 64 -35.5 102t-95.5 38q-40 0 -73 -19t-55 -56v-360h-73zM339 706h99l-144 -122h-67z" />
    <glyph glyph-name="ncaron" unicode="&#x148;" 
d="M75 0zM75 0v488h73v-79q28 43 67 65t88 22q78 0 127.5 -50t49.5 -130v-316h-73v295q0 64 -35.5 102t-95.5 38q-40 0 -73 -19t-55 -56v-360h-73zM183 710l92 -88l92 88h61l-114 -127h-78l-114 127h61z" />
    <glyph glyph-name="uni0146" unicode="&#x146;" 
d="M75 0zM75 0v488h73v-79q28 43 67 65t88 22q78 0 127.5 -50t49.5 -130v-316h-73v295q0 64 -35.5 102t-95.5 38q-40 0 -73 -19t-55 -56v-360h-73zM248 -87h73l-69 -187h-53z" />
    <glyph glyph-name="ntilde" unicode="&#xf1;" 
d="M75 0zM75 0v488h73v-79q28 43 67 65t88 22q78 0 127.5 -50t49.5 -130v-316h-73v295q0 64 -35.5 102t-95.5 38q-40 0 -73 -19t-55 -56v-360h-73zM156 580l-51 10q13 51 38.5 77.5t61.5 26.5q22 0 41.5 -9.5t37.5 -20.5t34.5 -20.5t31.5 -9.5q16 0 26 14t20 50l51 -10
q-13 -51 -37.5 -77.5t-58.5 -26.5q-21 0 -40.5 9.5t-37 20.5t-34 20.5t-32.5 9.5q-19 0 -30.5 -14.5t-20.5 -49.5z" />
    <glyph glyph-name="oacute" unicode="&#xf3;" horiz-adv-x="581" 
d="M53 0zM53 244q0 54 18 100t49.5 80t75.5 53t94 19q51 0 94.5 -19t75.5 -53t50 -80t18 -100t-18.5 -101t-50 -80.5t-75.5 -53t-94 -19.5t-93.5 19.5t-75 53.5t-50 80.5t-18.5 100.5zM290 55q71 0 118.5 53.5t47.5 134.5t-47.5 135t-118.5 54t-118 -54t-47 -135t47 -134.5
t118 -53.5zM354 706h99l-144 -122h-67z" />
    <glyph glyph-name="obreve" unicode="&#x14f;" horiz-adv-x="581" 
d="M53 0zM53 244q0 54 18 100t49.5 80t75.5 53t94 19q51 0 94.5 -19t75.5 -53t50 -80t18 -100t-18.5 -101t-50 -80.5t-75.5 -53t-94 -19.5t-93.5 19.5t-75 53.5t-50 80.5t-18.5 100.5zM290 55q71 0 118.5 53.5t47.5 134.5t-47.5 135t-118.5 54t-118 -54t-47 -135t47 -134.5
t118 -53.5zM290 625q41 0 68.5 24t38.5 68l50 -12q-13 -59 -55 -92.5t-102 -33.5q-61 0 -103 33.5t-56 92.5l51 12q11 -45 38 -68.5t70 -23.5z" />
    <glyph glyph-name="ocircumflex" unicode="&#xf4;" horiz-adv-x="581" 
d="M53 0zM53 244q0 54 18 100t49.5 80t75.5 53t94 19q51 0 94.5 -19t75.5 -53t50 -80t18 -100t-18.5 -101t-50 -80.5t-75.5 -53t-94 -19.5t-93.5 19.5t-75 53.5t-50 80.5t-18.5 100.5zM290 55q71 0 118.5 53.5t47.5 134.5t-47.5 135t-118.5 54t-118 -54t-47 -135t47 -134.5
t118 -53.5zM383 579l-94 88l-93 -88h-59l114 127h78l114 -127h-60z" />
    <glyph glyph-name="odieresis" unicode="&#xf6;" horiz-adv-x="581" 
d="M53 0zM53 244q0 54 18 100t49.5 80t75.5 53t94 19q51 0 94.5 -19t75.5 -53t50 -80t18 -100t-18.5 -101t-50 -80.5t-75.5 -53t-94 -19.5t-93.5 19.5t-75 53.5t-50 80.5t-18.5 100.5zM290 55q71 0 118.5 53.5t47.5 134.5t-47.5 135t-118.5 54t-118 -54t-47 -135t47 -134.5
t118 -53.5zM200 601q-21 0 -35.5 14.5t-14.5 36.5t14.5 36.5t35.5 14.5q20 0 35 -14.5t15 -36.5t-15 -36.5t-35 -14.5zM379 601q-21 0 -35.5 14.5t-14.5 36.5t14.5 36.5t35.5 14.5q20 0 35 -14.5t15 -36.5t-15 -36.5t-35 -14.5z" />
    <glyph glyph-name="oe" unicode="&#x153;" horiz-adv-x="962" 
d="M53 244q0 54 18 100t49.5 80t75.5 53t94 19q66 0 119 -33t83 -87q30 54 82 87t115 33q47 0 88 -19t71 -51.5t47 -78t17 -97.5v-22h-383q5 -74 55 -123.5t119 -49.5q38 0 73.5 13.5t60.5 36.5l46 -49q-42 -33 -87 -49t-96 -16q-66 0 -121 33.5t-86 88.5
q-30 -56 -83.5 -89.5t-119.5 -33.5q-50 0 -93.5 19.5t-75 53.5t-50 80.5t-18.5 100.5zM688 433q-61 0 -104 -43t-53 -110h309q-8 66 -50.5 109.5t-101.5 43.5zM290 55q71 0 118.5 53.5t47.5 134.5t-47.5 135t-118.5 54t-118 -54t-47 -135t47 -134.5t118 -53.5z" />
    <glyph glyph-name="ograve" unicode="&#xf2;" horiz-adv-x="581" 
d="M53 0zM53 244q0 54 18 100t49.5 80t75.5 53t94 19q51 0 94.5 -19t75.5 -53t50 -80t18 -100t-18.5 -101t-50 -80.5t-75.5 -53t-94 -19.5t-93.5 19.5t-75 53.5t-50 80.5t-18.5 100.5zM290 55q71 0 118.5 53.5t47.5 134.5t-47.5 135t-118.5 54t-118 -54t-47 -135t47 -134.5
t118 -53.5zM230 706l112 -122h-71l-144 122h103z" />
    <glyph glyph-name="ohungarumlaut" unicode="&#x151;" horiz-adv-x="581" 
d="M53 0zM53 244q0 54 18 100t49.5 80t75.5 53t94 19q51 0 94.5 -19t75.5 -53t50 -80t18 -100t-18.5 -101t-50 -80.5t-75.5 -53t-94 -19.5t-93.5 19.5t-75 53.5t-50 80.5t-18.5 100.5zM290 55q71 0 118.5 53.5t47.5 134.5t-47.5 135t-118.5 54t-118 -54t-47 -135t47 -134.5
t118 -53.5zM281 706h84l-144 -124h-69zM454 706h85l-147 -124h-67z" />
    <glyph glyph-name="omacron" unicode="&#x14d;" horiz-adv-x="581" 
d="M53 0zM53 244q0 54 18 100t49.5 80t75.5 53t94 19q51 0 94.5 -19t75.5 -53t50 -80t18 -100t-18.5 -101t-50 -80.5t-75.5 -53t-94 -19.5t-93.5 19.5t-75 53.5t-50 80.5t-18.5 100.5zM290 55q71 0 118.5 53.5t47.5 134.5t-47.5 135t-118.5 54t-118 -54t-47 -135t47 -134.5
t118 -53.5zM430 663v-52h-273v52h273z" />
    <glyph glyph-name="oslash" unicode="&#xf8;" horiz-adv-x="581" 
d="M57 -5l60 73q-30 34 -47 79.5t-17 96.5q0 54 18 100t49.5 80t75.5 53t94 19q40 0 75 -11.5t64 -33.5l34 42h61l-60 -73q30 -34 47 -79t17 -97q0 -54 -18.5 -101t-50 -80.5t-75.5 -53t-94 -19.5q-39 0 -74.5 12t-64.5 34l-33 -41h-61zM125 243q0 -35 9.5 -66t26.5 -55
l225 277q-19 16 -43.5 24.5t-52.5 8.5q-71 0 -118 -54t-47 -135zM290 55q71 0 118.5 53.5t47.5 134.5q0 35 -10 66t-27 56l-225 -277q19 -16 43.5 -24.5t52.5 -8.5z" />
    <glyph glyph-name="otilde" unicode="&#xf5;" horiz-adv-x="581" 
d="M53 0zM53 244q0 54 18 100t49.5 80t75.5 53t94 19q51 0 94.5 -19t75.5 -53t50 -80t18 -100t-18.5 -101t-50 -80.5t-75.5 -53t-94 -19.5t-93.5 19.5t-75 53.5t-50 80.5t-18.5 100.5zM290 55q71 0 118.5 53.5t47.5 134.5t-47.5 135t-118.5 54t-118 -54t-47 -135t47 -134.5
t118 -53.5zM171 580l-51 10q13 51 38.5 77.5t61.5 26.5q22 0 41.5 -9.5t37.5 -20.5t34.5 -20.5t31.5 -9.5q16 0 26 14t20 50l51 -10q-13 -51 -37.5 -77.5t-58.5 -26.5q-21 0 -40.5 9.5t-37 20.5t-34 20.5t-32.5 9.5q-19 0 -30.5 -14.5t-20.5 -49.5z" />
    <glyph glyph-name="racute" unicode="&#x155;" horiz-adv-x="352" 
d="M75 0zM75 0v488h73v-99q19 51 54.5 79.5t81.5 28.5q13 0 24 -1.5t22 -5.5v-66q-12 4 -25.5 6.5t-25.5 2.5q-45 0 -78.5 -26t-52.5 -73v-334h-73zM259 706h99l-144 -122h-67z" />
    <glyph glyph-name="rcaron" unicode="&#x159;" horiz-adv-x="352" 
d="M42 0zM75 0v488h73v-99q19 51 54.5 79.5t81.5 28.5q13 0 24 -1.5t22 -5.5v-66q-12 4 -25.5 6.5t-25.5 2.5q-45 0 -78.5 -26t-52.5 -73v-334h-73zM103 710l92 -88l92 88h61l-114 -127h-78l-114 127h61z" />
    <glyph glyph-name="uni0157" unicode="&#x157;" horiz-adv-x="352" 
d="M39 0zM75 0v488h73v-99q19 51 54.5 79.5t81.5 28.5q13 0 24 -1.5t22 -5.5v-66q-12 4 -25.5 6.5t-25.5 2.5q-45 0 -78.5 -26t-52.5 -73v-334h-73zM88 -87h73l-69 -187h-53z" />
    <glyph glyph-name="sacute" unicode="&#x15b;" horiz-adv-x="452" 
d="M28 0zM28 63l39 48q43 -32 80.5 -46.5t76.5 -14.5q53 0 88 25t35 63q0 30 -21 47t-67 26l-80 14q-71 13 -104.5 44t-33.5 84q0 63 49.5 103t126.5 40q50 0 95 -15t91 -46l-36 -51q-38 27 -76 39.5t-77 12.5q-48 0 -77 -21t-29 -57q0 -30 18.5 -46t65.5 -24l82 -15
q73 -13 107.5 -45t34.5 -86q0 -63 -54.5 -107t-135.5 -44q-60 0 -111 18.5t-87 53.5zM286 706h99l-144 -122h-67z" />
    <glyph glyph-name="scaron" unicode="&#x161;" horiz-adv-x="452" 
d="M28 0zM28 63l39 48q43 -32 80.5 -46.5t76.5 -14.5q53 0 88 25t35 63q0 30 -21 47t-67 26l-80 14q-71 13 -104.5 44t-33.5 84q0 63 49.5 103t126.5 40q50 0 95 -15t91 -46l-36 -51q-38 27 -76 39.5t-77 12.5q-48 0 -77 -21t-29 -57q0 -30 18.5 -46t65.5 -24l82 -15
q73 -13 107.5 -45t34.5 -86q0 -63 -54.5 -107t-135.5 -44q-60 0 -111 18.5t-87 53.5zM130 710l92 -88l92 88h61l-114 -127h-78l-114 127h61z" />
    <glyph glyph-name="uni015F" unicode="&#x15f;" horiz-adv-x="452" 
d="M28 63l39 48q43 -32 80.5 -46.5t76.5 -14.5q53 0 88 25t35 63q0 30 -21 47t-67 26l-80 14q-71 13 -104.5 44t-33.5 84q0 63 49.5 103t126.5 40q50 0 95 -15t91 -46l-36 -51q-38 27 -76 39.5t-77 12.5q-48 0 -77 -21t-29 -57q0 -30 18.5 -46t65.5 -24l82 -15
q73 -13 107.5 -45t34.5 -86q0 -60 -49 -102.5t-123 -47.5l-13 -58q44 -2 70.5 -23.5t26.5 -56.5q0 -40 -31 -66.5t-80 -26.5q-34 0 -62 9t-48 27l28 32q17 -14 37 -21.5t42 -7.5q31 0 48 14t17 38q0 23 -18.5 36t-52.5 13h-29l23 91q-52 3 -97 21.5t-77 49.5z" />
    <glyph glyph-name="scircumflex" unicode="&#x15d;" horiz-adv-x="452" 
d="M28 0zM28 63l39 48q43 -32 80.5 -46.5t76.5 -14.5q53 0 88 25t35 63q0 30 -21 47t-67 26l-80 14q-71 13 -104.5 44t-33.5 84q0 63 49.5 103t126.5 40q50 0 95 -15t91 -46l-36 -51q-38 27 -76 39.5t-77 12.5q-48 0 -77 -21t-29 -57q0 -30 18.5 -46t65.5 -24l82 -15
q73 -13 107.5 -45t34.5 -86q0 -63 -54.5 -107t-135.5 -44q-60 0 -111 18.5t-87 53.5zM315 579l-94 88l-93 -88h-59l114 127h78l114 -127h-60z" />
    <glyph glyph-name="uni0219" unicode="&#x219;" horiz-adv-x="452" 
d="M28 0zM28 63l39 48q43 -32 80.5 -46.5t76.5 -14.5q53 0 88 25t35 63q0 30 -21 47t-67 26l-80 14q-71 13 -104.5 44t-33.5 84q0 63 49.5 103t126.5 40q50 0 95 -15t91 -46l-36 -51q-38 27 -76 39.5t-77 12.5q-48 0 -77 -21t-29 -57q0 -30 18.5 -46t65.5 -24l82 -15
q73 -13 107.5 -45t34.5 -86q0 -63 -54.5 -107t-135.5 -44q-60 0 -111 18.5t-87 53.5zM198 -87h73l-69 -187h-53z" />
    <glyph glyph-name="tbar" unicode="&#x167;" horiz-adv-x="378" 
d="M133 110v147h-101v53h101v118h-101v60h101v134l73 17v-151h140v-60h-140v-118h142v-53h-142v-128q0 -39 16.5 -56t54.5 -17q19 0 34 3t35 10v-65q-20 -7 -42 -10t-43 -3q-63 0 -95.5 30.5t-32.5 88.5z" />
    <glyph glyph-name="tcaron" unicode="&#x165;" horiz-adv-x="378" 
d="M298 769l78 15l-25 -196h-58zM133 110v318h-101v60h101v134l73 17v-151h140v-60h-140v-299q0 -39 16.5 -56t54.5 -17q19 0 34 3t35 10v-65q-20 -7 -42 -10t-43 -3q-63 0 -95.5 30.5t-32.5 88.5z" />
    <glyph glyph-name="uni0163" unicode="&#x163;" horiz-adv-x="378" 
d="M133 110v318h-101v60h101v134l73 17v-151h140v-60h-140v-299q0 -39 16.5 -56t54.5 -17q19 0 34 3t35 10v-65q-20 -7 -42 -10t-43 -3h-6l-13 -57q44 -2 70.5 -23.5t26.5 -56.5q0 -40 -31 -66.5t-80 -26.5q-34 0 -62 9t-48 27l28 32q17 -14 37 -21.5t42 -7.5q31 0 48 14
t17 38q0 23 -18.5 36t-52.5 13h-29l24 95q-40 10 -60.5 39t-20.5 75z" />
    <glyph glyph-name="uni021B" unicode="&#x21b;" horiz-adv-x="378" 
d="M32 0zM133 110v318h-101v60h101v134l73 17v-151h140v-60h-140v-299q0 -39 16.5 -56t54.5 -17q19 0 34 3t35 10v-65q-20 -7 -42 -10t-43 -3q-63 0 -95.5 30.5t-32.5 88.5zM209 -87h73l-69 -187h-53z" />
    <glyph glyph-name="thorn" unicode="&#xfe;" horiz-adv-x="583" 
d="M75 -199v914l73 15v-310q28 35 68 54.5t89 19.5q47 0 88.5 -19.5t71.5 -53t47.5 -79.5t17.5 -98q0 -53 -17.5 -99t-48.5 -79.5t-73 -53t-90 -19.5q-46 0 -85.5 17.5t-67.5 50.5v-260h-73zM287 430q-43 0 -79.5 -17.5t-59.5 -49.5v-239q24 -32 60.5 -50t78.5 -18
q73 0 122 53.5t49 133.5t-49 133.5t-122 53.5z" />
    <glyph glyph-name="uacute" unicode="&#xfa;" 
d="M72 0zM146 488v-294q0 -65 35 -103t95 -38q40 0 73 19t55 55v361h73v-488h-73v79q-28 -43 -67 -65t-88 -22q-78 0 -127.5 50.5t-49.5 130.5v315h74zM337 706h99l-144 -122h-67z" />
    <glyph glyph-name="ubreve" unicode="&#x16d;" 
d="M72 0zM146 488v-294q0 -65 35 -103t95 -38q40 0 73 19t55 55v361h73v-488h-73v79q-28 -43 -67 -65t-88 -22q-78 0 -127.5 50.5t-49.5 130.5v315h74zM274 625q41 0 68.5 24t38.5 68l50 -12q-13 -59 -55 -92.5t-102 -33.5q-61 0 -103 33.5t-56 92.5l51 12q11 -45 38 -68.5
t70 -23.5z" />
    <glyph glyph-name="ucircumflex" unicode="&#xfb;" 
d="M72 0zM146 488v-294q0 -65 35 -103t95 -38q40 0 73 19t55 55v361h73v-488h-73v79q-28 -43 -67 -65t-88 -22q-78 0 -127.5 50.5t-49.5 130.5v315h74zM367 579l-94 88l-93 -88h-59l114 127h78l114 -127h-60z" />
    <glyph glyph-name="udieresis" unicode="&#xfc;" 
d="M72 0zM146 488v-294q0 -65 35 -103t95 -38q40 0 73 19t55 55v361h73v-488h-73v79q-28 -43 -67 -65t-88 -22q-78 0 -127.5 50.5t-49.5 130.5v315h74zM184 601q-21 0 -35.5 14.5t-14.5 36.5t14.5 36.5t35.5 14.5q20 0 35 -14.5t15 -36.5t-15 -36.5t-35 -14.5zM363 601
q-21 0 -35.5 14.5t-14.5 36.5t14.5 36.5t35.5 14.5q20 0 35 -14.5t15 -36.5t-15 -36.5t-35 -14.5z" />
    <glyph glyph-name="ugrave" unicode="&#xf9;" 
d="M72 0zM146 488v-294q0 -65 35 -103t95 -38q40 0 73 19t55 55v361h73v-488h-73v79q-28 -43 -67 -65t-88 -22q-78 0 -127.5 50.5t-49.5 130.5v315h74zM213 706l112 -122h-71l-144 122h103z" />
    <glyph glyph-name="uhungarumlaut" unicode="&#x171;" 
d="M72 0zM146 488v-294q0 -65 35 -103t95 -38q40 0 73 19t55 55v361h73v-488h-73v79q-28 -43 -67 -65t-88 -22q-78 0 -127.5 50.5t-49.5 130.5v315h74zM264 706h84l-144 -124h-69zM437 706h85l-147 -124h-67z" />
    <glyph glyph-name="umacron" unicode="&#x16b;" 
d="M72 0zM146 488v-294q0 -65 35 -103t95 -38q40 0 73 19t55 55v361h73v-488h-73v79q-28 -43 -67 -65t-88 -22q-78 0 -127.5 50.5t-49.5 130.5v315h74zM414 663v-52h-273v52h273z" />
    <glyph glyph-name="uogonek" unicode="&#x173;" 
d="M477 0q-54 -35 -79 -66t-25 -62q0 -27 18 -42t49 -15q13 0 26 3t22 9l14 -39q-14 -9 -33.5 -14t-39.5 -5q-48 0 -77 25t-29 66q0 37 23.5 70t75.5 70h-18v79q-28 -43 -67 -65t-88 -22q-78 0 -127.5 50.5t-49.5 130.5v315h74v-294q0 -65 35 -103t95 -38q40 0 73 19t55 55
v361h73v-488z" />
    <glyph glyph-name="uring" unicode="&#x16f;" 
d="M72 0zM146 488v-294q0 -65 35 -103t95 -38q40 0 73 19t55 55v361h73v-488h-73v79q-28 -43 -67 -65t-88 -22q-78 0 -127.5 50.5t-49.5 130.5v315h74zM274 572q-47 0 -79.5 32.5t-32.5 79.5q0 46 32.5 78t79.5 32q46 0 79 -32t33 -78q0 -47 -33 -79.5t-79 -32.5zM274 612
q29 0 49 20.5t20 51.5q0 29 -20.5 49t-48.5 20q-30 0 -50 -20t-20 -49q0 -31 20 -51.5t50 -20.5z" />
    <glyph glyph-name="utilde" unicode="&#x169;" 
d="M72 0zM146 488v-294q0 -65 35 -103t95 -38q40 0 73 19t55 55v361h73v-488h-73v79q-28 -43 -67 -65t-88 -22q-78 0 -127.5 50.5t-49.5 130.5v315h74zM154 580l-51 10q13 51 38.5 77.5t61.5 26.5q22 0 41.5 -9.5t37.5 -20.5t34.5 -20.5t31.5 -9.5q16 0 26 14t20 50l51 -10
q-13 -51 -37.5 -77.5t-58.5 -26.5q-21 0 -40.5 9.5t-37 20.5t-34 20.5t-32.5 9.5q-19 0 -30.5 -14.5t-20.5 -49.5z" />
    <glyph glyph-name="wacute" unicode="&#x1e83;" horiz-adv-x="698" 
d="M28 0zM234 0h-72l-134 488h71l102 -390l117 390h65l117 -390l101 390h69l-133 -488h-71l-116 394zM413 706h99l-144 -122h-67z" />
    <glyph glyph-name="wdieresis" unicode="&#x1e85;" horiz-adv-x="698" 
d="M28 0zM234 0h-72l-134 488h71l102 -390l117 390h65l117 -390l101 390h69l-133 -488h-71l-116 394zM259 601q-21 0 -35.5 14.5t-14.5 36.5t14.5 36.5t35.5 14.5q20 0 35 -14.5t15 -36.5t-15 -36.5t-35 -14.5zM438 601q-21 0 -35.5 14.5t-14.5 36.5t14.5 36.5t35.5 14.5
q20 0 35 -14.5t15 -36.5t-15 -36.5t-35 -14.5z" />
    <glyph glyph-name="wgrave" unicode="&#x1e81;" horiz-adv-x="698" 
d="M28 0zM234 0h-72l-134 488h71l102 -390l117 390h65l117 -390l101 390h69l-133 -488h-71l-116 394zM289 706l112 -122h-71l-144 122h103z" />
    <glyph glyph-name="wcircumflex" unicode="&#x175;" horiz-adv-x="698" 
d="M28 0zM234 0h-72l-134 488h71l102 -390l117 390h65l117 -390l101 390h69l-133 -488h-71l-116 394zM442 579l-94 88l-93 -88h-59l114 127h78l114 -127h-60z" />
    <glyph glyph-name="yacute" unicode="&#xfd;" horiz-adv-x="498" 
d="M15 0zM171 -78l32 79l-188 487h81l148 -401l157 401h81l-242 -588q-23 -59 -54.5 -83.5t-85.5 -24.5q-10 0 -22 1.5t-25 5.5v65q15 -3 23.5 -3.5t16.5 -0.5q28 0 46.5 14.5t31.5 47.5zM309 706h99l-144 -122h-67z" />
    <glyph glyph-name="ycircumflex" unicode="&#x177;" horiz-adv-x="498" 
d="M15 0zM171 -78l32 79l-188 487h81l148 -401l157 401h81l-242 -588q-23 -59 -54.5 -83.5t-85.5 -24.5q-10 0 -22 1.5t-25 5.5v65q15 -3 23.5 -3.5t16.5 -0.5q28 0 46.5 14.5t31.5 47.5zM338 579l-94 88l-93 -88h-59l114 127h78l114 -127h-60z" />
    <glyph glyph-name="ydieresis" unicode="&#xff;" horiz-adv-x="498" 
d="M15 0zM171 -78l32 79l-188 487h81l148 -401l157 401h81l-242 -588q-23 -59 -54.5 -83.5t-85.5 -24.5q-10 0 -22 1.5t-25 5.5v65q15 -3 23.5 -3.5t16.5 -0.5q28 0 46.5 14.5t31.5 47.5zM155 601q-21 0 -35.5 14.5t-14.5 36.5t14.5 36.5t35.5 14.5q20 0 35 -14.5t15 -36.5
t-15 -36.5t-35 -14.5zM334 601q-21 0 -35.5 14.5t-14.5 36.5t14.5 36.5t35.5 14.5q20 0 35 -14.5t15 -36.5t-15 -36.5t-35 -14.5z" />
    <glyph glyph-name="ygrave" unicode="&#x1ef3;" horiz-adv-x="498" 
d="M15 0zM171 -78l32 79l-188 487h81l148 -401l157 401h81l-242 -588q-23 -59 -54.5 -83.5t-85.5 -24.5q-10 0 -22 1.5t-25 5.5v65q15 -3 23.5 -3.5t16.5 -0.5q28 0 46.5 14.5t31.5 47.5zM185 706l112 -122h-71l-144 122h103z" />
    <glyph glyph-name="zacute" unicode="&#x17a;" horiz-adv-x="459" 
d="M41 0zM41 0v58l281 364l-278 -1v67h367v-57l-282 -366l286 1v-66h-374zM289 706h99l-144 -122h-67z" />
    <glyph glyph-name="zcaron" unicode="&#x17e;" horiz-adv-x="459" 
d="M41 0zM41 0v58l281 364l-278 -1v67h367v-57l-282 -366l286 1v-66h-374zM133 710l92 -88l92 88h61l-114 -127h-78l-114 127h61z" />
    <glyph glyph-name="zdotaccent" unicode="&#x17c;" horiz-adv-x="459" 
d="M41 0zM41 0v58l281 364l-278 -1v67h367v-57l-282 -366l286 1v-66h-374zM225 601q-21 0 -35.5 14.5t-14.5 36.5t14.5 36.5t35.5 14.5t35.5 -14.5t14.5 -36.5t-14.5 -36.5t-35.5 -14.5z" />
    <glyph glyph-name="ordfeminine" unicode="&#xaa;" horiz-adv-x="408" 
d="M173 315q-62 0 -101 32t-39 82q0 53 41.5 84t111.5 31q28 0 55 -6.5t52 -19.5v49q0 43 -24.5 65t-72.5 22q-27 0 -55.5 -8t-62.5 -24l-23 47q42 20 78 29t70 9q72 0 111.5 -35t39.5 -98v-252h-61v40q-26 -24 -55.5 -35.5t-64.5 -11.5zM93 431q0 -31 25.5 -49.5
t66.5 -18.5q32 0 59 10t49 29v71q-22 14 -48 20.5t-57 6.5q-43 0 -69 -19t-26 -50z" />
    <glyph glyph-name="ordmasculine" unicode="&#xba;" horiz-adv-x="464" 
d="M36 510q0 41 15 77.5t41.5 63t62 41.5t75.5 15q41 0 76.5 -15t61.5 -41.5t41 -63t15 -77.5t-15 -77t-41 -62.5t-61.5 -41.5t-76.5 -15q-40 0 -75.5 15t-62 41.5t-41.5 62.5t-15 77zM364 510q0 59 -39 100.5t-95 41.5q-55 0 -93.5 -41t-38.5 -101q0 -59 38.5 -100
t93.5 -41q56 0 95 41.5t39 99.5z" />
    <glyph glyph-name="a.school" horiz-adv-x="582" 
d="M434 0v65q-28 -35 -68 -53.5t-88 -18.5q-47 0 -88.5 19.5t-71.5 53t-47.5 79.5t-17.5 98q0 53 17.5 99t48.5 79.5t73 53t90 19.5q45 0 84 -17.5t68 -50.5v62h73v-488h-73zM125 244q0 -80 49 -133.5t122 -53.5q43 0 79 17t59 48v242q-24 31 -60.5 48.5t-77.5 17.5
q-73 0 -122 -53t-49 -133z" />
    <glyph glyph-name="aacute.school" horiz-adv-x="582" 
d="M53 0zM434 0v65q-28 -35 -68 -53.5t-88 -18.5q-47 0 -88.5 19.5t-71.5 53t-47.5 79.5t-17.5 98q0 53 17.5 99t48.5 79.5t73 53t90 19.5q45 0 84 -17.5t68 -50.5v62h73v-488h-73zM125 244q0 -80 49 -133.5t122 -53.5q43 0 79 17t59 48v242q-24 31 -60.5 48.5t-77.5 17.5
q-73 0 -122 -53t-49 -133zM362 706h99l-144 -122h-67z" />
    <glyph glyph-name="abreve.school" horiz-adv-x="582" 
d="M53 0zM434 0v65q-28 -35 -68 -53.5t-88 -18.5q-47 0 -88.5 19.5t-71.5 53t-47.5 79.5t-17.5 98q0 53 17.5 99t48.5 79.5t73 53t90 19.5q45 0 84 -17.5t68 -50.5v62h73v-488h-73zM125 244q0 -80 49 -133.5t122 -53.5q43 0 79 17t59 48v242q-24 31 -60.5 48.5t-77.5 17.5
q-73 0 -122 -53t-49 -133zM298 625q41 0 68.5 24t38.5 68l50 -12q-13 -59 -55 -92.5t-102 -33.5q-61 0 -103 33.5t-56 92.5l51 12q11 -45 38 -68.5t70 -23.5z" />
    <glyph glyph-name="acircumflex.school" horiz-adv-x="582" 
d="M53 0zM434 0v65q-28 -35 -68 -53.5t-88 -18.5q-47 0 -88.5 19.5t-71.5 53t-47.5 79.5t-17.5 98q0 53 17.5 99t48.5 79.5t73 53t90 19.5q45 0 84 -17.5t68 -50.5v62h73v-488h-73zM125 244q0 -80 49 -133.5t122 -53.5q43 0 79 17t59 48v242q-24 31 -60.5 48.5t-77.5 17.5
q-73 0 -122 -53t-49 -133zM391 579l-94 88l-93 -88h-59l114 127h78l114 -127h-60z" />
    <glyph glyph-name="adieresis.school" horiz-adv-x="582" 
d="M53 0zM434 0v65q-28 -35 -68 -53.5t-88 -18.5q-47 0 -88.5 19.5t-71.5 53t-47.5 79.5t-17.5 98q0 53 17.5 99t48.5 79.5t73 53t90 19.5q45 0 84 -17.5t68 -50.5v62h73v-488h-73zM125 244q0 -80 49 -133.5t122 -53.5q43 0 79 17t59 48v242q-24 31 -60.5 48.5t-77.5 17.5
q-73 0 -122 -53t-49 -133zM208 601q-21 0 -35.5 14.5t-14.5 36.5t14.5 36.5t35.5 14.5q20 0 35 -14.5t15 -36.5t-15 -36.5t-35 -14.5zM387 601q-21 0 -35.5 14.5t-14.5 36.5t14.5 36.5t35.5 14.5q20 0 35 -14.5t15 -36.5t-15 -36.5t-35 -14.5z" />
    <glyph glyph-name="agrave.school" horiz-adv-x="582" 
d="M53 0zM434 0v65q-28 -35 -68 -53.5t-88 -18.5q-47 0 -88.5 19.5t-71.5 53t-47.5 79.5t-17.5 98q0 53 17.5 99t48.5 79.5t73 53t90 19.5q45 0 84 -17.5t68 -50.5v62h73v-488h-73zM125 244q0 -80 49 -133.5t122 -53.5q43 0 79 17t59 48v242q-24 31 -60.5 48.5t-77.5 17.5
q-73 0 -122 -53t-49 -133zM238 706l112 -122h-71l-144 122h103z" />
    <glyph glyph-name="amacron.school" horiz-adv-x="582" 
d="M53 0zM434 0v65q-28 -35 -68 -53.5t-88 -18.5q-47 0 -88.5 19.5t-71.5 53t-47.5 79.5t-17.5 98q0 53 17.5 99t48.5 79.5t73 53t90 19.5q45 0 84 -17.5t68 -50.5v62h73v-488h-73zM125 244q0 -80 49 -133.5t122 -53.5q43 0 79 17t59 48v242q-24 31 -60.5 48.5t-77.5 17.5
q-73 0 -122 -53t-49 -133zM438 663v-52h-273v52h273z" />
    <glyph glyph-name="aogonek.school" horiz-adv-x="582" 
d="M434 0v65q-28 -35 -68 -53.5t-88 -18.5q-47 0 -88.5 19.5t-71.5 53t-47.5 79.5t-17.5 98q0 53 17.5 99t48.5 79.5t73 53t90 19.5q45 0 84 -17.5t68 -50.5v62h73v-488q-54 -35 -79 -66t-25 -62q0 -27 18 -42t49 -15q13 0 26 3t22 9l14 -39q-14 -9 -33.5 -14t-39.5 -5
q-48 0 -77 25t-29 66q0 37 23.5 70t75.5 70h-18zM125 244q0 -80 49 -133.5t122 -53.5q43 0 79 17t59 48v242q-24 31 -60.5 48.5t-77.5 17.5q-73 0 -122 -53t-49 -133z" />
    <glyph glyph-name="aring.school" horiz-adv-x="582" 
d="M53 0zM434 0v65q-28 -35 -68 -53.5t-88 -18.5q-47 0 -88.5 19.5t-71.5 53t-47.5 79.5t-17.5 98q0 53 17.5 99t48.5 79.5t73 53t90 19.5q45 0 84 -17.5t68 -50.5v62h73v-488h-73zM125 244q0 -80 49 -133.5t122 -53.5q43 0 79 17t59 48v242q-24 31 -60.5 48.5t-77.5 17.5
q-73 0 -122 -53t-49 -133zM298 572q-47 0 -79.5 32.5t-32.5 79.5q0 46 32.5 78t79.5 32q46 0 79 -32t33 -78q0 -47 -33 -79.5t-79 -32.5zM298 612q29 0 49 20.5t20 51.5q0 29 -20.5 49t-48.5 20q-30 0 -50 -20t-20 -49q0 -31 20 -51.5t50 -20.5z" />
    <glyph glyph-name="atilde.school" horiz-adv-x="582" 
d="M53 0zM434 0v65q-28 -35 -68 -53.5t-88 -18.5q-47 0 -88.5 19.5t-71.5 53t-47.5 79.5t-17.5 98q0 53 17.5 99t48.5 79.5t73 53t90 19.5q45 0 84 -17.5t68 -50.5v62h73v-488h-73zM125 244q0 -80 49 -133.5t122 -53.5q43 0 79 17t59 48v242q-24 31 -60.5 48.5t-77.5 17.5
q-73 0 -122 -53t-49 -133zM179 580l-51 10q13 51 38.5 77.5t61.5 26.5q22 0 41.5 -9.5t37.5 -20.5t34.5 -20.5t31.5 -9.5q16 0 26 14t20 50l51 -10q-13 -51 -37.5 -77.5t-58.5 -26.5q-21 0 -40.5 9.5t-37 20.5t-34 20.5t-32.5 9.5q-19 0 -30.5 -14.5t-20.5 -49.5z" />
    <glyph glyph-name="g.alt" horiz-adv-x="537" 
d="M66 314q0 38 15.5 71t42.5 57.5t63.5 39t77.5 14.5q43 0 81 -15.5t66 -41.5q7 41 34 64.5t66 23.5q7 0 12.5 -0.5t12.5 -1.5v-71q-9 3 -20 4t-25 1q-22 0 -38.5 -10t-25.5 -28q18 -22 28 -49.5t10 -57.5q0 -38 -15.5 -71t-42.5 -57.5t-63.5 -38.5t-79.5 -14q-16 0 -31 2
t-29 6q-25 -7 -41 -22t-16 -35q0 -19 15 -29t44 -11l186 -10q61 -3 94.5 -29t33.5 -72q0 -69 -70.5 -110t-189.5 -41q-104 0 -162.5 31t-58.5 87q0 28 27 50t78 38q-31 10 -47 30.5t-16 48.5t24 52.5t64 34.5q-47 23 -75.5 65.5t-28.5 94.5zM395 314q0 53 -38 89.5t-92 36.5
t-91 -36.5t-37 -89.5t37 -89t91 -36q55 0 92.5 36t37.5 89zM110 -88q0 -36 38.5 -56.5t106.5 -20.5q88 0 140.5 23.5t52.5 63.5q0 22 -16 33t-47 13l-179 9q-6 0 -12 0.5t-12 1.5q-34 -10 -53 -27.5t-19 -39.5z" />
    <glyph glyph-name="gbreve.alt" horiz-adv-x="537" 
d="M40 0zM66 314q0 38 15.5 71t42.5 57.5t63.5 39t77.5 14.5q43 0 81 -15.5t66 -41.5q7 41 34 64.5t66 23.5q7 0 12.5 -0.5t12.5 -1.5v-71q-9 3 -20 4t-25 1q-22 0 -38.5 -10t-25.5 -28q18 -22 28 -49.5t10 -57.5q0 -38 -15.5 -71t-42.5 -57.5t-63.5 -38.5t-79.5 -14
q-16 0 -31 2t-29 6q-25 -7 -41 -22t-16 -35q0 -19 15 -29t44 -11l186 -10q61 -3 94.5 -29t33.5 -72q0 -69 -70.5 -110t-189.5 -41q-104 0 -162.5 31t-58.5 87q0 28 27 50t78 38q-31 10 -47 30.5t-16 48.5t24 52.5t64 34.5q-47 23 -75.5 65.5t-28.5 94.5zM395 314
q0 53 -38 89.5t-92 36.5t-91 -36.5t-37 -89.5t37 -89t91 -36q55 0 92.5 36t37.5 89zM110 -88q0 -36 38.5 -56.5t106.5 -20.5q88 0 140.5 23.5t52.5 63.5q0 22 -16 33t-47 13l-179 9q-6 0 -12 0.5t-12 1.5q-34 -10 -53 -27.5t-19 -39.5zM265 624q41 0 68.5 24t38.5 68l50 -12
q-13 -59 -55 -92.5t-102 -33.5q-61 0 -103 33.5t-56 92.5l51 12q11 -45 38 -68.5t70 -23.5z" />
    <glyph glyph-name="gcircumflex.alt" horiz-adv-x="537" 
d="M40 0zM66 314q0 38 15.5 71t42.5 57.5t63.5 39t77.5 14.5q43 0 81 -15.5t66 -41.5q7 41 34 64.5t66 23.5q7 0 12.5 -0.5t12.5 -1.5v-71q-9 3 -20 4t-25 1q-22 0 -38.5 -10t-25.5 -28q18 -22 28 -49.5t10 -57.5q0 -38 -15.5 -71t-42.5 -57.5t-63.5 -38.5t-79.5 -14
q-16 0 -31 2t-29 6q-25 -7 -41 -22t-16 -35q0 -19 15 -29t44 -11l186 -10q61 -3 94.5 -29t33.5 -72q0 -69 -70.5 -110t-189.5 -41q-104 0 -162.5 31t-58.5 87q0 28 27 50t78 38q-31 10 -47 30.5t-16 48.5t24 52.5t64 34.5q-47 23 -75.5 65.5t-28.5 94.5zM395 314
q0 53 -38 89.5t-92 36.5t-91 -36.5t-37 -89.5t37 -89t91 -36q55 0 92.5 36t37.5 89zM110 -88q0 -36 38.5 -56.5t106.5 -20.5q88 0 140.5 23.5t52.5 63.5q0 22 -16 33t-47 13l-179 9q-6 0 -12 0.5t-12 1.5q-34 -10 -53 -27.5t-19 -39.5zM358 578l-94 88l-93 -88h-59l114 127
h78l114 -127h-60z" />
    <glyph glyph-name="gcommaaccent.alt" horiz-adv-x="537" 
d="M298 610h-73l69 187h53zM66 314q0 38 15.5 71t42.5 57.5t63.5 39t77.5 14.5q43 0 81 -15.5t66 -41.5q7 41 34 64.5t66 23.5q7 0 12.5 -0.5t12.5 -1.5v-71q-9 3 -20 4t-25 1q-22 0 -38.5 -10t-25.5 -28q18 -22 28 -49.5t10 -57.5q0 -38 -15.5 -71t-42.5 -57.5t-63.5 -38.5
t-79.5 -14q-16 0 -31 2t-29 6q-25 -7 -41 -22t-16 -35q0 -19 15 -29t44 -11l186 -10q61 -3 94.5 -29t33.5 -72q0 -69 -70.5 -110t-189.5 -41q-104 0 -162.5 31t-58.5 87q0 28 27 50t78 38q-31 10 -47 30.5t-16 48.5t24 52.5t64 34.5q-47 23 -75.5 65.5t-28.5 94.5zM395 314
q0 53 -38 89.5t-92 36.5t-91 -36.5t-37 -89.5t37 -89t91 -36q55 0 92.5 36t37.5 89zM110 -88q0 -36 38.5 -56.5t106.5 -20.5q88 0 140.5 23.5t52.5 63.5q0 22 -16 33t-47 13l-179 9q-6 0 -12 0.5t-12 1.5q-34 -10 -53 -27.5t-19 -39.5z" />
    <glyph glyph-name="gdotaccent.alt" horiz-adv-x="537" 
d="M40 0zM66 314q0 38 15.5 71t42.5 57.5t63.5 39t77.5 14.5q43 0 81 -15.5t66 -41.5q7 41 34 64.5t66 23.5q7 0 12.5 -0.5t12.5 -1.5v-71q-9 3 -20 4t-25 1q-22 0 -38.5 -10t-25.5 -28q18 -22 28 -49.5t10 -57.5q0 -38 -15.5 -71t-42.5 -57.5t-63.5 -38.5t-79.5 -14
q-16 0 -31 2t-29 6q-25 -7 -41 -22t-16 -35q0 -19 15 -29t44 -11l186 -10q61 -3 94.5 -29t33.5 -72q0 -69 -70.5 -110t-189.5 -41q-104 0 -162.5 31t-58.5 87q0 28 27 50t78 38q-31 10 -47 30.5t-16 48.5t24 52.5t64 34.5q-47 23 -75.5 65.5t-28.5 94.5zM395 314
q0 53 -38 89.5t-92 36.5t-91 -36.5t-37 -89.5t37 -89t91 -36q55 0 92.5 36t37.5 89zM110 -88q0 -36 38.5 -56.5t106.5 -20.5q88 0 140.5 23.5t52.5 63.5q0 22 -16 33t-47 13l-179 9q-6 0 -12 0.5t-12 1.5q-34 -10 -53 -27.5t-19 -39.5zM265 600q-21 0 -35.5 14.5t-14.5 36.5
t14.5 36.5t35.5 14.5t35.5 -14.5t14.5 -36.5t-14.5 -36.5t-35.5 -14.5z" />
    <glyph glyph-name="fi" unicode="&#xfb01;" horiz-adv-x="587" 
d="M28 0zM28 488h109v107q0 72 38 111t108 39q20 0 36.5 -2.5t29.5 -6.5v-66q-16 4 -29.5 6.5t-29.5 2.5q-42 0 -61 -21t-19 -64v-106h139v-60h-139v-428h-73v428h-109v60zM479 608q-22 0 -37.5 15.5t-15.5 37.5q0 21 15.5 36.5t37.5 15.5q21 0 36.5 -15.5t15.5 -36.5
q0 -22 -15 -37.5t-37 -15.5zM515 488v-488h-73v488h73z" />
    <glyph glyph-name="fl" unicode="&#xfb02;" horiz-adv-x="587" 
d="M28 0zM28 488h109v107q0 72 38 111t108 39q20 0 36.5 -2.5t29.5 -6.5v-66q-16 4 -29.5 6.5t-29.5 2.5q-42 0 -61 -21t-19 -64v-106h139v-60h-139v-428h-73v428h-109v60zM515 730v-730h-73v715z" />
    <glyph glyph-name="ampersand" unicode="&#x26;" horiz-adv-x="669" 
d="M654 40l-45 -53q-28 22 -58.5 46.5t-61.5 50.5q-43 -46 -100.5 -70t-123.5 -24q-104 0 -167.5 54.5t-63.5 143.5q0 60 31.5 105t104.5 85l19 11q-35 44 -49.5 80.5t-14.5 76.5q0 70 48.5 117t120.5 47q69 0 113.5 -40.5t44.5 -103.5q0 -49 -27.5 -88t-84.5 -73l-50 -30
q41 -46 90 -94.5t100 -94.5q25 40 41.5 88t26.5 100l68 -11q-13 -64 -34 -120t-52 -102q32 -28 64 -53.5t60 -47.5zM195 547q0 -31 12.5 -59.5t43.5 -66.5l57 33q37 22 55.5 49t18.5 61q0 37 -26.5 61.5t-63.5 24.5q-42 0 -69.5 -28.5t-27.5 -74.5zM104 190
q0 -62 45.5 -99.5t118.5 -37.5q50 0 94 19t78 56q-57 52 -112.5 107t-99.5 106l-23 -13q-54 -31 -77.5 -63t-23.5 -75z" />
    <glyph glyph-name="grave" unicode="`" horiz-adv-x="523" 
d="M242 706l112 -122h-71l-144 122h103z" />
    <glyph glyph-name="acute" unicode="&#xb4;" horiz-adv-x="523" 
d="M289 706h99l-144 -122h-67z" />
    <glyph glyph-name="circumflex" unicode="&#x2c6;" horiz-adv-x="523" 
d="M355 579l-94 88l-93 -88h-59l114 127h78l114 -127h-60z" />
    <glyph glyph-name="tilde" unicode="&#x2dc;" horiz-adv-x="523" 
d="M139 580l-51 10q13 51 38.5 77.5t61.5 26.5q22 0 41.5 -9.5t37.5 -20.5t34.5 -20.5t31.5 -9.5q16 0 26 14t20 50l51 -10q-13 -51 -37.5 -77.5t-58.5 -26.5q-21 0 -40.5 9.5t-37 20.5t-34 20.5t-32.5 9.5q-19 0 -30.5 -14.5t-20.5 -49.5z" />
    <glyph glyph-name="macron" unicode="&#xaf;" horiz-adv-x="523" 
d="M402 663v-52h-273v52h273z" />
    <glyph glyph-name="breve" unicode="&#x2d8;" horiz-adv-x="523" 
d="M262 625q41 0 68.5 24t38.5 68l50 -12q-13 -59 -55 -92.5t-102 -33.5q-61 0 -103 33.5t-56 92.5l51 12q11 -45 38 -68.5t70 -23.5z" />
    <glyph glyph-name="dotaccent" unicode="&#x2d9;" horiz-adv-x="285" 
d="M143 601q-21 0 -35.5 14.5t-14.5 36.5t14.5 36.5t35.5 14.5t35.5 -14.5t14.5 -36.5t-14.5 -36.5t-35.5 -14.5z" />
    <glyph glyph-name="dieresis" unicode="&#xa8;" horiz-adv-x="543" 
d="M182 601q-21 0 -35.5 14.5t-14.5 36.5t14.5 36.5t35.5 14.5q20 0 35 -14.5t15 -36.5t-15 -36.5t-35 -14.5zM361 601q-21 0 -35.5 14.5t-14.5 36.5t14.5 36.5t35.5 14.5q20 0 35 -14.5t15 -36.5t-15 -36.5t-35 -14.5z" />
    <glyph glyph-name="ring" unicode="&#x2da;" horiz-adv-x="523" 
d="M262 572q-47 0 -79.5 32.5t-32.5 79.5q0 46 32.5 78t79.5 32q46 0 79 -32t33 -78q0 -47 -33 -79.5t-79 -32.5zM262 612q29 0 49 20.5t20 51.5q0 29 -20.5 49t-48.5 20q-30 0 -50 -20t-20 -49q0 -31 20 -51.5t50 -20.5z" />
    <glyph glyph-name="hungarumlaut" unicode="&#x2dd;" horiz-adv-x="532" 
d="M241 706h84l-144 -124h-69zM414 706h85l-147 -124h-67z" />
    <glyph glyph-name="caron" unicode="&#x2c7;" horiz-adv-x="523" 
d="M170 710l92 -88l92 88h61l-114 -127h-78l-114 127h61z" />
    <glyph glyph-name="caronSlovak" horiz-adv-x="467" 
d="M205 714h76l-25 -210h-56z" />
    <glyph glyph-name="uni00200326" horiz-adv-x="249" 
d="M93 -87h73l-69 -187h-53z" />
    <glyph glyph-name="cedilla" unicode="&#xb8;" horiz-adv-x="523" 
d="M395 -146q0 -40 -31 -66.5t-80 -26.5q-34 0 -62 9t-48 27l28 32q17 -14 37 -21.5t42 -7.5q31 0 48 14t17 38q0 23 -18.5 36t-52.5 13h-29l25 99h42l-15 -66q44 -2 70.5 -23.5t26.5 -56.5z" />
    <glyph glyph-name="ogonek" unicode="&#x2db;" horiz-adv-x="523" 
d="M317 0q-54 -35 -79 -66t-25 -62q0 -27 18 -42t49 -15q13 0 26 3t22 9l14 -39q-14 -9 -33.5 -14t-39.5 -5q-48 0 -77 25t-29 66q0 40 28.5 76.5t93.5 79.5z" />
    <glyph glyph-name="period" unicode="." horiz-adv-x="220" 
d="M110 101q21 0 36.5 -16t15.5 -38q0 -23 -15.5 -39t-36.5 -16q-22 0 -37.5 16t-15.5 39q0 22 15.5 38t37.5 16z" />
    <glyph glyph-name="comma" unicode="," horiz-adv-x="220" 
d="M87 74h78l-81 -231h-57z" />
    <glyph glyph-name="colon" unicode=":" horiz-adv-x="220" 
d="M57 0zM110 101q21 0 36.5 -16t15.5 -38q0 -23 -15.5 -39t-36.5 -16q-22 0 -37.5 16t-15.5 39q0 22 15.5 38t37.5 16zM110 498q21 0 36.5 -16t15.5 -38q0 -23 -15.5 -39t-36.5 -16q-22 0 -37.5 16t-15.5 39q0 22 15.5 38t37.5 16z" />
    <glyph glyph-name="semicolon" unicode=";" horiz-adv-x="222" 
d="M20 0zM118 498q21 0 36.5 -16t15.5 -38q0 -23 -15.5 -39t-36.5 -16q-22 0 -37.5 16t-15.5 39q0 22 15.5 38t37.5 16zM80 74h78l-81 -231h-57z" />
    <glyph glyph-name="ellipsis" unicode="&#x2026;" horiz-adv-x="659" 
d="M57 0zM110 101q21 0 36.5 -16t15.5 -38q0 -23 -15.5 -39t-36.5 -16q-22 0 -37.5 16t-15.5 39q0 22 15.5 38t37.5 16zM330 101q21 0 36.5 -16t15.5 -38q0 -23 -15.5 -39t-36.5 -16q-22 0 -37.5 16t-15.5 39q0 22 15.5 38t37.5 16zM549 101q21 0 36.5 -16t15.5 -38
q0 -23 -15.5 -39t-36.5 -16q-22 0 -37.5 16t-15.5 39q0 22 15.5 38t37.5 16z" />
    <glyph glyph-name="exclam" unicode="!" horiz-adv-x="220" 
d="M81 205l-9 512h75l-9 -512h-57zM110 -8q-22 0 -37.5 15.5t-15.5 37.5t15.5 37.5t37.5 15.5q21 0 36.5 -15.5t15.5 -37.5t-15.5 -37.5t-36.5 -15.5z" />
    <glyph glyph-name="exclamdown" unicode="&#xa1;" horiz-adv-x="220" 
d="M139 499l9 -512h-75l9 512h57zM110 712q22 0 37.5 -15.5t15.5 -37.5t-15.5 -37.5t-37.5 -15.5q-21 0 -36.5 15.5t-15.5 37.5t15.5 37.5t36.5 15.5z" />
    <glyph glyph-name="question" unicode="?" horiz-adv-x="512" 
d="M347 363l-32 -24q-34 -25 -48 -56t-11 -76h-63q-4 62 14 103t64 75l42 31q41 31 58 57.5t17 60.5q0 46 -40 77t-97 31q-47 0 -88 -23t-73 -67l-56 38q40 57 97 87.5t123 30.5q44 0 81.5 -13t65 -36t43 -55t15.5 -69q0 -51 -24.5 -88.5t-87.5 -83.5zM226 98q22 0 37 -15.5
t15 -37.5t-15 -37.5t-37 -15.5t-37.5 15.5t-15.5 37.5t15.5 37.5t37.5 15.5z" />
    <glyph glyph-name="questiondown" unicode="&#xbf;" horiz-adv-x="512" 
d="M165 340l32 24q34 25 48 56t11 76h63q4 -62 -14 -103t-64 -75l-42 -31q-41 -31 -58 -57.5t-17 -60.5q0 -46 40 -77t97 -31q47 0 88 23t73 67l56 -38q-40 -57 -97 -87.5t-123 -30.5q-44 0 -81.5 13t-65 36t-43 55t-15.5 69q0 51 24.5 88.5t87.5 83.5zM286 605
q-22 0 -37 15.5t-15 37.5t15 37.5t37 15.5t37.5 -15.5t15.5 -37.5t-15.5 -37.5t-37.5 -15.5z" />
    <glyph glyph-name="quoteleft" unicode="&#x2018;" horiz-adv-x="220" 
d="M123 519h-78l81 231h57z" />
    <glyph glyph-name="quoteright" unicode="&#x2019;" horiz-adv-x="220" 
d="M58 519zM118 750h78l-81 -231h-57z" />
    <glyph glyph-name="quotedblleft" unicode="&#x201c;" horiz-adv-x="379" 
d="M123 519h-78l81 231h57zM283 519h-78l81 231h57z" />
    <glyph glyph-name="quotedblright" unicode="&#x201d;" horiz-adv-x="380" 
d="M58 519zM278 750h78l-81 -231h-57zM118 750h78l-81 -231h-57z" />
    <glyph glyph-name="quotesinglbase" unicode="&#x201a;" horiz-adv-x="198" 
d="M27 0zM87 74h78l-81 -231h-57z" />
    <glyph glyph-name="quotedblbase" unicode="&#x201e;" horiz-adv-x="360" 
d="M27 0zM250 74h78l-81 -231h-57zM87 74h78l-81 -231h-57z" />
    <glyph glyph-name="reversequoteleft" horiz-adv-x="214" 
d="M106 750l55 -231h-56l-77 231h78z" />
    <glyph glyph-name="reversequotedblleft" horiz-adv-x="380" 
d="M106 750l55 -231h-56l-77 231h78zM269 750l55 -231h-57l-77 231h79z" />
    <glyph glyph-name="guilsinglleft" unicode="&#x2039;" horiz-adv-x="401" 
d="M344 488l-217 -241l220 -247h-80l-223 245l223 243h77z" />
    <glyph glyph-name="guilsinglright" unicode="&#x203a;" horiz-adv-x="401" 
d="M57 0l217 241l-220 247h80l223 -245l-223 -243h-77z" />
    <glyph glyph-name="guillemotleft" unicode="&#xab;" horiz-adv-x="625" 
d="M44 0zM344 488l-217 -241l220 -247h-80l-223 245l223 243h77zM568 488l-217 -241l220 -247h-80l-223 245l223 243h77z" />
    <glyph glyph-name="guillemotright" unicode="&#xbb;" horiz-adv-x="624" 
d="M280 0l217 241l-220 247h80l223 -245l-223 -243h-77zM57 0l217 241l-220 247h80l223 -245l-223 -243h-77z" />
    <glyph glyph-name="slash" unicode="/" horiz-adv-x="466" 
d="M-48 -205l399 905h73l-400 -905h-72z" />
    <glyph glyph-name="backslash" unicode="\" horiz-adv-x="471" 
d="M519 -205h-76l-400 905h76z" />
    <glyph glyph-name="bar" unicode="|" horiz-adv-x="291" 
d="M113 -206v906h67v-906h-67z" />
    <glyph glyph-name="bullet" unicode="&#x2022;" horiz-adv-x="342" 
d="M171 253q-40 0 -70 28.5t-30 71.5t30 72t70 29t70 -29t30 -72t-30 -71.5t-70 -28.5z" />
    <glyph glyph-name="uni2002" unicode="&#x2002;" horiz-adv-x="505" 
 />
    <glyph glyph-name="uni2003" unicode="&#x2003;" horiz-adv-x="980" 
 />
    <glyph glyph-name="uni2009" unicode="&#x2009;" horiz-adv-x="198" 
 />
    <glyph glyph-name="uni200A" unicode="&#x200a;" horiz-adv-x="125" 
 />
    <glyph glyph-name="uni200B" unicode="&#x200b;" horiz-adv-x="30" 
 />
    <glyph glyph-name="periodcentered" unicode="&#xb7;" horiz-adv-x="220" 
d="M60 229zM113 338q21 0 36.5 -16t15.5 -38q0 -23 -15.5 -39t-36.5 -16q-22 0 -37.5 16t-15.5 39q0 22 15.5 38t37.5 16z" />
    <glyph glyph-name="hyphen" unicode="-" horiz-adv-x="455" 
d="M61 313h333v-63h-333v63z" />
    <glyph glyph-name="endash" unicode="&#x2013;" horiz-adv-x="550" 
d="M61 313h428v-63h-428v63z" />
    <glyph glyph-name="emdash" unicode="&#x2014;" horiz-adv-x="693" 
d="M61 313h570v-63h-570v63z" />
    <glyph glyph-name="uni2015" unicode="&#x2015;" horiz-adv-x="930" 
d="M61 313h808v-63h-808v63z" />
    <glyph glyph-name="periodcentered.cap" horiz-adv-x="220" 
d="M60 294zM60 294zM113 403q21 0 36.5 -16t15.5 -38q0 -23 -15.5 -39t-36.5 -16q-22 0 -37.5 16t-15.5 39q0 22 15.5 38t37.5 16z" />
    <glyph glyph-name="hyphen.cap" horiz-adv-x="455" 
d="M61 315zM61 378h333v-63h-333v63z" />
    <glyph glyph-name="endash.cap" horiz-adv-x="550" 
d="M61 315zM61 378h428v-63h-428v63z" />
    <glyph glyph-name="emdash.cap" horiz-adv-x="693" 
d="M61 315zM61 378h570v-63h-570v63z" />
    <glyph glyph-name="uni2015.cap" horiz-adv-x="930" 
d="M61 315zM61 378h808v-63h-808v63z" />
    <glyph glyph-name="parenleft" unicode="(" horiz-adv-x="401" 
d="M75 246q0 154 61.5 274t175.5 192l38 -51q-98 -60 -151.5 -169t-53.5 -246t53.5 -246t151.5 -169l-38 -50q-114 71 -175.5 191.5t-61.5 273.5z" />
    <glyph glyph-name="parenright" unicode=")" horiz-adv-x="401" 
d="M326 246q0 -154 -61.5 -274t-175.5 -192l-38 51q98 60 151.5 169t53.5 246t-53.5 246t-151.5 169l38 50q114 -71 175.5 -191.5t61.5 -273.5z" />
    <glyph glyph-name="bracketleft" unicode="[" horiz-adv-x="361" 
d="M310 -215h-241v915h241v-60h-171v-795h171v-60z" />
    <glyph glyph-name="bracketright" unicode="]" horiz-adv-x="361" 
d="M51 700h241v-915h-241v60h171v795h-171v60z" />
    <glyph glyph-name="braceleft" unicode="{" horiz-adv-x="394" 
d="M254 85l-46 -122q-19 -53 -2 -87t63 -35q15 0 29 2.5t30 8.5l14 -56q-21 -8 -39.5 -11.5t-37.5 -3.5q-41 0 -71 15.5t-46 42t-17 63t15 78.5l40 101q22 57 1.5 95.5t-71.5 38.5h-74v61h74q51 0 71.5 38.5t-1.5 95.5l-40 101q-16 42 -15 78.5t17 63t46 42t71 15.5
q19 0 37.5 -3.5t39.5 -11.5l-14 -56q-16 6 -30 8.5t-29 2.5q-46 -1 -63 -35.5t2 -86.5l46 -122q19 -55 -3 -100.5t-74 -59.5q53 -16 74.5 -61.5t2.5 -99.5z" />
    <glyph glyph-name="braceright" unicode="}" horiz-adv-x="394" 
d="M140 407l46 122q19 53 2 87t-63 35q-15 0 -29 -2.5t-30 -8.5l-14 56q21 8 39.5 11.5t37.5 3.5q41 0 71 -15.5t46 -42t17 -63t-15 -78.5l-40 -101q-22 -57 -1.5 -95.5t71.5 -38.5h74v-61h-74q-51 0 -71.5 -38.5t1.5 -95.5l40 -101q16 -42 15 -78.5t-17 -63t-46 -42
t-71 -15.5q-19 0 -37.5 3.5t-39.5 11.5l14 56q16 -6 30 -8.5t29 -2.5q46 1 63 35.5t-2 86.5l-46 122q-19 55 3 100.5t74 59.5q-53 16 -74.5 61.5t-2.5 99.5z" />
    <glyph glyph-name="asterisk" unicode="*" horiz-adv-x="454" 
d="M363 406l-112 73l2 -138h-52l2 138l-112 -73l-29 45l118 73l-114 72l28 44l108 -71l-1 131h52l-1 -130l107 70l30 -44l-115 -72l119 -73z" />
    <glyph glyph-name="dagger" unicode="&#x2020;" horiz-adv-x="434" 
d="M186 0v443h-135v57h135v200h64v-200h134v-57h-134v-443h-64z" />
    <glyph glyph-name="daggerdbl" unicode="&#x2021;" horiz-adv-x="434" 
d="M186 0v200h-135v57h135v186h-135v57h135v200h64v-200h134v-57h-134v-186h134v-57h-134v-200h-64z" />
    <glyph glyph-name="section" unicode="&#xa7;" horiz-adv-x="568" 
d="M445 86q0 -61 -45 -98.5t-119 -37.5q-42 0 -86 12.5t-85 35.5l29 53q40 -22 75.5 -34t66.5 -12q46 0 72 21t26 58q0 29 -17 48.5t-55 32.5l-104 36q-72 25 -102.5 57.5t-30.5 86.5q0 46 27.5 78.5t75.5 45.5q-25 19 -38 45t-13 59q0 61 45.5 99t119.5 38q40 0 84 -13
t87 -36l-29 -53q-40 23 -76 35t-66 12q-46 0 -72.5 -21t-26.5 -58q0 -29 18 -48.5t55 -32.5l103 -36q73 -25 103.5 -58t30.5 -87q0 -46 -27.5 -78.5t-76.5 -46.5q25 -19 38 -44.5t13 -58.5zM328 223q2 -1 5 -2t5 -2q44 6 70.5 30t26.5 60q0 31 -21 52.5t-65 37.5l-110 37
q-2 1 -5 2t-5 2q-44 -5 -70 -29t-26 -61q0 -31 20.5 -52.5t65.5 -37.5z" />
    <glyph glyph-name="paragraph" unicode="&#xb6;" horiz-adv-x="650" 
d="M316 0v289h-54q-93 0 -152 57.5t-59 147.5q0 92 58.5 149t151.5 57h301v-700h-66v289h-113v-289h-67zM496 352v285h-113v-285h113zM262 352h54v285h-54q-63 0 -102.5 -39.5t-39.5 -102.5q0 -65 39.5 -104t102.5 -39z" />
    <glyph glyph-name="asciicircum" unicode="^" horiz-adv-x="540" 
d="M61 350l177 350h64l177 -350h-66l-143 284l-143 -284h-66z" />
    <glyph glyph-name="asciitilde" unicode="~" horiz-adv-x="581" 
d="M262 425l75 -40q24 -12 37.5 -17t26.5 -5q29 0 47 23t23 68l56 -7q-7 -69 -39 -107.5t-81 -38.5q-19 0 -40.5 6.5t-48.5 21.5l-75 40q-25 13 -38 18t-26 5q-28 0 -45.5 -22.5t-23.5 -68.5l-57 7q8 69 40 107.5t81 38.5q19 0 39.5 -6.5t48.5 -22.5z" />
    <glyph glyph-name="underscore" unicode="_" horiz-adv-x="457" 
d="M458 -80v-57h-459v57h459z" />
    <glyph glyph-name="quotesingle" unicode="'" horiz-adv-x="214" 
d="M81 530l-11 220h73l-10 -220h-52z" />
    <glyph glyph-name="quotedbl" unicode="&#x22;" horiz-adv-x="356" 
d="M70 530zM81 530l-11 220h73l-10 -220h-52zM224 530l-11 220h73l-10 -220h-52z" />
    <glyph glyph-name="at" unicode="@" horiz-adv-x="767" 
d="M353 51q-58 0 -97.5 43.5t-39.5 107.5q0 37 13 69t35 56t51.5 38t62.5 14q28 0 52.5 -10t42.5 -28l5 25h55l-37 -192q-7 -36 7 -55.5t46 -19.5q49 0 82.5 48.5t33.5 119.5q0 57 -21 105.5t-57 84t-86.5 55.5t-108.5 20q-61 0 -114 -25t-91.5 -68.5t-61 -102.5t-22.5 -127
q0 -66 22.5 -123t62 -98t94 -64t119.5 -23q43 0 84 10.5t77 30.5l17 -41q-40 -22 -86 -33.5t-95 -11.5q-73 0 -136 26.5t-108.5 73.5t-71.5 111.5t-26 139.5q0 79 26 146.5t71 117t107 77.5t134 28q67 0 125.5 -23.5t100.5 -64.5t66.5 -97.5t24.5 -121.5q0 -46 -13 -85.5
t-35 -68t-53 -44.5t-67 -16q-31 0 -54 11t-35 30q-23 -22 -49.5 -33.5t-51.5 -11.5zM270 206q0 -48 26.5 -78t68.5 -30q21 0 40.5 9t35.5 26q-1 10 -0.5 21.5t2.5 24.5l20 106q-13 22 -36 34t-50 12q-44 0 -75.5 -37t-31.5 -88z" />
    <glyph glyph-name="at.cap" horiz-adv-x="771" 
d="M56 0zM353 186q-58 0 -97.5 43.5t-39.5 107.5q0 37 13 69t35 56t51.5 38t62.5 14q28 0 52.5 -10t42.5 -28l5 25h55l-37 -192q-7 -36 7 -55.5t46 -19.5q49 0 82.5 48.5t33.5 119.5q0 57 -21 105.5t-57 84t-86.5 55.5t-108.5 20q-61 0 -114 -25t-91.5 -68.5t-61 -102.5
t-22.5 -127q0 -66 22.5 -123t62 -98t94 -64t119.5 -23q43 0 84 10.5t77 30.5l17 -41q-40 -22 -86 -33.5t-95 -11.5q-73 0 -136 26.5t-108.5 73.5t-71.5 111.5t-26 139.5q0 79 26 146.5t71 117t107 77.5t134 28q67 0 125.5 -23.5t100.5 -64.5t66.5 -97.5t24.5 -121.5
q0 -46 -13 -85.5t-35 -68t-53 -44.5t-67 -16q-31 0 -54 11t-35 30q-23 -22 -49.5 -33.5t-51.5 -11.5zM270 341q0 -48 26.5 -78t68.5 -30q21 0 40.5 9t35.5 26q-1 10 -0.5 21.5t2.5 24.5l20 106q-13 22 -36 34t-50 12q-44 0 -75.5 -37t-31.5 -88z" />
    <glyph glyph-name="copyright" unicode="&#xa9;" horiz-adv-x="797" 
d="M56 350q0 76 26.5 142t72.5 114.5t108.5 76.5t134.5 28t135 -28t109 -76t72.5 -114.5t26.5 -142.5t-26.5 -142.5t-72.5 -114.5t-109 -76t-135 -28t-134.5 28t-108.5 76.5t-72.5 114.5t-26.5 142zM696 350q0 66 -23 124.5t-63 101t-95 67.5t-117 25q-61 0 -115.5 -25
t-94 -67.5t-63 -101t-23.5 -124.5t23.5 -124.5t63 -101t94 -67.5t115.5 -25q62 0 117 25t95 67.5t63 101t23 124.5zM236 350q0 38 13.5 72t36.5 59t54.5 39.5t67.5 14.5q38 0 73.5 -15t60.5 -43l-35 -40q-19 22 -45 34t-52 12q-50 0 -84.5 -38.5t-34.5 -94.5t34.5 -94
t84.5 -38q27 0 51 11t46 33l34 -39q-26 -27 -60.5 -42t-72.5 -15q-36 0 -67.5 14.5t-54.5 39t-36.5 58.5t-13.5 72z" />
    <glyph glyph-name="registered" unicode="&#xae;" horiz-adv-x="496" 
d="M247 312q-40 0 -75 15.5t-60.5 42.5t-40 64t-14.5 79t14.5 79t40 64t60.5 42.5t75 15.5t75 -15.5t60.5 -42.5t40.5 -64t15 -79t-15 -79t-40.5 -64t-60.5 -42.5t-75 -15.5zM247 346q68 0 112 47.5t44 119.5t-44 119.5t-112 47.5q-66 0 -110 -47.5t-44 -119.5
q0 -71 44 -119t110 -48zM184 420v188h72q28 0 43.5 -15.5t15.5 -42.5q0 -16 -8.5 -30.5t-24.5 -21.5l45 -78h-36l-40 71h-34v-71h-33zM251 580h-34v-63h34q15 0 23.5 8.5t8.5 23.5t-8 23t-24 8z" />
    <glyph glyph-name="trademark" unicode="&#x2122;" horiz-adv-x="672" 
d="M323 700h53l83 -181l83 181h53v-279h-41l2 224l-97 -205l-97 203l1 -222h-40v279zM47 700h229v-38h-94v-241h-42v241h-93v38z" />
    <glyph glyph-name="Euro" unicode="&#x20ac;" horiz-adv-x="729" 
d="M205 350q0 -10 0.5 -20t1.5 -20h231l-17 -51h-207q20 -93 78.5 -149t142.5 -56q54 0 102 26.5t82 75.5l50 -40q-43 -61 -103.5 -94t-129.5 -33q-111 0 -191 74.5t-103 195.5h-98v51h92q-1 10 -1.5 20t-0.5 20q0 11 0.5 22t1.5 21h-92v50h99q12 60 39 109.5t65 84.5
t87 54.5t105 19.5q70 0 129.5 -31.5t103.5 -93.5l-53 -41q-34 50 -80.5 76t-101.5 26q-84 0 -143 -55.5t-79 -148.5h269l-18 -50h-259q-1 -10 -1.5 -21t-0.5 -22z" />
    <glyph glyph-name="dollar" unicode="$" horiz-adv-x="550" 
d="M253 -75v97q-56 4 -110 24t-98 55l36 54q41 -31 84.5 -49.5t87.5 -22.5v247l-51 14q-75 23 -112 62.5t-37 98.5q0 75 54.5 122.5t145.5 51.5v80h48v-82q50 -5 97.5 -25.5t88.5 -53.5l-37 -52q-34 28 -72 45.5t-77 23.5v-231l51 -15q81 -24 116.5 -62.5t35.5 -100.5
q0 -77 -56.5 -127.5t-146.5 -56.5v-97h-48zM225 406l28 -8v220q-60 -2 -96 -31.5t-36 -76.5q0 -38 24.5 -63t79.5 -41zM328 307l-27 9v-233q60 4 97 36t37 81q0 39 -23.5 62.5t-83.5 44.5z" />
    <glyph glyph-name="cent" unicode="&#xa2;" horiz-adv-x="520" 
d="M264 -118v113q-45 6 -83.5 27.5t-67 54.5t-44.5 76.5t-16 92.5t16 92t44 76t67 54.5t84 27.5v113h50v-112q48 -3 91.5 -22.5t76.5 -52.5l-47 -51q-23 25 -55 41t-66 19v-371q35 2 66 17t54 40l45 -45q-32 -34 -75 -54t-90 -24v-112h-50zM126 246q0 -69 39 -120t99 -64
v367q-60 -13 -99 -63.5t-39 -119.5z" />
    <glyph glyph-name="sterling" unicode="&#xa3;" horiz-adv-x="616" 
d="M205 27q-51 10 -84 -5t-55 -59l-54 36q25 45 59 68.5t77 27.5q18 12 25.5 35.5t1.5 56.5l-22 125h-101v57h91l-9 53q-22 130 32 208.5t166 78.5q86 0 141.5 -44.5t75.5 -129.5l-66 -19q-14 63 -52.5 96.5t-98.5 33.5q-78 0 -112 -54t-17 -151l12 -72h199v-57h-189
l17 -105q7 -39 0.5 -69t-24.5 -49l194 -40q50 -10 82 2.5t54 52.5l55 -35q-34 -58 -84 -78.5t-120 -4.5z" />
    <glyph glyph-name="yen" unicode="&#xa5;" horiz-adv-x="656" 
d="M107 209h177v77h-177v52h143l-238 362h90l223 -347l224 347h85l-238 -362h142v-52h-176l-1 -2v-75h177v-51h-177v-158h-77v158h-177v51z" />
    <glyph glyph-name="numbersign" unicode="#" horiz-adv-x="689" 
d="M65 0l75 219h-97v58h117l50 146h-119v58h139l75 219h66l-75 -219h187l75 219h66l-75 -219h96v-58h-116l-50 -146h118v-58h-138l-75 -219h-66l75 219h-187l-75 -219h-66zM226 277h187l50 146h-187z" />
    <glyph glyph-name="zero" unicode="0" horiz-adv-x="660" 
d="M330 -10q-60 0 -110.5 26.5t-86.5 74t-56 114t-20 145.5t20 145.5t56.5 114t86.5 74t110 26.5t110.5 -26.5t86.5 -74t56 -114t20 -145.5t-20 -145.5t-56 -114t-86.5 -74t-110.5 -26.5zM330 55q91 0 145.5 80.5t54.5 214.5t-55 214.5t-145 80.5t-145 -80.5t-55 -214.5
t55 -214.5t145 -80.5z" />
    <glyph glyph-name="one" unicode="1" horiz-adv-x="307" 
d="M225 700v-700h-72v622l-112 -50v66l139 62h45z" />
    <glyph glyph-name="two" unicode="2" horiz-adv-x="548" 
d="M50 0v53l280 306q49 54 67 89t18 75q0 52 -42 87t-105 35q-49 0 -91.5 -19.5t-93.5 -65.5l-42 50q54 50 110.5 74.5t117.5 24.5q94 0 155.5 -51.5t61.5 -130.5q0 -26 -5 -48t-17 -45.5t-32.5 -50.5t-52.5 -62l-239 -259l361 1v-63h-451z" />
    <glyph glyph-name="three" unicode="3" horiz-adv-x="586" 
d="M526 192q0 -44 -18.5 -81t-51 -64t-77.5 -42t-98 -15q-72 0 -134.5 25t-110.5 74l48 47q44 -44 90.5 -63.5t105.5 -19.5q76 0 125 39.5t49 101.5q0 57 -42.5 95t-108.5 38h-83v62h80q57 0 92.5 35t35.5 91q0 55 -44 93.5t-108 38.5q-54 0 -96.5 -19.5t-86.5 -65.5l-48 48
q47 49 106.5 75t125.5 26q48 0 89 -14.5t70.5 -40t46.5 -61t17 -76.5q0 -55 -36 -98.5t-95 -60.5q70 -15 113.5 -61.5t43.5 -106.5z" />
    <glyph glyph-name="four" unicode="4" horiz-adv-x="618" 
d="M488 700v-450h97v-63h-97v-187h-71v187h-378v57l372 456h77zM123 250h294v363z" />
    <glyph glyph-name="five" unicode="5" horiz-adv-x="570" 
d="M69 350l16 350h398v-63h-336l-11 -242q40 19 77 28t78 9q102 0 165.5 -58.5t63.5 -151.5q0 -103 -68 -167.5t-177 -64.5q-69 0 -129 24t-109 71l45 49q46 -43 91.5 -62.5t102.5 -19.5q76 0 124 46.5t48 120.5q0 69 -48 112t-124 43q-40 0 -78 -9.5t-79 -30.5z" />
    <glyph glyph-name="six" unicode="6" horiz-adv-x="619" 
d="M331 -8q-60 0 -110.5 24.5t-86.5 69t-56.5 106t-20.5 134.5q0 86 22.5 156.5t63.5 120.5t99 77.5t129 27.5q43 0 86.5 -12.5t77.5 -34.5l-36 -56q-31 18 -65.5 28t-68.5 10q-107 0 -170.5 -83t-65.5 -227q39 50 93.5 78t111.5 28q51 0 94 -16.5t74 -45.5t48.5 -69
t17.5 -87q0 -49 -18 -91.5t-49.5 -72.5t-75 -47.5t-94.5 -17.5zM324 380q-54 0 -105 -27.5t-88 -75.5q11 -100 65 -161t134 -61q71 0 118.5 47t47.5 117t-48.5 115.5t-123.5 45.5z" />
    <glyph glyph-name="seven" unicode="7" horiz-adv-x="558" 
d="M102 0l348 636h-421v64h499v-56l-344 -644h-82z" />
    <glyph glyph-name="eight" unicode="8" horiz-adv-x="614" 
d="M307 -10q-54 0 -99.5 15t-79 41.5t-52 63t-18.5 79.5q0 63 46.5 113t118.5 67q-61 17 -99.5 61t-38.5 99q0 39 17 72.5t46.5 57.5t70.5 38t88 14t88 -14t71 -38t47 -57.5t17 -72.5q0 -55 -38.5 -99t-99.5 -61q72 -17 118 -66.5t46 -113.5q0 -43 -18.5 -80t-51.5 -63
t-79 -41t-100 -15zM307 399q64 0 108.5 36.5t44.5 90.5t-44 90.5t-109 36.5q-64 0 -108 -36.5t-44 -90.5t44.5 -90.5t107.5 -36.5zM307 49q75 0 126.5 42t51.5 103q0 60 -51.5 101.5t-126.5 41.5t-126.5 -41.5t-51.5 -101.5q0 -61 51.5 -103t126.5 -42z" />
    <glyph glyph-name="nine" unicode="9" horiz-adv-x="619" 
d="M288 708q60 0 110.5 -24.5t86.5 -69t56.5 -106t20.5 -134.5q0 -86 -22.5 -156.5t-63.5 -120.5t-99 -77.5t-129 -27.5q-43 0 -86.5 12.5t-77.5 34.5l36 56q31 -18 65.5 -28t68.5 -10q107 0 170.5 83t65.5 227q-39 -50 -93.5 -78t-111.5 -28q-51 0 -94 16.5t-74 45.5
t-48.5 69t-17.5 87q0 49 18 91.5t49.5 72.5t75 47.5t94.5 17.5zM295 320q54 0 105 27.5t88 75.5q-11 100 -65 161t-134 61q-71 0 -118.5 -47t-47.5 -117t48.5 -115.5t123.5 -45.5z" />
    <glyph glyph-name="uni2070" unicode="&#x2070;" horiz-adv-x="350" 
d="M29 345zM175 345q-65 0 -105.5 50t-40.5 130t40.5 130t105.5 50t106 -49.5t41 -130.5t-41 -130.5t-106 -49.5zM175 391q44 0 70.5 36t26.5 98t-26.5 98.5t-70.5 36.5q-43 0 -69.5 -36.5t-26.5 -98.5t26.5 -98t69.5 -36z" />
    <glyph glyph-name="onesuperior" unicode="&#xb9;" horiz-adv-x="165" 
d="M21 350zM135 700v-350h-51v296l-63 -26v45l82 35h32z" />
    <glyph glyph-name="twosuperior" unicode="&#xb2;" horiz-adv-x="291" 
d="M19 350zM27 350v38l140 130q26 25 36.5 43t10.5 39q0 25 -20 42.5t-51 17.5q-24 0 -45.5 -9t-49.5 -34l-29 35q29 25 60 39t65 14q53 0 86.5 -29t33.5 -72q0 -30 -14 -54t-49 -56l-107 -100h175v-44h-242z" />
    <glyph glyph-name="threesuperior" unicode="&#xb3;" horiz-adv-x="313" 
d="M20 345zM284 447q0 -45 -37.5 -73.5t-95.5 -28.5q-37 0 -70 11.5t-61 33.5l30 38q26 -20 51 -29t50 -9q36 0 59 16t23 42t-22 41.5t-59 15.5h-33v40h28q31 0 52 17t21 43q0 24 -20 39.5t-50 15.5q-25 0 -47 -9t-47 -29l-31 36q27 23 59.5 35.5t66.5 12.5q52 0 86.5 -27
t34.5 -70q0 -28 -19.5 -49.5t-53.5 -30.5q38 -7 61.5 -29t23.5 -53z" />
    <glyph glyph-name="uni2074" unicode="&#x2074;" horiz-adv-x="330" 
d="M22 350zM270 700v-220h42v-42h-42v-88h-51v88h-197v41l191 221h57zM76 480h143v165z" />
    <glyph glyph-name="uni2075" unicode="&#x2075;" horiz-adv-x="309" 
d="M23 345zM40 523l8 177h215v-42h-173l-4 -105q16 7 33 10.5t35 3.5q58 -1 93 -30.5t35 -76.5q0 -51 -37.5 -83t-97.5 -32q-35 0 -64.5 9t-59.5 28l25 40q28 -18 51.5 -26.5t46.5 -8.5q37 0 60.5 20.5t23.5 51.5t-22 50t-60 19q-19 0 -37.5 -4t-38.5 -11z" />
    <glyph glyph-name="uni2076" unicode="&#x2076;" horiz-adv-x="326" 
d="M28 345zM175 345q-65 0 -106 47.5t-41 122.5q0 85 46.5 137t122.5 52q23 0 44.5 -5.5t42.5 -16.5l-21 -43q-18 9 -37 14.5t-34 5.5q-53 0 -83 -38t-30 -103q18 22 45.5 34.5t58.5 12.5q51 0 84.5 -29.5t33.5 -75.5q0 -49 -36 -82t-90 -33zM169 526q-25 0 -48 -11t-40 -32
q7 -43 32.5 -68.5t62.5 -25.5q32 0 53 20t21 50q0 29 -22.5 48t-58.5 19z" />
    <glyph glyph-name="uni2077" unicode="&#x2077;" horiz-adv-x="298" 
d="M17 350zM57 350l172 305h-212v45h269v-39l-169 -311h-60z" />
    <glyph glyph-name="uni2078" unicode="&#x2078;" horiz-adv-x="327" 
d="M30 345zM164 345q-58 0 -96 28.5t-38 71.5q0 31 21 54.5t55 32.5q-28 9 -45.5 30.5t-17.5 49.5q0 40 34.5 67t85.5 27t86.5 -27t35.5 -67q0 -28 -18 -49.5t-47 -30.5q34 -9 55.5 -32.5t21.5 -54.5q0 -43 -38 -71.5t-95 -28.5zM164 552q29 0 49.5 16t20.5 40t-20.5 40.5
t-49.5 16.5q-31 0 -51 -16.5t-20 -40.5t20 -40t51 -16zM164 387q35 0 58.5 18t23.5 44q0 27 -23.5 45t-58.5 18q-36 0 -59.5 -18t-23.5 -45q0 -26 24 -44t59 -18z" />
    <glyph glyph-name="uni2079" unicode="&#x2079;" horiz-adv-x="326" 
d="M25 345zM151 704q65 0 106 -47.5t41 -122.5q0 -85 -46.5 -137t-122.5 -52q-23 0 -44.5 5.5t-42.5 16.5l21 43q18 -9 37 -14.5t34 -5.5q53 0 83 38t30 103q-18 -22 -45.5 -34.5t-58.5 -12.5q-51 0 -84.5 29.5t-33.5 75.5q0 49 36 82t90 33zM157 523q25 0 48 11t40 32
q-7 43 -32.5 68.5t-62.5 25.5q-32 0 -53 -20t-21 -50q0 -29 22.5 -48t58.5 -19z" />
    <glyph glyph-name="uni2080" unicode="&#x2080;" horiz-adv-x="350" 
d="M175 -5q-65 0 -105.5 50t-40.5 130t40.5 130t105.5 50t106 -49.5t41 -130.5t-41 -130.5t-106 -49.5zM175 41q44 0 70.5 36t26.5 98t-26.5 98.5t-70.5 36.5q-43 0 -69.5 -36.5t-26.5 -98.5t26.5 -98t69.5 -36z" />
    <glyph glyph-name="uni2081" unicode="&#x2081;" horiz-adv-x="166" 
d="M135 350v-350h-51v296l-63 -26v45l82 35h32z" />
    <glyph glyph-name="uni2082" unicode="&#x2082;" horiz-adv-x="292" 
d="M27 0v38l140 130q26 25 36.5 43t10.5 39q0 25 -20 42.5t-51 17.5q-24 0 -45.5 -9t-49.5 -34l-29 35q29 25 60 39t65 14q53 0 86.5 -29t33.5 -72q0 -30 -14 -54t-49 -56l-107 -100h175v-44h-242z" />
    <glyph glyph-name="uni2083" unicode="&#x2083;" horiz-adv-x="313" 
d="M284 97q0 -45 -37.5 -73.5t-95.5 -28.5q-37 0 -70 11.5t-61 33.5l30 38q26 -20 51 -29t50 -9q36 0 59 16t23 42t-22 41.5t-59 15.5h-33v40h28q31 0 52 17t21 43q0 24 -20 39.5t-50 15.5q-25 0 -47 -9t-47 -29l-31 36q27 23 59.5 35.5t66.5 12.5q52 0 86.5 -27t34.5 -70
q0 -28 -19.5 -49.5t-53.5 -30.5q38 -7 61.5 -29t23.5 -53z" />
    <glyph glyph-name="uni2084" unicode="&#x2084;" horiz-adv-x="329" 
d="M270 350v-220h42v-42h-42v-88h-51v88h-197v41l191 221h57zM76 130h143v165z" />
    <glyph glyph-name="uni2085" unicode="&#x2085;" horiz-adv-x="309" 
d="M40 173l8 177h215v-42h-173l-4 -105q16 7 33 10.5t35 3.5q58 -1 93 -30.5t35 -76.5q0 -51 -37.5 -83t-97.5 -32q-35 0 -64.5 9t-59.5 28l25 40q28 -18 51.5 -26.5t46.5 -8.5q37 0 60.5 20.5t23.5 51.5t-22 50t-60 19q-19 0 -37.5 -4t-38.5 -11z" />
    <glyph glyph-name="uni2086" unicode="&#x2086;" horiz-adv-x="327" 
d="M175 -5q-65 0 -106 47.5t-41 122.5q0 85 46.5 137t122.5 52q23 0 44.5 -5.5t42.5 -16.5l-21 -43q-18 9 -37 14.5t-34 5.5q-53 0 -83 -38t-30 -103q18 22 45.5 34.5t58.5 12.5q51 0 84.5 -29.5t33.5 -75.5q0 -49 -36 -82t-90 -33zM169 176q-25 0 -48 -11t-40 -32
q7 -43 32.5 -68.5t62.5 -25.5q32 0 53 20t21 50q0 29 -22.5 48t-58.5 19z" />
    <glyph glyph-name="uni2087" unicode="&#x2087;" horiz-adv-x="298" 
d="M57 0l172 305h-212v45h269v-39l-169 -311h-60z" />
    <glyph glyph-name="uni2088" unicode="&#x2088;" horiz-adv-x="327" 
d="M164 -5q-58 0 -96 28.5t-38 71.5q0 31 21 54.5t55 32.5q-28 9 -45.5 30.5t-17.5 49.5q0 40 34.5 67t85.5 27t86.5 -27t35.5 -67q0 -28 -18 -49.5t-47 -30.5q34 -9 55.5 -32.5t21.5 -54.5q0 -43 -38 -71.5t-95 -28.5zM164 202q29 0 49.5 16t20.5 40t-20.5 40.5t-49.5 16.5
q-31 0 -51 -16.5t-20 -40.5t20 -40t51 -16zM164 37q35 0 58.5 18t23.5 44q0 27 -23.5 45t-58.5 18q-36 0 -59.5 -18t-23.5 -45q0 -26 24 -44t59 -18z" />
    <glyph glyph-name="uni2089" unicode="&#x2089;" horiz-adv-x="326" 
d="M151 354q65 0 106 -47.5t41 -122.5q0 -85 -46.5 -137t-122.5 -52q-23 0 -44.5 5.5t-42.5 16.5l21 43q18 -9 37 -14.5t34 -5.5q53 0 83 38t30 103q-18 -22 -45.5 -34.5t-58.5 -12.5q-51 0 -84.5 29.5t-33.5 75.5q0 49 36 82t90 33zM157 173q25 0 48 11t40 32
q-7 43 -32.5 68.5t-62.5 25.5q-32 0 -53 -20t-21 -50q0 -29 22.5 -48t58.5 -19z" />
    <glyph glyph-name="fraction" unicode="&#x2044;" horiz-adv-x="578" 
d="M89 0h-57l393 700h58z" />
    <glyph glyph-name="onehalf" unicode="&#xbd;" horiz-adv-x="637" 
d="M21 0zM21 350zM135 700v-350h-51v296l-63 -26v45l82 35h32zM97 0h-57l393 700h58zM373 0v38l140 130q26 25 36.5 43t10.5 39q0 25 -20 42.5t-51 17.5q-24 0 -45.5 -9t-49.5 -34l-29 35q29 25 60 39t65 14q53 0 86.5 -29t33.5 -72q0 -30 -14 -54t-49 -56l-107 -100h175
v-44h-242z" />
    <glyph glyph-name="onequarter" unicode="&#xbc;" horiz-adv-x="603" 
d="M21 0zM21 350zM135 700v-350h-51v296l-63 -26v45l82 35h32zM97 0h-57l393 700h58zM543 350v-220h42v-42h-42v-88h-51v88h-197v41l191 221h57zM349 130h143v165z" />
    <glyph glyph-name="threequarters" unicode="&#xbe;" horiz-adv-x="697" 
d="M20 0zM20 345zM284 447q0 -45 -37.5 -73.5t-95.5 -28.5q-37 0 -70 11.5t-61 33.5l30 38q26 -20 51 -29t50 -9q36 0 59 16t23 42t-22 41.5t-59 15.5h-33v40h28q31 0 52 17t21 43q0 24 -20 39.5t-50 15.5q-25 0 -47 -9t-47 -29l-31 36q27 23 59.5 35.5t66.5 12.5
q52 0 86.5 -27t34.5 -70q0 -28 -19.5 -49.5t-53.5 -30.5q38 -7 61.5 -29t23.5 -53zM191 0h-57l393 700h58zM637 350v-220h42v-42h-42v-88h-51v88h-197v41l191 221h57zM443 130h143v165z" />
    <glyph glyph-name="percent" unicode="%" horiz-adv-x="739" 
d="M29 0zM29 345zM175 345q-65 0 -105.5 50t-40.5 130t40.5 130t105.5 50t106 -49.5t41 -130.5t-41 -130.5t-106 -49.5zM175 391q44 0 70.5 36t26.5 98t-26.5 98.5t-70.5 36.5q-43 0 -69.5 -36.5t-26.5 -98.5t26.5 -98t69.5 -36zM201 0h-57l393 700h58zM565 -5
q-65 0 -105.5 50t-40.5 130t40.5 130t105.5 50t106 -49.5t41 -130.5t-41 -130.5t-106 -49.5zM565 41q44 0 70.5 36t26.5 98t-26.5 98.5t-70.5 36.5q-43 0 -69.5 -36.5t-26.5 -98.5t26.5 -98t69.5 -36z" />
    <glyph glyph-name="perthousand" unicode="&#x2030;" horiz-adv-x="1084" 
d="M29 0zM29 345zM175 345q-65 0 -105.5 50t-40.5 130t40.5 130t105.5 50t106 -49.5t41 -130.5t-41 -130.5t-106 -49.5zM175 391q44 0 70.5 36t26.5 98t-26.5 98.5t-70.5 36.5q-43 0 -69.5 -36.5t-26.5 -98.5t26.5 -98t69.5 -36zM201 0h-57l393 700h58zM565 -5
q-65 0 -105.5 50t-40.5 130t40.5 130t105.5 50t106 -49.5t41 -130.5t-41 -130.5t-106 -49.5zM565 41q44 0 70.5 36t26.5 98t-26.5 98.5t-70.5 36.5q-43 0 -69.5 -36.5t-26.5 -98.5t26.5 -98t69.5 -36zM909 -5q-65 0 -105.5 50t-40.5 130t40.5 130t105.5 50t106 -49.5
t41 -130.5t-41 -130.5t-106 -49.5zM909 41q44 0 70.5 36t26.5 98t-26.5 98.5t-70.5 36.5q-43 0 -69.5 -36.5t-26.5 -98.5t26.5 -98t69.5 -36z" />
    <glyph glyph-name="plus" unicode="+" horiz-adv-x="530" 
d="M295 145h-60v182h-168v62h168v178h60v-178h167v-62h-167v-182z" />
    <glyph glyph-name="minus" unicode="&#x2212;" horiz-adv-x="530" 
d="M462 389v-62h-395v62h395z" />
    <glyph glyph-name="plusminus" unicode="&#xb1;" horiz-adv-x="530" 
d="M295 173h-60v177h-168v62h168v173h60v-173h167v-62h-167v-177zM462 60v-61h-395v61h395z" />
    <glyph glyph-name="multiply" unicode="&#xd7;" horiz-adv-x="547" 
d="M125 162l-37 40l147 157l-147 157l38 41l147 -157l147 157l39 -40l-148 -157l149 -158l-40 -41l-148 158z" />
    <glyph glyph-name="divide" unicode="&#xf7;" horiz-adv-x="530" 
d="M265 492q-22 0 -37.5 15.5t-15.5 37.5t15.5 37.5t37.5 15.5q21 0 36.5 -15.5t15.5 -37.5t-15.5 -37.5t-36.5 -15.5zM67 327v62h395v-62h-395zM265 120q-22 0 -37.5 15.5t-15.5 37.5t15.5 37.5t37.5 15.5q21 0 36.5 -15.5t15.5 -37.5t-15.5 -37.5t-36.5 -15.5z" />
    <glyph glyph-name="equal" unicode="=" horiz-adv-x="533" 
d="M67 244zM462 306v-62h-395v62h395zM462 469v-62h-395v62h395z" />
    <glyph glyph-name="notequal" unicode="&#x2260;" horiz-adv-x="532" 
d="M76 123l83 121h-92v62h134l69 101h-203v61h245l83 121h58l-83 -121h92v-61h-134l-69 -101h203v-62h-245l-83 -121h-58z" />
    <glyph glyph-name="less" unicode="&#x3c;" horiz-adv-x="465" 
d="M347 103l-317 246l317 245l37 -47l-261 -197l262 -199z" />
    <glyph glyph-name="greater" unicode="&#x3e;" horiz-adv-x="465" 
d="M121 594l317 -246l-317 -245l-37 47l261 197l-262 199z" />
    <glyph glyph-name="degree" unicode="&#xb0;" horiz-adv-x="401" 
d="M201 424q-60 0 -101 42.5t-41 102.5q0 58 41.5 99.5t100.5 41.5q58 0 99.5 -42t41.5 -99q0 -60 -41.5 -102.5t-99.5 -42.5zM201 472q37 0 64 29t27 69q0 37 -27 64t-64 27q-38 0 -65.5 -26.5t-27.5 -64.5q0 -41 27.5 -69.5t65.5 -28.5z" />
    <glyph glyph-name="uni00A4" unicode="&#xa4;" horiz-adv-x="701" 
d="M95 64l-39 40l93 94q-25 33 -39.5 75t-14.5 88t14.5 87.5t40.5 74.5l-94 95l40 41l94 -95q33 27 74 42t87 15t87 -15t74 -42l94 95l39 -40l-95 -95q26 -33 41 -74.5t15 -88.5q0 -46 -14.5 -87.5t-39.5 -74.5l94 -95l-40 -41l-94 94q-33 -27 -74 -42t-87 -15t-88 15.5
t-75 42.5zM351 166q38 0 71.5 15t58 41.5t38.5 62t14 76.5t-14 76.5t-38.5 61.5t-58 41t-71.5 15t-71.5 -15t-58 -41t-39 -61.5t-14.5 -76.5t14 -76.5t38.5 -62t58.5 -41.5t72 -15z" />
    <glyph glyph-name="uni00A6" unicode="&#xa6;" horiz-adv-x="294" 
d="M181 287h-68v413h68v-413zM113 -206v413h68v-413h-68z" />
    <glyph glyph-name="uni00AC" unicode="&#xac;" horiz-adv-x="567" 
d="M59 314h449v-314h-66v248h-383v66z" />
    <glyph glyph-name="uni00AD" unicode="&#xad;" horiz-adv-x="457" 
d="M61 250zM61 313h333v-63h-333v63z" />
    <glyph glyph-name="uni00B5" unicode="&#xb5;" horiz-adv-x="569" 
d="M144 501v-302q0 -66 38 -105t102 -39q45 0 80.5 20.5t57.5 57.5v368h74v-501h-74v58q-29 -34 -68.5 -51t-88.5 -17q-35 0 -66 9.5t-55 27.5v-232h-73v706h73z" />
    <glyph glyph-name="uni02BB" unicode="&#x2bb;" horiz-adv-x="220" 
d="M123 519h-78l81 231h57z" />
    <glyph glyph-name="uni02BC" unicode="&#x2bc;" horiz-adv-x="220" 
d="M58 519zM118 750h78l-81 -231h-57z" />
    <glyph glyph-name="uni2032" unicode="&#x2032;" horiz-adv-x="220" 
d="M58 519zM118 750h78l-81 -231h-57z" />
    <glyph glyph-name="uni2033" unicode="&#x2033;" horiz-adv-x="379" 
d="M123 519h-78l81 231h57zM283 519h-78l81 231h57z" />
    <glyph glyph-name="uni2191" unicode="&#x2191;" horiz-adv-x="505" 
d="M216 0v609l-163 -215l-48 38l246 318l245 -318l-47 -37l-165 219v-614h-68z" />
    <glyph glyph-name="uni2193" unicode="&#x2193;" horiz-adv-x="505" 
d="M285 700v-609l163 215l48 -38l-246 -318l-245 318l47 37l165 -219v614h68z" />
    <glyph glyph-name="uni2215" unicode="&#x2215;" horiz-adv-x="578" 
d="M89 0h-57l393 700h58z" />
    <glyph glyph-name="uniFEFF" unicode="&#xfeff;" horiz-adv-x="0" 
 />
    <glyph glyph-name="uniFFFD" unicode="&#xfffd;" horiz-adv-x="990" 
d="M495 -145l-495 495l495 495l495 -495zM590 340q53 36 73.5 65.5t20.5 71.5q0 61 -52.5 102.5t-130.5 41.5q-69 0 -123.5 -35t-75.5 -92l98 -37q11 29 37.5 46t59.5 17q30 0 49.5 -14.5t19.5 -36.5q0 -12 -9.5 -25t-28.5 -26l-40 -30q-35 -27 -47 -56t-9 -81h101
q-1 28 7.5 44.5t30.5 31.5zM483 219q-29 0 -49.5 -21t-20.5 -49t20.5 -49t49.5 -21q28 0 48.5 21t20.5 49t-20.5 49t-48.5 21z" />
    <glyph glyph-name=".ttfautohint" horiz-adv-x="990" 
d="M0 0z" />
    </font>
</defs>
</svg>
