<svg height="512" viewBox="0 0 64 64" width="512" xmlns="http://www.w3.org/2000/svg"><g id="Fill_Outlines" data-name="Fill Outlines"><g id="Color"><g><g><g><g><g fill="#93999a"><path d="m46 53h13a2 2 0 0 1 2 2v2a0 0 0 0 1 0 0h-15a0 0 0 0 1 0 0v-4a0 0 0 0 1 0 0z"/><path d="m46 37h11v8h-11z"/><path d="m46 29h11v8h-11z"/></g><path d="m50 29h-4v8h11v-4h-3a4 4 0 0 1 -4-4z" fill="#656b76"/><path d="m50 37h-4v8h11v-4h-3a4 4 0 0 1 -4-4z" fill="#656b76"/><path d="m46 45h11v8h-11z" fill="#93999a"/><path d="m50 45h-4v8h11v-4h-3a4 4 0 0 1 -4-4z" fill="#656b76"/><path d="m50 53h-4v4h15v-2h-9a2 2 0 0 1 -2-2z" fill="#656b76"/></g><g><g fill="#93999a"><path d="m3 53h15a0 0 0 0 1 0 0v2a2 2 0 0 1 -2 2h-13a0 0 0 0 1 0 0v-4a0 0 0 0 1 0 0z" transform="matrix(-1 0 0 -1 21 110)"/><path d="m7 37h11v8h-11z" transform="matrix(-1 0 0 -1 25 82)"/><path d="m7 29h11v8h-11z" transform="matrix(-1 0 0 -1 25 66)"/></g><path d="m14 29h4v8h-11v-4h3a4 4 0 0 0 4-4z" fill="#656b76"/><path d="m14 37h4v8h-11v-4h3a4 4 0 0 0 4-4z" fill="#656b76"/><path d="m7 45h11v8h-11z" fill="#93999a" transform="matrix(-1 0 0 -1 25 98)"/><path d="m14 45h4v8h-11v-4h3a4 4 0 0 0 4-4z" fill="#656b76"/><path d="m14 53h4v4h-15v-2h9a2 2 0 0 0 2-2z" fill="#656b76"/></g></g><g><g fill="#d0d8da"><path d="m16 57h32a2 2 0 0 1 2 2v2a0 0 0 0 1 0 0h-36a0 0 0 0 1 0 0v-2a2 2 0 0 1 2-2z"/><path d="m18 41h28v8h-28z"/><path d="m18 33h28v8h-28z"/></g><path d="m22 33h-4v8h28v-4h-20a4 4 0 0 1 -4-4z" fill="#93999a"/><path d="m22 41h-4v8h28v-4h-20a4 4 0 0 1 -4-4z" fill="#93999a"/><path d="m18 25h28v8h-28z" fill="#d0d8da"/><path d="m22 25h-4v8h28v-4h-20a4 4 0 0 1 -4-4z" fill="#93999a"/><path d="m18 49h28v8h-28z" fill="#d0d8da"/><path d="m22 49h-4v8h28v-4h-20a4 4 0 0 1 -4-4z" fill="#93999a"/><path d="m18 57h-2a2 2 0 0 0 -2 2v2h36v-2h-30a2 2 0 0 1 -2-2z" fill="#93999a"/></g></g><g><path d="m58 20v-11h3l-7-6-7 6h3v16z" fill="#f9e109"/><path d="m54 11v-8l-7 6h3v16l8-5v-2.683a6.992 6.992 0 0 1 -4-6.317z" fill="#fcbc04"/></g><circle cx="13" cy="20" fill="#fcbc04" r="2"/><path d="m13 18a2 2 0 0 0 -1.82 1.18 1.992 1.992 0 0 1 2.64 2.64 2 2 0 0 0 -.82-3.82z" fill="#f9e109"/><circle cx="5" cy="15" fill="#fcbc04" r="2"/><path d="m5 13a2 2 0 0 0 -1.82 1.18 1.992 1.992 0 0 1 2.64 2.64 2 2 0 0 0 -.82-3.82z" fill="#f9e109"/><circle cx="13" cy="7" fill="#fcbc04" r="2"/><path d="m13 5a2 2 0 0 0 -1.82 1.18 1.992 1.992 0 0 1 2.64 2.64 2 2 0 0 0 -.82-3.82z" fill="#f9e109"/><g><circle cx="32" cy="16" fill="#f9e109" r="13"/><path d="m37 23a12.993 12.993 0 0 1 -12.027-17.926 12.995 12.995 0 1 0 19.054 15.852 12.923 12.923 0 0 1 -7.027 2.074z" fill="#fcbc04"/><circle cx="32" cy="16" fill="#fcbc04" r="9"/><g fill="#e59730"><path d="m32 7a8.981 8.981 0 0 0 -7.279 3.721 8.989 8.989 0 0 1 12.558 12.558 8.993 8.993 0 0 0 -5.279-16.279z"/><path d="m23.3 13.719a8.987 8.987 0 0 0 12.824 10.275c-.042.006-.082.006-.124.006a12.99 12.99 0 0 1 -12.7-10.281z"/></g></g></g></g><g id="Outlines_copy" data-name="Outlines copy"><g fill="#1f2d51"><circle cx="22" cy="29" r="1"/><circle cx="33" cy="53" r="1"/><circle cx="37" cy="53" r="1"/><circle cx="41" cy="53" r="1"/><path d="m28 52h-6a1 1 0 0 0 0 2h6a1 1 0 0 0 0-2z"/><circle cx="33" cy="45" r="1"/><circle cx="37" cy="45" r="1"/><circle cx="41" cy="45" r="1"/><path d="m28 44h-6a1 1 0 0 0 0 2h6a1 1 0 0 0 0-2z"/><circle cx="33" cy="37" r="1"/><circle cx="37" cy="37" r="1"/><circle cx="41" cy="37" r="1"/><path d="m22 38h6a1 1 0 0 0 0-2h-6a1 1 0 0 0 0 2z"/><path d="m48 56h-1v-29a1 1 0 0 0 -2 0v5h-26v-7a1 1 0 0 0 -2 0v31h-1a3 3 0 0 0 -3 3v2a1 1 0 0 0 1 1h36a1 1 0 0 0 1-1v-2a3 3 0 0 0 -3-3zm-3-22v6h-26v-6zm-26 16h14a1 1 0 0 0 0-2h-14v-6h26v6h-8a1 1 0 0 0 0 2h8v6h-26zm30 10h-34v-1a1 1 0 0 1 1-1h32a1 1 0 0 1 1 1z"/><circle cx="50" cy="49" r="1"/><circle cx="53" cy="49" r="1"/><circle cx="50" cy="41" r="1"/><circle cx="53" cy="41" r="1"/><circle cx="50" cy="33" r="1"/><circle cx="53" cy="33" r="1"/><path d="m59 52h-1v-23a1 1 0 0 0 -1-1h-7a1 1 0 0 0 0 2h6v6h-6a1 1 0 0 0 0 2h6v6h-6a1 1 0 0 0 0 2h6v6h-6a1 1 0 0 0 0 2h9a1 1 0 0 1 1 1v1h-7a1 1 0 0 0 0 2h8a1 1 0 0 0 1-1v-2a3 3 0 0 0 -3-3z"/><path d="m14 48h-3a1 1 0 0 0 0 2h3a1 1 0 0 0 0-2z"/><path d="m14 40h-3a1 1 0 0 0 0 2h3a1 1 0 0 0 0-2z"/><path d="m14 32h-3a1 1 0 0 0 0 2h3a1 1 0 0 0 0-2z"/><path d="m11 56h-7v-1a1 1 0 0 1 1-1h9a1 1 0 0 0 0-2h-6v-6h6a1 1 0 0 0 0-2h-6v-6h6a1 1 0 0 0 0-2h-6v-6h6a1 1 0 0 0 0-2v-5.184a2.991 2.991 0 1 0 -2.855-5.155l-3.22-2.012a3.016 3.016 0 0 0 .075-.649 2.951 2.951 0 0 0 -.3-1.285l4.015-4.015a2.951 2.951 0 0 0 1.285.3 3 3 0 1 0 -3-3 2.951 2.951 0 0 0 .3 1.285l-4.015 4.015a2.951 2.951 0 0 0 -1.285-.3 3 3 0 0 0 0 6 2.97 2.97 0 0 0 1.855-.661l3.22 2.012a2.963 2.963 0 0 0 1.925 3.465v5.184h-5a1 1 0 0 0 -1 1v23h-1a3 3 0 0 0 -3 3v2a1 1 0 0 0 1 1h8a1 1 0 0 0 0-2zm3-36a1 1 0 1 1 -1-1 1 1 0 0 1 1 1zm-1-14a1 1 0 1 1 -1 1 1 1 0 0 1 1-1zm-9 9a1 1 0 1 1 1 1 1 1 0 0 1 -1-1z"/><circle cx="42" cy="29" r="1"/><path d="m32 25a1 1 0 0 0 1-1v-1.142a3.992 3.992 0 0 0 -1-7.858 2 2 0 1 1 2-2 1 1 0 0 0 2 0 4 4 0 0 0 -3-3.858v-1.142a1 1 0 0 0 -2 0v1.142a3.992 3.992 0 0 0 1 7.858 2 2 0 1 1 -2 2 1 1 0 0 0 -2 0 4 4 0 0 0 3 3.858v1.142a1 1 0 0 0 1 1z"/><path d="m36 25.054a.981.981 0 0 0 .444-.1 9.986 9.986 0 0 0 0-17.9 1 1 0 1 0 -.89 1.791 7.986 7.986 0 0 1 0 14.316 1 1 0 0 0 .446 1.9z"/><path d="m28.445 8.842a1 1 0 1 0 -.89-1.791 9.986 9.986 0 0 0 0 17.9.981.981 0 0 0 .444.1 1 1 0 0 0 .446-1.9 7.986 7.986 0 0 1 0-14.316z"/><path d="m32 30a13.983 13.983 0 0 0 11.294-22.25 1 1 0 1 0 -1.613 1.182 12.034 12.034 0 1 1 -2.613-2.613 1 1 0 1 0 1.182-1.613 13.994 13.994 0 1 0 -8.25 25.294z"/><path d="m47 10h2v11a1 1 0 0 0 2 0v-12a1 1 0 0 0 -1-1h-.3l4.3-3.683 4.3 3.683h-.3a1 1 0 0 0 -1 1v9a1 1 0 0 0 2 0v-8h2a1 1 0 0 0 .65-1.759l-7-6a1 1 0 0 0 -1.3 0l-7 6a1 1 0 0 0 .65 1.759z"/><path d="m53 10v14a1 1 0 0 0 2 0v-14a1 1 0 0 0 -2 0z"/></g></g></g></svg>