<svg height="512" viewBox="0 0 64 64" width="512" xmlns="http://www.w3.org/2000/svg"><g id="Fill_Outlines" data-name="Fill Outlines"><g id="Color"><g><g><path d="m3 50h58a0 0 0 0 1 0 0v4a4 4 0 0 1 -4 4h-50a4 4 0 0 1 -4-4v-4a0 0 0 0 1 0 0z" fill="#d0d8da"/><path d="m12 20h40a4 4 0 0 1 4 4v26a0 0 0 0 1 0 0h-48a0 0 0 0 1 0 0v-26a4 4 0 0 1 4-4z" fill="#57b7eb"/><path d="m27 50h10a0 0 0 0 1 0 0v2a2 2 0 0 1 -2 2h-6a2 2 0 0 1 -2-2v-2a0 0 0 0 1 0 0z" fill="#656b76"/><path d="m16 30v-10h-4a4 4 0 0 0 -4 4v26h48v-6h-26a14 14 0 0 1 -14-14z" fill="#4891d3"/><path d="m8 50h-5v4a4 4 0 0 0 4 4h50a4 4 0 0 0 4-4h-49a4 4 0 0 1 -4-4z" fill="#93999a"/></g><g><path d="m33 22h28v8h-28z" fill="#d0d8da"/><path d="m33 14h28v8h-28z" fill="#d0d8da"/><path d="m37 14h-4v8h28v-4h-20a4 4 0 0 1 -4-4z" fill="#93999a"/><path d="m37 22h-4v8h28v-4h-20a4 4 0 0 1 -4-4z" fill="#93999a"/><path d="m33 6h28v8h-28z" fill="#d0d8da"/><path d="m37 6h-4v8h28v-4h-20a4 4 0 0 1 -4-4z" fill="#93999a"/></g></g></g><g id="Outlines_copy" data-name="Outlines copy"><g fill="#1f2d51"><path d="m61 49h-4v-15a1 1 0 0 0 -2 0v15h-52a1 1 0 0 0 -1 1v4a5.006 5.006 0 0 0 5 5h34a1 1 0 0 0 0-2h-34a3 3 0 0 1 -3-3v-3h22v1a3 3 0 0 0 3 3h6a3 3 0 0 0 3-3v-1h22v3a3 3 0 0 1 -3 3h-12a1 1 0 0 0 0 2h12a5.006 5.006 0 0 0 5-5v-4a1 1 0 0 0 -1-1zm-25 3a1 1 0 0 1 -1 1h-6a1 1 0 0 1 -1-1v-1h8z"/><path d="m8 47a1 1 0 0 0 1-1v-22a3 3 0 0 1 3-3h16a1 1 0 0 0 0-2h-16a5.006 5.006 0 0 0 -5 5v22a1 1 0 0 0 1 1z"/><path d="m15.707 23.293a1 1 0 0 0 -1.414 0l-3 3a1 1 0 0 0 0 1.414l3 3a1 1 0 0 0 1.414-1.414l-2.293-2.293 2.293-2.293a1 1 0 0 0 0-1.414z"/><path d="m19 31a1 1 0 0 0 .948-.684l2-6a1 1 0 1 0 -1.9-.632l-2 6a1 1 0 0 0 .952 1.316z"/><path d="m24.293 30.707a1 1 0 0 0 1.414 0l3-3a1 1 0 0 0 0-1.414l-3-3a1 1 0 0 0 -1.414 1.414l2.293 2.293-2.293 2.293a1 1 0 0 0 0 1.414z"/><path d="m15 34a1 1 0 0 0 -2 0v4a1 1 0 0 0 2 0z"/><path d="m20 33a3 3 0 1 0 3 3 3 3 0 0 0 -3-3zm0 4a1 1 0 1 1 1-1 1 1 0 0 1 -1 1z"/><path d="m14 41a1 1 0 0 0 -1 1v4a1 1 0 0 0 2 0v-4a1 1 0 0 0 -1-1z"/><path d="m20 41a3 3 0 1 0 3 3 3 3 0 0 0 -3-3zm0 4a1 1 0 1 1 1-1 1 1 0 0 1 -1 1z"/><path d="m25 34v4a1 1 0 0 0 2 0v-4a1 1 0 0 0 -2 0z"/><path d="m29 38a1 1 0 0 0 2 0v-4a1 1 0 0 0 -2 0z"/><path d="m33 36a3 3 0 1 0 3-3 3 3 0 0 0 -3 3zm4 0a1 1 0 1 1 -1-1 1 1 0 0 1 1 1z"/><path d="m43 38v-4a1 1 0 0 0 -2 0v4a1 1 0 0 0 2 0z"/><path d="m46 39a1 1 0 0 0 1-1v-4a1 1 0 0 0 -2 0v4a1 1 0 0 0 1 1z"/><path d="m28 47a3 3 0 1 0 -3-3 3 3 0 0 0 3 3zm0-4a1 1 0 1 1 -1 1 1 1 0 0 1 1-1z"/><path d="m33 46a1 1 0 0 0 2 0v-4a1 1 0 0 0 -2 0z"/><path d="m37 44a3 3 0 1 0 3-3 3 3 0 0 0 -3 3zm4 0a1 1 0 1 1 -1-1 1 1 0 0 1 1 1z"/><path d="m45 46a1 1 0 0 0 2 0v-4a1 1 0 0 0 -2 0z"/><path d="m50 39a1 1 0 0 0 1-1v-4a1 1 0 0 0 -2 0v4a1 1 0 0 0 1 1z"/><path d="m49 46a1 1 0 0 0 2 0v-4a1 1 0 0 0 -2 0z"/><circle cx="50" cy="54" r="1"/><circle cx="54" cy="54" r="1"/><path d="m10 53a1 1 0 0 0 0 2h6a1 1 0 0 0 0-2z"/><circle cx="48" cy="26" r="1"/><circle cx="52" cy="26" r="1"/><circle cx="56" cy="26" r="1"/><path d="m44 26a1 1 0 0 0 -1-1h-6a1 1 0 0 0 0 2h6a1 1 0 0 0 1-1z"/><circle cx="48" cy="18" r="1"/><circle cx="52" cy="18" r="1"/><circle cx="56" cy="18" r="1"/><path d="m43 17h-6a1 1 0 0 0 0 2h6a1 1 0 0 0 0-2z"/><path d="m61 5h-7a1 1 0 0 0 0 2h6v6h-26v-6h16a1 1 0 0 0 0-2h-17a1 1 0 0 0 -1 1v24a1 1 0 0 0 1 1h4a1 1 0 0 0 0-2h-3v-6h26v6h-19a1 1 0 0 0 0 2h20a1 1 0 0 0 1-1v-24a1 1 0 0 0 -1-1zm-27 16v-6h26v6z"/><circle cx="48" cy="10" r="1"/><circle cx="52" cy="10" r="1"/><circle cx="56" cy="10" r="1"/><path d="m37 9a1 1 0 0 0 0 2h6a1 1 0 0 0 0-2z"/></g></g></g></svg>