<svg width="168" height="25" viewBox="0 0 168 25" fill="none" xmlns="http://www.w3.org/2000/svg">
<path d="M115.935 9.12381H116.783C116.2 5.68419 113.472 3.25 109.659 3.25C104.363 3.25 101 7.29817 101 13.0132C101 18.8606 104.39 22.75 109.58 22.75C113.578 22.75 116.571 19.9454 117.074 15.9501H116.226C115.829 19.1252 113.393 22.0092 109.58 22.0092C104.734 22.0092 101.847 18.252 101.847 13.0132C101.847 7.88026 104.681 3.99084 109.659 3.99084C113.075 3.99084 115.485 6.23982 115.935 9.12381Z" fill="white"/>
<path d="M127.582 22.75C132.798 22.75 136.294 18.6754 136.294 12.9868C136.294 7.29817 132.798 3.25 127.582 3.25C122.365 3.25 118.869 7.29817 118.869 12.9868C118.869 18.6754 122.365 22.75 127.582 22.75ZM127.582 22.0092C123.106 22.0092 119.717 18.3843 119.717 12.9868C119.717 7.58921 123.106 3.99084 127.582 3.99084C132.057 3.99084 135.446 7.58921 135.446 12.9868C135.446 18.3843 132.057 22.0092 127.582 22.0092Z" fill="white"/>
<path d="M139.006 22.459H139.853V14.1245H146.553C151.982 14.1245 150.552 21.6652 151.558 22.459H152.485V22.3002C151.399 21.9827 152.723 14.3362 147.93 13.7805V13.7276C150.499 13.2514 152.14 11.558 152.14 8.83277C152.14 5.20794 149.837 3.54104 146.421 3.54104H139.006V22.459ZM139.853 4.28189H145.917C149.413 4.28189 151.293 5.63127 151.293 8.83277C151.293 11.849 149.016 13.3836 145.917 13.3836H139.853V4.28189Z" fill="white"/>
<path d="M155.887 12.0343V4.28189H167.485V3.54104H155.039V22.459H167.75V21.7181H155.887V12.7751H166.558V12.0343H155.887Z" fill="white"/>
<path fill-rule="evenodd" clip-rule="evenodd" d="M86.9811 12.4873C87.219 12.4873 87.4515 12.5579 87.6493 12.6901C87.8471 12.8223 88.0012 13.0101 88.0921 13.2299C88.1831 13.4497 88.2068 13.6916 88.1602 13.9249C88.1137 14.1581 87.999 14.3724 87.8307 14.5405C87.6623 14.7085 87.4479 14.8229 87.2146 14.8691C86.9812 14.9153 86.7394 14.8912 86.5198 14.7999C86.3001 14.7086 86.1124 14.5542 85.9806 14.3563C85.8487 14.1583 85.7784 13.9257 85.7788 13.6878C85.7793 13.3692 85.9062 13.0639 86.1316 12.8388C86.357 12.6137 86.6626 12.4873 86.9811 12.4873Z" fill="white"/>
<path fill-rule="evenodd" clip-rule="evenodd" d="M94.4907 22.75H96.2349L87.8605 3.25H86.1163L82.1134 12.5348H83.8576L86.9811 5.25692L94.4907 22.7445V22.75ZM81.1228 14.8427H82.8669L79.4698 22.75H77.7256L81.1228 14.8427ZM74.1022 22.75H75.8482L72.0004 14.8427H70.2543L74.1022 22.75ZM46.985 22.75H49.0102L42.6883 14.8427H40.6686L46.985 22.75ZM42.7048 12.5329L49.0102 3.25H46.985L40.6741 12.5348L42.7048 12.5329ZM35 3.25H36.7442V12.5348H35V3.25ZM36.7442 14.8427V22.75H35V14.8427H36.7442ZM53.3725 3.25H55.1167V12.5348H53.3725V3.25ZM55.1167 14.8427V22.75H53.3725V14.8427H55.1167ZM61.6374 3.25H71.4129C72.2831 3.25241 73.1171 3.59918 73.7324 4.21454C74.3478 4.8299 74.6945 5.66381 74.6969 6.53406V9.43315C74.6943 10.1148 74.4807 10.779 74.0854 11.3343C73.6901 11.8897 73.1326 12.309 72.4893 12.5348H61.6374V3.25ZM63.3815 14.8427V22.75H61.6374V14.8427H63.3815ZM63.3815 4.58369V11.3835H71.1666C71.6941 11.3821 72.1995 11.1719 72.5725 10.7989C72.9455 10.4259 73.1556 9.92048 73.1571 9.39301V6.5742C73.1556 6.04609 72.945 5.54009 72.5712 5.16701C72.1974 4.79392 71.691 4.58417 71.1629 4.58369H63.3815Z" fill="white"/>
<circle cx="12.5" cy="12.5" r="12.5" fill="url(#paint0_radial)"/>
<circle cx="12.4804" cy="12.4806" r="11.3139" fill="url(#paint1_radial)"/>
<circle cx="12.4776" cy="12.4781" r="6.4781" fill="#D0C0DF"/>
<path d="M4.91667 2.75002C4.91667 2.75002 4.07025 3.42513 3.58333 3.91669C3.12873 4.37562 2.5 5.16669 2.5 5.16669L7.97495 10.5923C7.71078 11.2028 7.56437 11.8761 7.56437 12.5835C7.56437 13.3255 7.72537 14.0298 8.01434 14.6634L2.62882 20.0489C2.62882 20.0489 3.21348 20.8746 3.66667 21.3334C4.14775 21.8204 5.02336 22.4435 5.02336 22.4435L10.3753 17.0915C11.0414 17.4183 11.7906 17.6018 12.5826 17.6018C13.3449 17.6018 14.0675 17.4318 14.7146 17.1277L20 22.4167C20 22.4167 20.8497 21.715 21.3333 21.25C21.8321 20.7704 22.5 20 22.5 20L17.1476 14.6707C17.4386 14.0351 17.6009 13.3283 17.6009 12.5835C17.6009 11.867 17.4507 11.1855 17.18 10.5688L22.6667 5.16669C22.6667 5.16669 22.0369 4.45971 21.5 3.83335C21 3.25002 20.1667 2.66669 20.1667 2.66669L14.8428 8.10188C14.1635 7.75865 13.3957 7.5653 12.5826 7.5653C11.7463 7.5653 10.9577 7.7699 10.2642 8.13177L4.91667 2.75002Z" fill="white"/>
<rect x="21.2339" y="3.55865" width="0.547445" height="7.54894" transform="rotate(45 21.2339 3.55865)" fill="#FF9C2F"/>
<rect width="0.547445" height="7.50239" transform="matrix(0.707107 -0.707107 -0.707107 -0.707107 21.1763 21.5002)" fill="#FF9C2F"/>
<rect width="0.547445" height="7.56272" transform="matrix(-0.707107 0.707107 0.707107 0.707107 3.71631 3.60254)" fill="#FF9C2F"/>
<rect x="8.7793" y="15.7686" width="0.547445" height="7.55277" transform="rotate(45 8.7793 15.7686)" fill="#FF9C2F"/>
<circle cx="12.5709" cy="12.5714" r="3.57143" fill="url(#paint2_radial)"/>
<defs>
<radialGradient id="paint0_radial" cx="0" cy="0" r="1" gradientUnits="userSpaceOnUse" gradientTransform="translate(12.5 12.5) rotate(90) scale(12.5)">
<stop offset="0.723958" stop-color="white" stop-opacity="0"/>
<stop offset="1" stop-color="white"/>
</radialGradient>
<radialGradient id="paint1_radial" cx="0" cy="0" r="1" gradientUnits="userSpaceOnUse" gradientTransform="translate(12.4804 12.4806) rotate(90) scale(11.3139)">
<stop stop-color="#AD96C2"/>
<stop offset="1" stop-color="#693B93"/>
</radialGradient>
<radialGradient id="paint2_radial" cx="0" cy="0" r="1" gradientUnits="userSpaceOnUse" gradientTransform="translate(11.7546 10.9388) rotate(66.666) scale(5.66763)">
<stop offset="0.154295" stop-color="#FFDE4C"/>
<stop offset="1" stop-color="#FF7C29"/>
</radialGradient>
</defs>
</svg>
